ISO-10303-21;
HEADER;
FILE_DESCRIPTION(('FreeCAD Model'),'2;1');
FILE_NAME('Open CASCADE Shape Model','2026-01-10T20:50:13',('Author'),(
    ''),'Open CASCADE STEP processor 7.8','FreeCAD','Unknown');
FILE_SCHEMA(('AUTOMOTIVE_DESIGN { 1 0 10303 214 1 1 1 1 }'));
ENDSEC;
DATA;
#1 = APPLICATION_PROTOCOL_DEFINITION('international standard',
  'automotive_design',2000,#2);
#2 = APPLICATION_CONTEXT(
  'core data for automotive mechanical design processes');
#3 = SHAPE_DEFINITION_REPRESENTATION(#4,#10);
#4 = PRODUCT_DEFINITION_SHAPE('','',#5);
#5 = PRODUCT_DEFINITION('design','',#6,#9);
#6 = PRODUCT_DEFINITION_FORMATION('','',#7);
#7 = PRODUCT('cover','cover','',(#8));
#8 = PRODUCT_CONTEXT('',#2,'mechanical');
#9 = PRODUCT_DEFINITION_CONTEXT('part definition',#2,'design');
#10 = ADVANCED_BREP_SHAPE_REPRESENTATION('',(#11,#15),#653);
#11 = AXIS2_PLACEMENT_3D('',#12,#13,#14);
#12 = CARTESIAN_POINT('',(0.,0.,0.));
#13 = DIRECTION('',(0.,0.,1.));
#14 = DIRECTION('',(1.,0.,-0.));
#15 = MANIFOLD_SOLID_BREP('',#16);
#16 = CLOSED_SHELL('',(#17,#57,#88,#119,#141,#187,#227,#258,#321,#394,
    #411,#442,#466,#490,#515,#540,#562,#579,#596,#608,#625));
#17 = ADVANCED_FACE('',(#18),#52,.T.);
#18 = FACE_BOUND('',#19,.T.);
#19 = EDGE_LOOP('',(#20,#30,#38,#46));
#20 = ORIENTED_EDGE('',*,*,#21,.T.);
#21 = EDGE_CURVE('',#22,#24,#26,.T.);
#22 = VERTEX_POINT('',#23);
#23 = CARTESIAN_POINT('',(-17.48809503018,-26.37994402136,
    13.271051634506));
#24 = VERTEX_POINT('',#25);
#25 = CARTESIAN_POINT('',(-17.48809503018,-26.72196416469,
    14.210744255292));
#26 = LINE('',#27,#28);
#27 = CARTESIAN_POINT('',(-17.48809503018,-26.37994402136,
    13.271051634506));
#28 = VECTOR('',#29,1.);
#29 = DIRECTION('',(0.,-0.342020143326,0.939692620786));
#30 = ORIENTED_EDGE('',*,*,#31,.T.);
#31 = EDGE_CURVE('',#24,#32,#34,.T.);
#32 = VERTEX_POINT('',#33);
#33 = CARTESIAN_POINT('',(-17.48809503018,-49.36855632563,5.968058801143
    ));
#34 = LINE('',#35,#36);
#35 = CARTESIAN_POINT('',(-17.48809503018,-26.72196416469,
    14.210744255292));
#36 = VECTOR('',#37,1.);
#37 = DIRECTION('',(0.,-0.939692620786,-0.342020143326));
#38 = ORIENTED_EDGE('',*,*,#39,.F.);
#39 = EDGE_CURVE('',#40,#32,#42,.T.);
#40 = VERTEX_POINT('',#41);
#41 = CARTESIAN_POINT('',(-17.48809503018,-49.0265361823,5.028366180357)
  );
#42 = LINE('',#43,#44);
#43 = CARTESIAN_POINT('',(-17.48809503018,-49.0265361823,5.028366180357)
  );
#44 = VECTOR('',#45,1.);
#45 = DIRECTION('',(0.,-0.342020143326,0.939692620786));
#46 = ORIENTED_EDGE('',*,*,#47,.F.);
#47 = EDGE_CURVE('',#22,#40,#48,.T.);
#48 = LINE('',#49,#50);
#49 = CARTESIAN_POINT('',(-17.48809503018,-26.37994402136,
    13.271051634506));
#50 = VECTOR('',#51,1.);
#51 = DIRECTION('',(0.,-0.939692620786,-0.342020143326));
#52 = PLANE('',#53);
#53 = AXIS2_PLACEMENT_3D('',#54,#55,#56);
#54 = CARTESIAN_POINT('',(-17.48809503018,-26.37994402136,
    13.271051634506));
#55 = DIRECTION('',(1.,0.,0.));
#56 = DIRECTION('',(0.,-0.939692620786,-0.342020143326));
#57 = ADVANCED_FACE('',(#58),#83,.T.);
#58 = FACE_BOUND('',#59,.T.);
#59 = EDGE_LOOP('',(#60,#61,#69,#77));
#60 = ORIENTED_EDGE('',*,*,#39,.T.);
#61 = ORIENTED_EDGE('',*,*,#62,.T.);
#62 = EDGE_CURVE('',#32,#63,#65,.T.);
#63 = VERTEX_POINT('',#64);
#64 = CARTESIAN_POINT('',(17.511904969811,-49.36855632563,5.968058801143
    ));
#65 = LINE('',#66,#67);
#66 = CARTESIAN_POINT('',(-17.48809503018,-49.36855632563,5.968058801143
    ));
#67 = VECTOR('',#68,1.);
#68 = DIRECTION('',(1.,0.,0.));
#69 = ORIENTED_EDGE('',*,*,#70,.F.);
#70 = EDGE_CURVE('',#71,#63,#73,.T.);
#71 = VERTEX_POINT('',#72);
#72 = CARTESIAN_POINT('',(17.511904969811,-49.0265361823,5.028366180357)
  );
#73 = LINE('',#74,#75);
#74 = CARTESIAN_POINT('',(17.511904969811,-49.0265361823,5.028366180357)
  );
#75 = VECTOR('',#76,1.);
#76 = DIRECTION('',(0.,-0.342020143326,0.939692620786));
#77 = ORIENTED_EDGE('',*,*,#78,.F.);
#78 = EDGE_CURVE('',#40,#71,#79,.T.);
#79 = LINE('',#80,#81);
#80 = CARTESIAN_POINT('',(-17.48809503018,-49.0265361823,5.028366180357)
  );
#81 = VECTOR('',#82,1.);
#82 = DIRECTION('',(1.,0.,0.));
#83 = PLANE('',#84);
#84 = AXIS2_PLACEMENT_3D('',#85,#86,#87);
#85 = CARTESIAN_POINT('',(-17.48809503018,-49.0265361823,5.028366180357)
  );
#86 = DIRECTION('',(0.,0.939692620786,0.342020143326));
#87 = DIRECTION('',(1.,0.,0.));
#88 = ADVANCED_FACE('',(#89),#114,.T.);
#89 = FACE_BOUND('',#90,.T.);
#90 = EDGE_LOOP('',(#91,#92,#100,#108));
#91 = ORIENTED_EDGE('',*,*,#70,.T.);
#92 = ORIENTED_EDGE('',*,*,#93,.T.);
#93 = EDGE_CURVE('',#63,#94,#96,.T.);
#94 = VERTEX_POINT('',#95);
#95 = CARTESIAN_POINT('',(17.511904969811,-26.72196416469,
    14.210744255292));
#96 = LINE('',#97,#98);
#97 = CARTESIAN_POINT('',(17.511904969811,-49.36855632563,5.968058801143
    ));
#98 = VECTOR('',#99,1.);
#99 = DIRECTION('',(0.,0.939692620786,0.342020143326));
#100 = ORIENTED_EDGE('',*,*,#101,.F.);
#101 = EDGE_CURVE('',#102,#94,#104,.T.);
#102 = VERTEX_POINT('',#103);
#103 = CARTESIAN_POINT('',(17.511904969811,-26.37994402136,
    13.271051634506));
#104 = LINE('',#105,#106);
#105 = CARTESIAN_POINT('',(17.511904969811,-26.37994402136,
    13.271051634506));
#106 = VECTOR('',#107,1.);
#107 = DIRECTION('',(0.,-0.342020143326,0.939692620786));
#108 = ORIENTED_EDGE('',*,*,#109,.F.);
#109 = EDGE_CURVE('',#71,#102,#110,.T.);
#110 = LINE('',#111,#112);
#111 = CARTESIAN_POINT('',(17.511904969811,-49.0265361823,5.028366180357
    ));
#112 = VECTOR('',#113,1.);
#113 = DIRECTION('',(0.,0.939692620786,0.342020143326));
#114 = PLANE('',#115);
#115 = AXIS2_PLACEMENT_3D('',#116,#117,#118);
#116 = CARTESIAN_POINT('',(17.511904969811,-49.0265361823,5.028366180357
    ));
#117 = DIRECTION('',(-1.,0.,0.));
#118 = DIRECTION('',(0.,0.939692620786,0.342020143326));
#119 = ADVANCED_FACE('',(#120),#136,.T.);
#120 = FACE_BOUND('',#121,.T.);
#121 = EDGE_LOOP('',(#122,#123,#129,#130));
#122 = ORIENTED_EDGE('',*,*,#101,.T.);
#123 = ORIENTED_EDGE('',*,*,#124,.T.);
#124 = EDGE_CURVE('',#94,#24,#125,.T.);
#125 = LINE('',#126,#127);
#126 = CARTESIAN_POINT('',(17.511904969811,-26.72196416469,
    14.210744255292));
#127 = VECTOR('',#128,1.);
#128 = DIRECTION('',(-1.,0.,0.));
#129 = ORIENTED_EDGE('',*,*,#21,.F.);
#130 = ORIENTED_EDGE('',*,*,#131,.F.);
#131 = EDGE_CURVE('',#102,#22,#132,.T.);
#132 = LINE('',#133,#134);
#133 = CARTESIAN_POINT('',(17.511904969811,-26.37994402136,
    13.271051634506));
#134 = VECTOR('',#135,1.);
#135 = DIRECTION('',(-1.,0.,0.));
#136 = PLANE('',#137);
#137 = AXIS2_PLACEMENT_3D('',#138,#139,#140);
#138 = CARTESIAN_POINT('',(17.511904969811,-26.37994402136,
    13.271051634506));
#139 = DIRECTION('',(-0.,-0.939692620786,-0.342020143326));
#140 = DIRECTION('',(-1.,0.,0.));
#141 = ADVANCED_FACE('',(#142,#148),#182,.F.);
#142 = FACE_BOUND('',#143,.F.);
#143 = EDGE_LOOP('',(#144,#145,#146,#147));
#144 = ORIENTED_EDGE('',*,*,#31,.T.);
#145 = ORIENTED_EDGE('',*,*,#62,.T.);
#146 = ORIENTED_EDGE('',*,*,#93,.T.);
#147 = ORIENTED_EDGE('',*,*,#124,.T.);
#148 = FACE_BOUND('',#149,.F.);
#149 = EDGE_LOOP('',(#150,#160,#168,#176));
#150 = ORIENTED_EDGE('',*,*,#151,.F.);
#151 = EDGE_CURVE('',#152,#154,#156,.T.);
#152 = VERTEX_POINT('',#153);
#153 = CARTESIAN_POINT('',(-17.28809503018,-45.60978584248,
    7.336139374446));
#154 = VERTEX_POINT('',#155);
#155 = CARTESIAN_POINT('',(17.311904969811,-45.60978584248,
    7.336139374446));
#156 = LINE('',#157,#158);
#157 = CARTESIAN_POINT('',(-8.638095030189,-45.60978584248,
    7.336139374446));
#158 = VECTOR('',#159,1.);
#159 = DIRECTION('',(1.,0.,0.));
#160 = ORIENTED_EDGE('',*,*,#161,.F.);
#161 = EDGE_CURVE('',#162,#152,#164,.T.);
#162 = VERTEX_POINT('',#163);
#163 = CARTESIAN_POINT('',(-17.28809503018,-27.47371826132,
    13.937128140631));
#164 = LINE('',#165,#166);
#165 = CARTESIAN_POINT('',(-17.28809503018,-32.75948925324,
    12.013264834424));
#166 = VECTOR('',#167,1.);
#167 = DIRECTION('',(0.,-0.939692620786,-0.342020143326));
#168 = ORIENTED_EDGE('',*,*,#169,.F.);
#169 = EDGE_CURVE('',#170,#162,#172,.T.);
#170 = VERTEX_POINT('',#171);
#171 = CARTESIAN_POINT('',(17.311904969811,-27.47371826132,
    13.937128140631));
#172 = LINE('',#173,#174);
#173 = CARTESIAN_POINT('',(8.661904969811,-27.47371826132,
    13.937128140631));
#174 = VECTOR('',#175,1.);
#175 = DIRECTION('',(-1.,0.,0.));
#176 = ORIENTED_EDGE('',*,*,#177,.F.);
#177 = EDGE_CURVE('',#154,#170,#178,.T.);
#178 = LINE('',#179,#180);
#179 = CARTESIAN_POINT('',(17.311904969811,-41.82752304382,
    8.712770451332));
#180 = VECTOR('',#181,1.);
#181 = DIRECTION('',(0.,0.939692620786,0.342020143326));
#182 = PLANE('',#183);
#183 = AXIS2_PLACEMENT_3D('',#184,#185,#186);
#184 = CARTESIAN_POINT('',(1.190496981144E-02,-38.04526024516,
    10.089401528217));
#185 = DIRECTION('',(0.,-0.342020143326,0.939692620786));
#186 = DIRECTION('',(0.,0.939692620786,0.342020143326));
#187 = ADVANCED_FACE('',(#188),#222,.F.);
#188 = FACE_BOUND('',#189,.F.);
#189 = EDGE_LOOP('',(#190,#200,#208,#216));
#190 = ORIENTED_EDGE('',*,*,#191,.T.);
#191 = EDGE_CURVE('',#192,#194,#196,.T.);
#192 = VERTEX_POINT('',#193);
#193 = CARTESIAN_POINT('',(-17.78809503018,-22.6357937772,
    14.633810876002));
#194 = VERTEX_POINT('',#195);
#195 = CARTESIAN_POINT('',(-17.78809503018,-23.11462197786,
    15.949380545102));
#196 = LINE('',#197,#198);
#197 = CARTESIAN_POINT('',(-17.78809503018,-22.6357937772,
    14.633810876002));
#198 = VECTOR('',#199,1.);
#199 = DIRECTION('',(0.,-0.342020143326,0.939692620786));
#200 = ORIENTED_EDGE('',*,*,#201,.T.);
#201 = EDGE_CURVE('',#194,#202,#204,.T.);
#202 = VERTEX_POINT('',#203);
#203 = CARTESIAN_POINT('',(-17.78809503018,-54.78226329834,
    4.423301715027));
#204 = LINE('',#205,#206);
#205 = CARTESIAN_POINT('',(-17.78809503018,-23.11462197786,
    15.949380545102));
#206 = VECTOR('',#207,1.);
#207 = DIRECTION('',(0.,-0.939692620786,-0.342020143326));
#208 = ORIENTED_EDGE('',*,*,#209,.F.);
#209 = EDGE_CURVE('',#210,#202,#212,.T.);
#210 = VERTEX_POINT('',#211);
#211 = CARTESIAN_POINT('',(-17.78809503018,-54.30343509768,
    3.107732045926));
#212 = LINE('',#213,#214);
#213 = CARTESIAN_POINT('',(-17.78809503018,-54.30343509768,
    3.107732045926));
#214 = VECTOR('',#215,1.);
#215 = DIRECTION('',(0.,-0.342020143326,0.939692620786));
#216 = ORIENTED_EDGE('',*,*,#217,.F.);
#217 = EDGE_CURVE('',#192,#210,#218,.T.);
#218 = LINE('',#219,#220);
#219 = CARTESIAN_POINT('',(-17.78809503018,-22.6357937772,
    14.633810876002));
#220 = VECTOR('',#221,1.);
#221 = DIRECTION('',(0.,-0.939692620786,-0.342020143326));
#222 = PLANE('',#223);
#223 = AXIS2_PLACEMENT_3D('',#224,#225,#226);
#224 = CARTESIAN_POINT('',(-17.78809503018,-22.6357937772,
    14.633810876002));
#225 = DIRECTION('',(1.,0.,0.));
#226 = DIRECTION('',(0.,-0.939692620786,-0.342020143326));
#227 = ADVANCED_FACE('',(#228),#253,.F.);
#228 = FACE_BOUND('',#229,.F.);
#229 = EDGE_LOOP('',(#230,#240,#246,#247));
#230 = ORIENTED_EDGE('',*,*,#231,.T.);
#231 = EDGE_CURVE('',#232,#234,#236,.T.);
#232 = VERTEX_POINT('',#233);
#233 = CARTESIAN_POINT('',(17.811904969811,-22.6357937772,
    14.633810876002));
#234 = VERTEX_POINT('',#235);
#235 = CARTESIAN_POINT('',(17.811904969811,-23.11462197786,
    15.949380545102));
#236 = LINE('',#237,#238);
#237 = CARTESIAN_POINT('',(17.811904969811,-22.6357937772,
    14.633810876002));
#238 = VECTOR('',#239,1.);
#239 = DIRECTION('',(0.,-0.342020143326,0.939692620786));
#240 = ORIENTED_EDGE('',*,*,#241,.T.);
#241 = EDGE_CURVE('',#234,#194,#242,.T.);
#242 = LINE('',#243,#244);
#243 = CARTESIAN_POINT('',(17.811904969811,-23.11462197786,
    15.949380545102));
#244 = VECTOR('',#245,1.);
#245 = DIRECTION('',(-1.,0.,0.));
#246 = ORIENTED_EDGE('',*,*,#191,.F.);
#247 = ORIENTED_EDGE('',*,*,#248,.F.);
#248 = EDGE_CURVE('',#232,#192,#249,.T.);
#249 = LINE('',#250,#251);
#250 = CARTESIAN_POINT('',(17.811904969811,-22.6357937772,
    14.633810876002));
#251 = VECTOR('',#252,1.);
#252 = DIRECTION('',(-1.,0.,0.));
#253 = PLANE('',#254);
#254 = AXIS2_PLACEMENT_3D('',#255,#256,#257);
#255 = CARTESIAN_POINT('',(17.811904969811,-22.6357937772,
    14.633810876002));
#256 = DIRECTION('',(-0.,-0.939692620786,-0.342020143326));
#257 = DIRECTION('',(-1.,0.,0.));
#258 = ADVANCED_FACE('',(#259),#316,.F.);
#259 = FACE_BOUND('',#260,.F.);
#260 = EDGE_LOOP('',(#261,#269,#270,#278,#286,#294,#302,#310));
#261 = ORIENTED_EDGE('',*,*,#262,.F.);
#262 = EDGE_CURVE('',#210,#263,#265,.T.);
#263 = VERTEX_POINT('',#264);
#264 = CARTESIAN_POINT('',(-4.5,-54.30343509768,3.107732045926));
#265 = LINE('',#266,#267);
#266 = CARTESIAN_POINT('',(-17.78809503018,-54.30343509768,
    3.107732045926));
#267 = VECTOR('',#268,1.);
#268 = DIRECTION('',(1.,0.,0.));
#269 = ORIENTED_EDGE('',*,*,#209,.T.);
#270 = ORIENTED_EDGE('',*,*,#271,.T.);
#271 = EDGE_CURVE('',#202,#272,#274,.T.);
#272 = VERTEX_POINT('',#273);
#273 = CARTESIAN_POINT('',(17.811904969811,-54.78226329834,
    4.423301715027));
#274 = LINE('',#275,#276);
#275 = CARTESIAN_POINT('',(-17.78809503018,-54.78226329834,
    4.423301715027));
#276 = VECTOR('',#277,1.);
#277 = DIRECTION('',(1.,0.,0.));
#278 = ORIENTED_EDGE('',*,*,#279,.F.);
#279 = EDGE_CURVE('',#280,#272,#282,.T.);
#280 = VERTEX_POINT('',#281);
#281 = CARTESIAN_POINT('',(17.811904969811,-54.30343509768,
    3.107732045926));
#282 = LINE('',#283,#284);
#283 = CARTESIAN_POINT('',(17.811904969811,-54.30343509768,
    3.107732045926));
#284 = VECTOR('',#285,1.);
#285 = DIRECTION('',(0.,-0.342020143326,0.939692620786));
#286 = ORIENTED_EDGE('',*,*,#287,.F.);
#287 = EDGE_CURVE('',#288,#280,#290,.T.);
#288 = VERTEX_POINT('',#289);
#289 = CARTESIAN_POINT('',(4.5,-54.30343509768,3.107732045926));
#290 = LINE('',#291,#292);
#291 = CARTESIAN_POINT('',(-17.78809503018,-54.30343509768,
    3.107732045926));
#292 = VECTOR('',#293,1.);
#293 = DIRECTION('',(1.,0.,0.));
#294 = ORIENTED_EDGE('',*,*,#295,.T.);
#295 = EDGE_CURVE('',#288,#296,#298,.T.);
#296 = VERTEX_POINT('',#297);
#297 = CARTESIAN_POINT('',(4.5,-54.46760476648,3.558784503904));
#298 = LINE('',#299,#300);
#299 = CARTESIAN_POINT('',(4.5,-54.30343509768,3.107732045926));
#300 = VECTOR('',#301,1.);
#301 = DIRECTION('',(0.,-0.342020143326,0.939692620786));
#302 = ORIENTED_EDGE('',*,*,#303,.T.);
#303 = EDGE_CURVE('',#296,#304,#306,.T.);
#304 = VERTEX_POINT('',#305);
#305 = CARTESIAN_POINT('',(-4.5,-54.46760476648,3.558784503904));
#306 = LINE('',#307,#308);
#307 = CARTESIAN_POINT('',(4.5,-54.46760476648,3.558784503904));
#308 = VECTOR('',#309,1.);
#309 = DIRECTION('',(-1.,-0.,0.));
#310 = ORIENTED_EDGE('',*,*,#311,.T.);
#311 = EDGE_CURVE('',#304,#263,#312,.T.);
#312 = LINE('',#313,#314);
#313 = CARTESIAN_POINT('',(-4.5,-54.46760476648,3.558784503904));
#314 = VECTOR('',#315,1.);
#315 = DIRECTION('',(0.,0.342020143326,-0.939692620786));
#316 = PLANE('',#317);
#317 = AXIS2_PLACEMENT_3D('',#318,#319,#320);
#318 = CARTESIAN_POINT('',(-17.78809503018,-54.30343509768,
    3.107732045926));
#319 = DIRECTION('',(0.,0.939692620786,0.342020143326));
#320 = DIRECTION('',(1.,0.,0.));
#321 = ADVANCED_FACE('',(#322,#333,#344,#378),#389,.T.);
#322 = FACE_BOUND('',#323,.T.);
#323 = EDGE_LOOP('',(#324,#325,#326,#332));
#324 = ORIENTED_EDGE('',*,*,#201,.T.);
#325 = ORIENTED_EDGE('',*,*,#271,.T.);
#326 = ORIENTED_EDGE('',*,*,#327,.T.);
#327 = EDGE_CURVE('',#272,#234,#328,.T.);
#328 = LINE('',#329,#330);
#329 = CARTESIAN_POINT('',(17.811904969811,-54.78226329834,
    4.423301715027));
#330 = VECTOR('',#331,1.);
#331 = DIRECTION('',(0.,0.939692620786,0.342020143326));
#332 = ORIENTED_EDGE('',*,*,#241,.T.);
#333 = FACE_BOUND('',#334,.T.);
#334 = EDGE_LOOP('',(#335));
#335 = ORIENTED_EDGE('',*,*,#336,.T.);
#336 = EDGE_CURVE('',#337,#337,#339,.T.);
#337 = VERTEX_POINT('',#338);
#338 = CARTESIAN_POINT('',(16.211904969811,-25.5578227919,
    15.060128172455));
#339 = CIRCLE('',#340,1.);
#340 = AXIS2_PLACEMENT_3D('',#341,#342,#343);
#341 = CARTESIAN_POINT('',(15.211904969811,-25.5578227919,
    15.060128172455));
#342 = DIRECTION('',(0.,0.342020143326,-0.939692620786));
#343 = DIRECTION('',(1.,0.,0.));
#344 = FACE_BOUND('',#345,.T.);
#345 = EDGE_LOOP('',(#346,#356,#364,#372));
#346 = ORIENTED_EDGE('',*,*,#347,.T.);
#347 = EDGE_CURVE('',#348,#350,#352,.T.);
#348 = VERTEX_POINT('',#349);
#349 = CARTESIAN_POINT('',(17.311904969811,-27.61052631865,
    14.313005188946));
#350 = VERTEX_POINT('',#351);
#351 = CARTESIAN_POINT('',(17.311904969811,-45.74659389981,7.71201642276
    ));
#352 = LINE('',#353,#354);
#353 = CARTESIAN_POINT('',(17.311904969811,-42.34751826896,
    8.949178776412));
#354 = VECTOR('',#355,1.);
#355 = DIRECTION('',(-0.,-0.939692620786,-0.342020143326));
#356 = ORIENTED_EDGE('',*,*,#357,.T.);
#357 = EDGE_CURVE('',#350,#358,#360,.T.);
#358 = VERTEX_POINT('',#359);
#359 = CARTESIAN_POINT('',(-17.28809503018,-45.74659389981,7.71201642276
    ));
#360 = LINE('',#361,#362);
#361 = CARTESIAN_POINT('',(-8.638095030189,-45.74659389981,7.71201642276
    ));
#362 = VECTOR('',#363,1.);
#363 = DIRECTION('',(-1.,-0.,0.));
#364 = ORIENTED_EDGE('',*,*,#365,.T.);
#365 = EDGE_CURVE('',#358,#366,#368,.T.);
#366 = VERTEX_POINT('',#367);
#367 = CARTESIAN_POINT('',(-17.28809503018,-27.61052631865,
    14.313005188946));
#368 = LINE('',#369,#370);
#369 = CARTESIAN_POINT('',(-17.28809503018,-33.27948447837,
    12.249673159505));
#370 = VECTOR('',#371,1.);
#371 = DIRECTION('',(0.,0.939692620786,0.342020143326));
#372 = ORIENTED_EDGE('',*,*,#373,.T.);
#373 = EDGE_CURVE('',#366,#348,#374,.T.);
#374 = LINE('',#375,#376);
#375 = CARTESIAN_POINT('',(8.661904969811,-27.61052631865,
    14.313005188946));
#376 = VECTOR('',#377,1.);
#377 = DIRECTION('',(1.,0.,0.));
#378 = FACE_BOUND('',#379,.T.);
#379 = EDGE_LOOP('',(#380));
#380 = ORIENTED_EDGE('',*,*,#381,.T.);
#381 = EDGE_CURVE('',#382,#382,#384,.T.);
#382 = VERTEX_POINT('',#383);
#383 = CARTESIAN_POINT('',(-14.18809503018,-25.5578227919,
    15.060128172455));
#384 = CIRCLE('',#385,1.);
#385 = AXIS2_PLACEMENT_3D('',#386,#387,#388);
#386 = CARTESIAN_POINT('',(-15.18809503018,-25.5578227919,
    15.060128172455));
#387 = DIRECTION('',(0.,0.342020143326,-0.939692620786));
#388 = DIRECTION('',(1.,0.,0.));
#389 = PLANE('',#390);
#390 = AXIS2_PLACEMENT_3D('',#391,#392,#393);
#391 = CARTESIAN_POINT('',(1.190496981144E-02,-38.9484426381,
    10.186341130064));
#392 = DIRECTION('',(0.,-0.342020143326,0.939692620786));
#393 = DIRECTION('',(0.,0.939692620786,0.342020143326));
#394 = ADVANCED_FACE('',(#395),#406,.F.);
#395 = FACE_BOUND('',#396,.F.);
#396 = EDGE_LOOP('',(#397,#398,#399,#400));
#397 = ORIENTED_EDGE('',*,*,#279,.T.);
#398 = ORIENTED_EDGE('',*,*,#327,.T.);
#399 = ORIENTED_EDGE('',*,*,#231,.F.);
#400 = ORIENTED_EDGE('',*,*,#401,.F.);
#401 = EDGE_CURVE('',#280,#232,#402,.T.);
#402 = LINE('',#403,#404);
#403 = CARTESIAN_POINT('',(17.811904969811,-54.30343509768,
    3.107732045926));
#404 = VECTOR('',#405,1.);
#405 = DIRECTION('',(0.,0.939692620786,0.342020143326));
#406 = PLANE('',#407);
#407 = AXIS2_PLACEMENT_3D('',#408,#409,#410);
#408 = CARTESIAN_POINT('',(17.811904969811,-54.30343509768,
    3.107732045926));
#409 = DIRECTION('',(-1.,0.,0.));
#410 = DIRECTION('',(0.,0.939692620786,0.342020143326));
#411 = ADVANCED_FACE('',(#412),#437,.F.);
#412 = FACE_BOUND('',#413,.F.);
#413 = EDGE_LOOP('',(#414,#422,#430,#436));
#414 = ORIENTED_EDGE('',*,*,#415,.T.);
#415 = EDGE_CURVE('',#304,#416,#418,.T.);
#416 = VERTEX_POINT('',#417);
#417 = CARTESIAN_POINT('',(-4.5,-54.82468796238,3.42881684944));
#418 = LINE('',#419,#420);
#419 = CARTESIAN_POINT('',(-4.5,-54.46760476648,3.558784503904));
#420 = VECTOR('',#421,1.);
#421 = DIRECTION('',(0.,-0.939692620786,-0.342020143326));
#422 = ORIENTED_EDGE('',*,*,#423,.T.);
#423 = EDGE_CURVE('',#416,#424,#426,.T.);
#424 = VERTEX_POINT('',#425);
#425 = CARTESIAN_POINT('',(-4.5,-54.66051829358,2.977764391463));
#426 = LINE('',#427,#428);
#427 = CARTESIAN_POINT('',(-4.5,-54.82468796238,3.42881684944));
#428 = VECTOR('',#429,1.);
#429 = DIRECTION('',(0.,0.342020143326,-0.939692620786));
#430 = ORIENTED_EDGE('',*,*,#431,.F.);
#431 = EDGE_CURVE('',#263,#424,#432,.T.);
#432 = LINE('',#433,#434);
#433 = CARTESIAN_POINT('',(-4.5,-54.30343509768,3.107732045926));
#434 = VECTOR('',#435,1.);
#435 = DIRECTION('',(0.,-0.939692620786,-0.342020143326));
#436 = ORIENTED_EDGE('',*,*,#311,.F.);
#437 = PLANE('',#438);
#438 = AXIS2_PLACEMENT_3D('',#439,#440,#441);
#439 = CARTESIAN_POINT('',(-4.5,-54.46760476648,3.558784503904));
#440 = DIRECTION('',(1.,0.,0.));
#441 = DIRECTION('',(0.,0.342020143326,-0.939692620786));
#442 = ADVANCED_FACE('',(#443),#461,.F.);
#443 = FACE_BOUND('',#444,.F.);
#444 = EDGE_LOOP('',(#445,#453,#459,#460));
#445 = ORIENTED_EDGE('',*,*,#446,.T.);
#446 = EDGE_CURVE('',#296,#447,#449,.T.);
#447 = VERTEX_POINT('',#448);
#448 = CARTESIAN_POINT('',(4.5,-54.82468796238,3.42881684944));
#449 = LINE('',#450,#451);
#450 = CARTESIAN_POINT('',(4.5,-54.46760476648,3.558784503904));
#451 = VECTOR('',#452,1.);
#452 = DIRECTION('',(0.,-0.939692620786,-0.342020143326));
#453 = ORIENTED_EDGE('',*,*,#454,.T.);
#454 = EDGE_CURVE('',#447,#416,#455,.T.);
#455 = LINE('',#456,#457);
#456 = CARTESIAN_POINT('',(4.5,-54.82468796238,3.42881684944));
#457 = VECTOR('',#458,1.);
#458 = DIRECTION('',(-1.,-0.,0.));
#459 = ORIENTED_EDGE('',*,*,#415,.F.);
#460 = ORIENTED_EDGE('',*,*,#303,.F.);
#461 = PLANE('',#462);
#462 = AXIS2_PLACEMENT_3D('',#463,#464,#465);
#463 = CARTESIAN_POINT('',(4.5,-54.46760476648,3.558784503904));
#464 = DIRECTION('',(0.,0.342020143326,-0.939692620786));
#465 = DIRECTION('',(-1.,0.,-0.));
#466 = ADVANCED_FACE('',(#467),#485,.F.);
#467 = FACE_BOUND('',#468,.F.);
#468 = EDGE_LOOP('',(#469,#477,#483,#484));
#469 = ORIENTED_EDGE('',*,*,#470,.T.);
#470 = EDGE_CURVE('',#288,#471,#473,.T.);
#471 = VERTEX_POINT('',#472);
#472 = CARTESIAN_POINT('',(4.5,-54.66051829358,2.977764391463));
#473 = LINE('',#474,#475);
#474 = CARTESIAN_POINT('',(4.5,-54.30343509768,3.107732045926));
#475 = VECTOR('',#476,1.);
#476 = DIRECTION('',(0.,-0.939692620786,-0.342020143326));
#477 = ORIENTED_EDGE('',*,*,#478,.T.);
#478 = EDGE_CURVE('',#471,#447,#479,.T.);
#479 = LINE('',#480,#481);
#480 = CARTESIAN_POINT('',(4.5,-54.66051829358,2.977764391463));
#481 = VECTOR('',#482,1.);
#482 = DIRECTION('',(0.,-0.342020143326,0.939692620786));
#483 = ORIENTED_EDGE('',*,*,#446,.F.);
#484 = ORIENTED_EDGE('',*,*,#295,.F.);
#485 = PLANE('',#486);
#486 = AXIS2_PLACEMENT_3D('',#487,#488,#489);
#487 = CARTESIAN_POINT('',(4.5,-54.30343509768,3.107732045926));
#488 = DIRECTION('',(-1.,-0.,0.));
#489 = DIRECTION('',(0.,-0.342020143326,0.939692620786));
#490 = ADVANCED_FACE('',(#491),#510,.F.);
#491 = FACE_BOUND('',#492,.T.);
#492 = EDGE_LOOP('',(#493,#502,#508,#509));
#493 = ORIENTED_EDGE('',*,*,#494,.F.);
#494 = EDGE_CURVE('',#495,#495,#497,.T.);
#495 = VERTEX_POINT('',#496);
#496 = CARTESIAN_POINT('',(16.211904969811,-25.07899459124,
    13.744558503355));
#497 = CIRCLE('',#498,1.);
#498 = AXIS2_PLACEMENT_3D('',#499,#500,#501);
#499 = CARTESIAN_POINT('',(15.211904969811,-25.07899459124,
    13.744558503355));
#500 = DIRECTION('',(0.,-0.342020143326,0.939692620786));
#501 = DIRECTION('',(1.,0.,0.));
#502 = ORIENTED_EDGE('',*,*,#503,.T.);
#503 = EDGE_CURVE('',#495,#337,#504,.T.);
#504 = LINE('',#505,#506);
#505 = CARTESIAN_POINT('',(16.211904969811,-25.07899459124,
    13.744558503355));
#506 = VECTOR('',#507,1.);
#507 = DIRECTION('',(0.,-0.342020143326,0.939692620786));
#508 = ORIENTED_EDGE('',*,*,#336,.F.);
#509 = ORIENTED_EDGE('',*,*,#503,.F.);
#510 = CYLINDRICAL_SURFACE('',#511,1.);
#511 = AXIS2_PLACEMENT_3D('',#512,#513,#514);
#512 = CARTESIAN_POINT('',(15.211904969811,-25.07899459124,
    13.744558503355));
#513 = DIRECTION('',(0.,0.342020143326,-0.939692620786));
#514 = DIRECTION('',(1.,0.,0.));
#515 = ADVANCED_FACE('',(#516),#535,.F.);
#516 = FACE_BOUND('',#517,.T.);
#517 = EDGE_LOOP('',(#518,#527,#533,#534));
#518 = ORIENTED_EDGE('',*,*,#519,.F.);
#519 = EDGE_CURVE('',#520,#520,#522,.T.);
#520 = VERTEX_POINT('',#521);
#521 = CARTESIAN_POINT('',(-14.18809503018,-25.07899459124,
    13.744558503355));
#522 = CIRCLE('',#523,1.);
#523 = AXIS2_PLACEMENT_3D('',#524,#525,#526);
#524 = CARTESIAN_POINT('',(-15.18809503018,-25.07899459124,
    13.744558503355));
#525 = DIRECTION('',(0.,-0.342020143326,0.939692620786));
#526 = DIRECTION('',(1.,0.,0.));
#527 = ORIENTED_EDGE('',*,*,#528,.T.);
#528 = EDGE_CURVE('',#520,#382,#529,.T.);
#529 = LINE('',#530,#531);
#530 = CARTESIAN_POINT('',(-14.18809503018,-25.07899459124,
    13.744558503355));
#531 = VECTOR('',#532,1.);
#532 = DIRECTION('',(0.,-0.342020143326,0.939692620786));
#533 = ORIENTED_EDGE('',*,*,#381,.F.);
#534 = ORIENTED_EDGE('',*,*,#528,.F.);
#535 = CYLINDRICAL_SURFACE('',#536,1.);
#536 = AXIS2_PLACEMENT_3D('',#537,#538,#539);
#537 = CARTESIAN_POINT('',(-15.18809503018,-25.07899459124,
    13.744558503355));
#538 = DIRECTION('',(0.,0.342020143326,-0.939692620786));
#539 = DIRECTION('',(1.,0.,0.));
#540 = ADVANCED_FACE('',(#541),#557,.T.);
#541 = FACE_BOUND('',#542,.T.);
#542 = EDGE_LOOP('',(#543,#544,#550,#551));
#543 = ORIENTED_EDGE('',*,*,#177,.F.);
#544 = ORIENTED_EDGE('',*,*,#545,.T.);
#545 = EDGE_CURVE('',#154,#350,#546,.T.);
#546 = LINE('',#547,#548);
#547 = CARTESIAN_POINT('',(17.311904969811,-45.26776569916,6.39644675366
    ));
#548 = VECTOR('',#549,1.);
#549 = DIRECTION('',(0.,-0.342020143326,0.939692620786));
#550 = ORIENTED_EDGE('',*,*,#347,.F.);
#551 = ORIENTED_EDGE('',*,*,#552,.F.);
#552 = EDGE_CURVE('',#170,#348,#553,.T.);
#553 = LINE('',#554,#555);
#554 = CARTESIAN_POINT('',(17.311904969811,-27.13169811799,
    12.997435519845));
#555 = VECTOR('',#556,1.);
#556 = DIRECTION('',(0.,-0.342020143326,0.939692620786));
#557 = PLANE('',#558);
#558 = AXIS2_PLACEMENT_3D('',#559,#560,#561);
#559 = CARTESIAN_POINT('',(17.311904969811,-45.26776569916,6.39644675366
    ));
#560 = DIRECTION('',(-1.,0.,0.));
#561 = DIRECTION('',(0.,0.939692620786,0.342020143326));
#562 = ADVANCED_FACE('',(#563),#574,.T.);
#563 = FACE_BOUND('',#564,.T.);
#564 = EDGE_LOOP('',(#565,#566,#567,#568));
#565 = ORIENTED_EDGE('',*,*,#169,.F.);
#566 = ORIENTED_EDGE('',*,*,#552,.T.);
#567 = ORIENTED_EDGE('',*,*,#373,.F.);
#568 = ORIENTED_EDGE('',*,*,#569,.F.);
#569 = EDGE_CURVE('',#162,#366,#570,.T.);
#570 = LINE('',#571,#572);
#571 = CARTESIAN_POINT('',(-17.28809503018,-27.13169811799,
    12.997435519845));
#572 = VECTOR('',#573,1.);
#573 = DIRECTION('',(0.,-0.342020143326,0.939692620786));
#574 = PLANE('',#575);
#575 = AXIS2_PLACEMENT_3D('',#576,#577,#578);
#576 = CARTESIAN_POINT('',(17.311904969811,-27.13169811799,
    12.997435519845));
#577 = DIRECTION('',(-0.,-0.939692620786,-0.342020143326));
#578 = DIRECTION('',(-1.,0.,0.));
#579 = ADVANCED_FACE('',(#580),#591,.T.);
#580 = FACE_BOUND('',#581,.T.);
#581 = EDGE_LOOP('',(#582,#583,#584,#585));
#582 = ORIENTED_EDGE('',*,*,#161,.F.);
#583 = ORIENTED_EDGE('',*,*,#569,.T.);
#584 = ORIENTED_EDGE('',*,*,#365,.F.);
#585 = ORIENTED_EDGE('',*,*,#586,.F.);
#586 = EDGE_CURVE('',#152,#358,#587,.T.);
#587 = LINE('',#588,#589);
#588 = CARTESIAN_POINT('',(-17.28809503018,-45.26776569916,6.39644675366
    ));
#589 = VECTOR('',#590,1.);
#590 = DIRECTION('',(0.,-0.342020143326,0.939692620786));
#591 = PLANE('',#592);
#592 = AXIS2_PLACEMENT_3D('',#593,#594,#595);
#593 = CARTESIAN_POINT('',(-17.28809503018,-27.13169811799,
    12.997435519845));
#594 = DIRECTION('',(1.,0.,0.));
#595 = DIRECTION('',(0.,-0.939692620786,-0.342020143326));
#596 = ADVANCED_FACE('',(#597),#603,.T.);
#597 = FACE_BOUND('',#598,.T.);
#598 = EDGE_LOOP('',(#599,#600,#601,#602));
#599 = ORIENTED_EDGE('',*,*,#151,.F.);
#600 = ORIENTED_EDGE('',*,*,#586,.T.);
#601 = ORIENTED_EDGE('',*,*,#357,.F.);
#602 = ORIENTED_EDGE('',*,*,#545,.F.);
#603 = PLANE('',#604);
#604 = AXIS2_PLACEMENT_3D('',#605,#606,#607);
#605 = CARTESIAN_POINT('',(-17.28809503018,-45.26776569916,6.39644675366
    ));
#606 = DIRECTION('',(0.,0.939692620786,0.342020143326));
#607 = DIRECTION('',(1.,0.,0.));
#608 = ADVANCED_FACE('',(#609),#620,.F.);
#609 = FACE_BOUND('',#610,.T.);
#610 = EDGE_LOOP('',(#611,#612,#618,#619));
#611 = ORIENTED_EDGE('',*,*,#423,.T.);
#612 = ORIENTED_EDGE('',*,*,#613,.T.);
#613 = EDGE_CURVE('',#424,#471,#614,.T.);
#614 = LINE('',#615,#616);
#615 = CARTESIAN_POINT('',(-4.5,-54.66051829358,2.977764391463));
#616 = VECTOR('',#617,1.);
#617 = DIRECTION('',(1.,0.,0.));
#618 = ORIENTED_EDGE('',*,*,#478,.T.);
#619 = ORIENTED_EDGE('',*,*,#454,.T.);
#620 = PLANE('',#621);
#621 = AXIS2_PLACEMENT_3D('',#622,#623,#624);
#622 = CARTESIAN_POINT('',(0.,-54.74260312798,3.203290620451));
#623 = DIRECTION('',(0.,0.939692620786,0.342020143326));
#624 = DIRECTION('',(0.,-0.342020143326,0.939692620786));
#625 = ADVANCED_FACE('',(#626,#636,#642,#645),#648,.T.);
#626 = FACE_BOUND('',#627,.T.);
#627 = EDGE_LOOP('',(#628,#629,#630,#631,#632,#633,#634,#635));
#628 = ORIENTED_EDGE('',*,*,#217,.F.);
#629 = ORIENTED_EDGE('',*,*,#248,.F.);
#630 = ORIENTED_EDGE('',*,*,#401,.F.);
#631 = ORIENTED_EDGE('',*,*,#287,.F.);
#632 = ORIENTED_EDGE('',*,*,#470,.T.);
#633 = ORIENTED_EDGE('',*,*,#613,.F.);
#634 = ORIENTED_EDGE('',*,*,#431,.F.);
#635 = ORIENTED_EDGE('',*,*,#262,.F.);
#636 = FACE_BOUND('',#637,.T.);
#637 = EDGE_LOOP('',(#638,#639,#640,#641));
#638 = ORIENTED_EDGE('',*,*,#47,.T.);
#639 = ORIENTED_EDGE('',*,*,#78,.T.);
#640 = ORIENTED_EDGE('',*,*,#109,.T.);
#641 = ORIENTED_EDGE('',*,*,#131,.T.);
#642 = FACE_BOUND('',#643,.T.);
#643 = EDGE_LOOP('',(#644));
#644 = ORIENTED_EDGE('',*,*,#494,.T.);
#645 = FACE_BOUND('',#646,.T.);
#646 = EDGE_LOOP('',(#647));
#647 = ORIENTED_EDGE('',*,*,#519,.T.);
#648 = PLANE('',#649);
#649 = AXIS2_PLACEMENT_3D('',#650,#651,#652);
#650 = CARTESIAN_POINT('',(1.184004603807E-02,-38.57999865156,
    8.830594892693));
#651 = DIRECTION('',(0.,0.342020143326,-0.939692620786));
#652 = DIRECTION('',(0.,-0.939692620786,-0.342020143326));
#653 = ( GEOMETRIC_REPRESENTATION_CONTEXT(3) 
GLOBAL_UNCERTAINTY_ASSIGNED_CONTEXT((#657)) GLOBAL_UNIT_ASSIGNED_CONTEXT
((#654,#655,#656)) REPRESENTATION_CONTEXT('Context #1',
  '3D Context with UNIT and UNCERTAINTY') );
#654 = ( LENGTH_UNIT() NAMED_UNIT(*) SI_UNIT(.MILLI.,.METRE.) );
#655 = ( NAMED_UNIT(*) PLANE_ANGLE_UNIT() SI_UNIT($,.RADIAN.) );
#656 = ( NAMED_UNIT(*) SI_UNIT($,.STERADIAN.) SOLID_ANGLE_UNIT() );
#657 = UNCERTAINTY_MEASURE_WITH_UNIT(LENGTH_MEASURE(1.E-05),#654,
  'distance_accuracy_value','confusion accuracy');
#658 = PRODUCT_RELATED_PRODUCT_CATEGORY('part',$,(#7));
#659 = MECHANICAL_DESIGN_GEOMETRIC_PRESENTATION_REPRESENTATION('',(#660)
  ,#653);
#660 = STYLED_ITEM('color',(#661),#15);
#661 = PRESENTATION_STYLE_ASSIGNMENT((#662,#670));
#662 = SURFACE_STYLE_USAGE(.BOTH.,#663);
#663 = SURFACE_SIDE_STYLE('',(#664,#668));
#664 = SURFACE_STYLE_FILL_AREA(#665);
#665 = FILL_AREA_STYLE('',(#666));
#666 = FILL_AREA_STYLE_COLOUR('',#667);
#667 = COLOUR_RGB('',0.215686275495,0.929411760963,0.466666661095);
#668 = SURFACE_STYLE_RENDERING_WITH_PROPERTIES(.NORMAL_SHADING.,#667,(
    #669));
#669 = SURFACE_STYLE_TRANSPARENT(0.800000011921);
#670 = CURVE_STYLE('',#671,POSITIVE_LENGTH_MEASURE(0.1),#672);
#671 = DRAUGHTING_PRE_DEFINED_CURVE_FONT('continuous');
#672 = COLOUR_RGB('',9.803921802644E-02,9.803921802644E-02,
  9.803921802644E-02);
ENDSEC;
END-ISO-10303-21;
