ISO-10303-21;
HEADER;
FILE_DESCRIPTION(('FreeCAD Model'),'2;1');
FILE_NAME('Open CASCADE Shape Model','2026-01-10T20:50:58',('Author'),(
    ''),'Open CASCADE STEP processor 7.8','FreeCAD','Unknown');
FILE_SCHEMA(('AUTOMOTIVE_DESIGN { 1 0 10303 214 1 1 1 1 }'));
ENDSEC;
DATA;
#1 = APPLICATION_PROTOCOL_DEFINITION('international standard',
  'automotive_design',2000,#2);
#2 = APPLICATION_CONTEXT(
  'core data for automotive mechanical design processes');
#3 = SHAPE_DEFINITION_REPRESENTATION(#4,#10);
#4 = PRODUCT_DEFINITION_SHAPE('','',#5);
#5 = PRODUCT_DEFINITION('design','',#6,#9);
#6 = PRODUCT_DEFINITION_FORMATION('','',#7);
#7 = PRODUCT('bottom','bottom','',(#8));
#8 = PRODUCT_CONTEXT('',#2,'mechanical');
#9 = PRODUCT_DEFINITION_CONTEXT('part definition',#2,'design');
#10 = ADVANCED_BREP_SHAPE_REPRESENTATION('',(#11,#15),#1063);
#11 = AXIS2_PLACEMENT_3D('',#12,#13,#14);
#12 = CARTESIAN_POINT('',(0.,0.,0.));
#13 = DIRECTION('',(0.,0.,1.));
#14 = DIRECTION('',(1.,0.,-0.));
#15 = MANIFOLD_SOLID_BREP('',#16);
#16 = CLOSED_SHELL('',(#17,#137,#168,#193,#218,#242,#266,#291,#316,#333,
    #358,#383,#408,#433,#483,#544,#605,#666,#727,#782,#830,#878,#919,
    #937,#947,#958,#968,#979,#989,#1000,#1010,#1021,#1031,#1042,#1053));
#17 = ADVANCED_FACE('',(#18,#88,#99,#110,#121),#132,.F.);
#18 = FACE_BOUND('',#19,.F.);
#19 = EDGE_LOOP('',(#20,#30,#39,#47,#56,#64,#73,#81));
#20 = ORIENTED_EDGE('',*,*,#21,.F.);
#21 = EDGE_CURVE('',#22,#24,#26,.T.);
#22 = VERTEX_POINT('',#23);
#23 = CARTESIAN_POINT('',(-28.,-52.,-5.));
#24 = VERTEX_POINT('',#25);
#25 = CARTESIAN_POINT('',(-28.,20.,-5.));
#26 = LINE('',#27,#28);
#27 = CARTESIAN_POINT('',(-28.,-55.,-5.));
#28 = VECTOR('',#29,1.);
#29 = DIRECTION('',(0.,1.,0.));
#30 = ORIENTED_EDGE('',*,*,#31,.T.);
#31 = EDGE_CURVE('',#22,#32,#34,.T.);
#32 = VERTEX_POINT('',#33);
#33 = CARTESIAN_POINT('',(-25.,-55.,-5.));
#34 = CIRCLE('',#35,3.);
#35 = AXIS2_PLACEMENT_3D('',#36,#37,#38);
#36 = CARTESIAN_POINT('',(-25.,-52.,-5.));
#37 = DIRECTION('',(0.,-0.,1.));
#38 = DIRECTION('',(0.,1.,0.));
#39 = ORIENTED_EDGE('',*,*,#40,.F.);
#40 = EDGE_CURVE('',#41,#32,#43,.T.);
#41 = VERTEX_POINT('',#42);
#42 = CARTESIAN_POINT('',(25.,-55.,-5.));
#43 = LINE('',#44,#45);
#44 = CARTESIAN_POINT('',(28.,-55.,-5.));
#45 = VECTOR('',#46,1.);
#46 = DIRECTION('',(-1.,0.,0.));
#47 = ORIENTED_EDGE('',*,*,#48,.T.);
#48 = EDGE_CURVE('',#41,#49,#51,.T.);
#49 = VERTEX_POINT('',#50);
#50 = CARTESIAN_POINT('',(28.,-52.,-5.));
#51 = CIRCLE('',#52,3.);
#52 = AXIS2_PLACEMENT_3D('',#53,#54,#55);
#53 = CARTESIAN_POINT('',(25.,-52.,-5.));
#54 = DIRECTION('',(0.,-0.,1.));
#55 = DIRECTION('',(0.,1.,0.));
#56 = ORIENTED_EDGE('',*,*,#57,.F.);
#57 = EDGE_CURVE('',#58,#49,#60,.T.);
#58 = VERTEX_POINT('',#59);
#59 = CARTESIAN_POINT('',(28.,20.,-5.));
#60 = LINE('',#61,#62);
#61 = CARTESIAN_POINT('',(28.,23.,-5.));
#62 = VECTOR('',#63,1.);
#63 = DIRECTION('',(0.,-1.,0.));
#64 = ORIENTED_EDGE('',*,*,#65,.F.);
#65 = EDGE_CURVE('',#66,#58,#68,.T.);
#66 = VERTEX_POINT('',#67);
#67 = CARTESIAN_POINT('',(25.,23.,-5.));
#68 = CIRCLE('',#69,3.);
#69 = AXIS2_PLACEMENT_3D('',#70,#71,#72);
#70 = CARTESIAN_POINT('',(25.,20.,-5.));
#71 = DIRECTION('',(0.,0.,-1.));
#72 = DIRECTION('',(0.,1.,0.));
#73 = ORIENTED_EDGE('',*,*,#74,.F.);
#74 = EDGE_CURVE('',#75,#66,#77,.T.);
#75 = VERTEX_POINT('',#76);
#76 = CARTESIAN_POINT('',(-25.,23.,-5.));
#77 = LINE('',#78,#79);
#78 = CARTESIAN_POINT('',(-28.,23.,-5.));
#79 = VECTOR('',#80,1.);
#80 = DIRECTION('',(1.,0.,0.));
#81 = ORIENTED_EDGE('',*,*,#82,.F.);
#82 = EDGE_CURVE('',#24,#75,#83,.T.);
#83 = CIRCLE('',#84,3.);
#84 = AXIS2_PLACEMENT_3D('',#85,#86,#87);
#85 = CARTESIAN_POINT('',(-25.,20.,-5.));
#86 = DIRECTION('',(0.,0.,-1.));
#87 = DIRECTION('',(0.,1.,0.));
#88 = FACE_BOUND('',#89,.F.);
#89 = EDGE_LOOP('',(#90));
#90 = ORIENTED_EDGE('',*,*,#91,.F.);
#91 = EDGE_CURVE('',#92,#92,#94,.T.);
#92 = VERTEX_POINT('',#93);
#93 = CARTESIAN_POINT('',(-22.7,20.,-5.));
#94 = CIRCLE('',#95,2.3);
#95 = AXIS2_PLACEMENT_3D('',#96,#97,#98);
#96 = CARTESIAN_POINT('',(-25.,20.,-5.));
#97 = DIRECTION('',(0.,0.,1.));
#98 = DIRECTION('',(1.,0.,0.));
#99 = FACE_BOUND('',#100,.F.);
#100 = EDGE_LOOP('',(#101));
#101 = ORIENTED_EDGE('',*,*,#102,.F.);
#102 = EDGE_CURVE('',#103,#103,#105,.T.);
#103 = VERTEX_POINT('',#104);
#104 = CARTESIAN_POINT('',(27.3,20.,-5.));
#105 = CIRCLE('',#106,2.3);
#106 = AXIS2_PLACEMENT_3D('',#107,#108,#109);
#107 = CARTESIAN_POINT('',(25.,20.,-5.));
#108 = DIRECTION('',(0.,0.,1.));
#109 = DIRECTION('',(1.,0.,0.));
#110 = FACE_BOUND('',#111,.F.);
#111 = EDGE_LOOP('',(#112));
#112 = ORIENTED_EDGE('',*,*,#113,.F.);
#113 = EDGE_CURVE('',#114,#114,#116,.T.);
#114 = VERTEX_POINT('',#115);
#115 = CARTESIAN_POINT('',(-22.7,-52.,-5.));
#116 = CIRCLE('',#117,2.3);
#117 = AXIS2_PLACEMENT_3D('',#118,#119,#120);
#118 = CARTESIAN_POINT('',(-25.,-52.,-5.));
#119 = DIRECTION('',(0.,0.,1.));
#120 = DIRECTION('',(1.,0.,0.));
#121 = FACE_BOUND('',#122,.F.);
#122 = EDGE_LOOP('',(#123));
#123 = ORIENTED_EDGE('',*,*,#124,.F.);
#124 = EDGE_CURVE('',#125,#125,#127,.T.);
#125 = VERTEX_POINT('',#126);
#126 = CARTESIAN_POINT('',(27.3,-52.,-5.));
#127 = CIRCLE('',#128,2.3);
#128 = AXIS2_PLACEMENT_3D('',#129,#130,#131);
#129 = CARTESIAN_POINT('',(25.,-52.,-5.));
#130 = DIRECTION('',(0.,0.,1.));
#131 = DIRECTION('',(1.,0.,0.));
#132 = PLANE('',#133);
#133 = AXIS2_PLACEMENT_3D('',#134,#135,#136);
#134 = CARTESIAN_POINT('',(0.,-16.,-5.));
#135 = DIRECTION('',(0.,0.,1.));
#136 = DIRECTION('',(1.,0.,0.));
#137 = ADVANCED_FACE('',(#138),#163,.F.);
#138 = FACE_BOUND('',#139,.F.);
#139 = EDGE_LOOP('',(#140,#150,#156,#157));
#140 = ORIENTED_EDGE('',*,*,#141,.F.);
#141 = EDGE_CURVE('',#142,#144,#146,.T.);
#142 = VERTEX_POINT('',#143);
#143 = CARTESIAN_POINT('',(-28.,-52.,0.));
#144 = VERTEX_POINT('',#145);
#145 = CARTESIAN_POINT('',(-28.,20.,0.));
#146 = LINE('',#147,#148);
#147 = CARTESIAN_POINT('',(-28.,-55.,0.));
#148 = VECTOR('',#149,1.);
#149 = DIRECTION('',(0.,1.,0.));
#150 = ORIENTED_EDGE('',*,*,#151,.T.);
#151 = EDGE_CURVE('',#142,#22,#152,.T.);
#152 = LINE('',#153,#154);
#153 = CARTESIAN_POINT('',(-28.,-52.,0.));
#154 = VECTOR('',#155,1.);
#155 = DIRECTION('',(0.,0.,-1.));
#156 = ORIENTED_EDGE('',*,*,#21,.T.);
#157 = ORIENTED_EDGE('',*,*,#158,.F.);
#158 = EDGE_CURVE('',#144,#24,#159,.T.);
#159 = LINE('',#160,#161);
#160 = CARTESIAN_POINT('',(-28.,20.,0.));
#161 = VECTOR('',#162,1.);
#162 = DIRECTION('',(0.,0.,-1.));
#163 = PLANE('',#164);
#164 = AXIS2_PLACEMENT_3D('',#165,#166,#167);
#165 = CARTESIAN_POINT('',(-28.,-55.,0.));
#166 = DIRECTION('',(1.,0.,0.));
#167 = DIRECTION('',(0.,1.,0.));
#168 = ADVANCED_FACE('',(#169),#188,.T.);
#169 = FACE_BOUND('',#170,.F.);
#170 = EDGE_LOOP('',(#171,#180,#186,#187));
#171 = ORIENTED_EDGE('',*,*,#172,.T.);
#172 = EDGE_CURVE('',#142,#173,#175,.T.);
#173 = VERTEX_POINT('',#174);
#174 = CARTESIAN_POINT('',(-25.,-55.,0.));
#175 = CIRCLE('',#176,3.);
#176 = AXIS2_PLACEMENT_3D('',#177,#178,#179);
#177 = CARTESIAN_POINT('',(-25.,-52.,0.));
#178 = DIRECTION('',(0.,-0.,1.));
#179 = DIRECTION('',(0.,1.,0.));
#180 = ORIENTED_EDGE('',*,*,#181,.T.);
#181 = EDGE_CURVE('',#173,#32,#182,.T.);
#182 = LINE('',#183,#184);
#183 = CARTESIAN_POINT('',(-25.,-55.,0.));
#184 = VECTOR('',#185,1.);
#185 = DIRECTION('',(0.,0.,-1.));
#186 = ORIENTED_EDGE('',*,*,#31,.F.);
#187 = ORIENTED_EDGE('',*,*,#151,.F.);
#188 = CYLINDRICAL_SURFACE('',#189,3.);
#189 = AXIS2_PLACEMENT_3D('',#190,#191,#192);
#190 = CARTESIAN_POINT('',(-25.,-52.,0.));
#191 = DIRECTION('',(0.,0.,-1.));
#192 = DIRECTION('',(-1.,-0.,-0.));
#193 = ADVANCED_FACE('',(#194),#213,.T.);
#194 = FACE_BOUND('',#195,.T.);
#195 = EDGE_LOOP('',(#196,#205,#211,#212));
#196 = ORIENTED_EDGE('',*,*,#197,.T.);
#197 = EDGE_CURVE('',#144,#198,#200,.T.);
#198 = VERTEX_POINT('',#199);
#199 = CARTESIAN_POINT('',(-25.,23.,0.));
#200 = CIRCLE('',#201,3.);
#201 = AXIS2_PLACEMENT_3D('',#202,#203,#204);
#202 = CARTESIAN_POINT('',(-25.,20.,0.));
#203 = DIRECTION('',(0.,0.,-1.));
#204 = DIRECTION('',(0.,1.,0.));
#205 = ORIENTED_EDGE('',*,*,#206,.T.);
#206 = EDGE_CURVE('',#198,#75,#207,.T.);
#207 = LINE('',#208,#209);
#208 = CARTESIAN_POINT('',(-25.,23.,0.));
#209 = VECTOR('',#210,1.);
#210 = DIRECTION('',(0.,0.,-1.));
#211 = ORIENTED_EDGE('',*,*,#82,.F.);
#212 = ORIENTED_EDGE('',*,*,#158,.F.);
#213 = CYLINDRICAL_SURFACE('',#214,3.);
#214 = AXIS2_PLACEMENT_3D('',#215,#216,#217);
#215 = CARTESIAN_POINT('',(-25.,20.,0.));
#216 = DIRECTION('',(0.,0.,-1.));
#217 = DIRECTION('',(-1.,-0.,-0.));
#218 = ADVANCED_FACE('',(#219),#237,.F.);
#219 = FACE_BOUND('',#220,.F.);
#220 = EDGE_LOOP('',(#221,#229,#235,#236));
#221 = ORIENTED_EDGE('',*,*,#222,.F.);
#222 = EDGE_CURVE('',#223,#173,#225,.T.);
#223 = VERTEX_POINT('',#224);
#224 = CARTESIAN_POINT('',(25.,-55.,0.));
#225 = LINE('',#226,#227);
#226 = CARTESIAN_POINT('',(28.,-55.,0.));
#227 = VECTOR('',#228,1.);
#228 = DIRECTION('',(-1.,0.,0.));
#229 = ORIENTED_EDGE('',*,*,#230,.T.);
#230 = EDGE_CURVE('',#223,#41,#231,.T.);
#231 = LINE('',#232,#233);
#232 = CARTESIAN_POINT('',(25.,-55.,0.));
#233 = VECTOR('',#234,1.);
#234 = DIRECTION('',(0.,0.,-1.));
#235 = ORIENTED_EDGE('',*,*,#40,.T.);
#236 = ORIENTED_EDGE('',*,*,#181,.F.);
#237 = PLANE('',#238);
#238 = AXIS2_PLACEMENT_3D('',#239,#240,#241);
#239 = CARTESIAN_POINT('',(28.,-55.,0.));
#240 = DIRECTION('',(0.,1.,0.));
#241 = DIRECTION('',(-1.,0.,0.));
#242 = ADVANCED_FACE('',(#243),#261,.F.);
#243 = FACE_BOUND('',#244,.F.);
#244 = EDGE_LOOP('',(#245,#253,#254,#255));
#245 = ORIENTED_EDGE('',*,*,#246,.F.);
#246 = EDGE_CURVE('',#198,#247,#249,.T.);
#247 = VERTEX_POINT('',#248);
#248 = CARTESIAN_POINT('',(25.,23.,0.));
#249 = LINE('',#250,#251);
#250 = CARTESIAN_POINT('',(-28.,23.,0.));
#251 = VECTOR('',#252,1.);
#252 = DIRECTION('',(1.,0.,0.));
#253 = ORIENTED_EDGE('',*,*,#206,.T.);
#254 = ORIENTED_EDGE('',*,*,#74,.T.);
#255 = ORIENTED_EDGE('',*,*,#256,.F.);
#256 = EDGE_CURVE('',#247,#66,#257,.T.);
#257 = LINE('',#258,#259);
#258 = CARTESIAN_POINT('',(25.,23.,0.));
#259 = VECTOR('',#260,1.);
#260 = DIRECTION('',(0.,0.,-1.));
#261 = PLANE('',#262);
#262 = AXIS2_PLACEMENT_3D('',#263,#264,#265);
#263 = CARTESIAN_POINT('',(-28.,23.,0.));
#264 = DIRECTION('',(0.,-1.,0.));
#265 = DIRECTION('',(1.,0.,0.));
#266 = ADVANCED_FACE('',(#267),#286,.T.);
#267 = FACE_BOUND('',#268,.F.);
#268 = EDGE_LOOP('',(#269,#278,#284,#285));
#269 = ORIENTED_EDGE('',*,*,#270,.T.);
#270 = EDGE_CURVE('',#223,#271,#273,.T.);
#271 = VERTEX_POINT('',#272);
#272 = CARTESIAN_POINT('',(28.,-52.,0.));
#273 = CIRCLE('',#274,3.);
#274 = AXIS2_PLACEMENT_3D('',#275,#276,#277);
#275 = CARTESIAN_POINT('',(25.,-52.,0.));
#276 = DIRECTION('',(0.,-0.,1.));
#277 = DIRECTION('',(0.,1.,0.));
#278 = ORIENTED_EDGE('',*,*,#279,.T.);
#279 = EDGE_CURVE('',#271,#49,#280,.T.);
#280 = LINE('',#281,#282);
#281 = CARTESIAN_POINT('',(28.,-52.,0.));
#282 = VECTOR('',#283,1.);
#283 = DIRECTION('',(0.,0.,-1.));
#284 = ORIENTED_EDGE('',*,*,#48,.F.);
#285 = ORIENTED_EDGE('',*,*,#230,.F.);
#286 = CYLINDRICAL_SURFACE('',#287,3.);
#287 = AXIS2_PLACEMENT_3D('',#288,#289,#290);
#288 = CARTESIAN_POINT('',(25.,-52.,0.));
#289 = DIRECTION('',(0.,0.,-1.));
#290 = DIRECTION('',(0.,-1.,0.));
#291 = ADVANCED_FACE('',(#292),#311,.T.);
#292 = FACE_BOUND('',#293,.T.);
#293 = EDGE_LOOP('',(#294,#303,#309,#310));
#294 = ORIENTED_EDGE('',*,*,#295,.T.);
#295 = EDGE_CURVE('',#247,#296,#298,.T.);
#296 = VERTEX_POINT('',#297);
#297 = CARTESIAN_POINT('',(28.,20.,0.));
#298 = CIRCLE('',#299,3.);
#299 = AXIS2_PLACEMENT_3D('',#300,#301,#302);
#300 = CARTESIAN_POINT('',(25.,20.,0.));
#301 = DIRECTION('',(0.,0.,-1.));
#302 = DIRECTION('',(0.,1.,0.));
#303 = ORIENTED_EDGE('',*,*,#304,.T.);
#304 = EDGE_CURVE('',#296,#58,#305,.T.);
#305 = LINE('',#306,#307);
#306 = CARTESIAN_POINT('',(28.,20.,0.));
#307 = VECTOR('',#308,1.);
#308 = DIRECTION('',(0.,0.,-1.));
#309 = ORIENTED_EDGE('',*,*,#65,.F.);
#310 = ORIENTED_EDGE('',*,*,#256,.F.);
#311 = CYLINDRICAL_SURFACE('',#312,3.);
#312 = AXIS2_PLACEMENT_3D('',#313,#314,#315);
#313 = CARTESIAN_POINT('',(25.,20.,0.));
#314 = DIRECTION('',(0.,0.,-1.));
#315 = DIRECTION('',(0.,1.,0.));
#316 = ADVANCED_FACE('',(#317),#328,.F.);
#317 = FACE_BOUND('',#318,.F.);
#318 = EDGE_LOOP('',(#319,#325,#326,#327));
#319 = ORIENTED_EDGE('',*,*,#320,.F.);
#320 = EDGE_CURVE('',#296,#271,#321,.T.);
#321 = LINE('',#322,#323);
#322 = CARTESIAN_POINT('',(28.,23.,0.));
#323 = VECTOR('',#324,1.);
#324 = DIRECTION('',(0.,-1.,0.));
#325 = ORIENTED_EDGE('',*,*,#304,.T.);
#326 = ORIENTED_EDGE('',*,*,#57,.T.);
#327 = ORIENTED_EDGE('',*,*,#279,.F.);
#328 = PLANE('',#329);
#329 = AXIS2_PLACEMENT_3D('',#330,#331,#332);
#330 = CARTESIAN_POINT('',(28.,23.,0.));
#331 = DIRECTION('',(-1.,-0.,-0.));
#332 = DIRECTION('',(0.,-1.,0.));
#333 = ADVANCED_FACE('',(#334),#353,.F.);
#334 = FACE_BOUND('',#335,.F.);
#335 = EDGE_LOOP('',(#336,#344,#345,#346));
#336 = ORIENTED_EDGE('',*,*,#337,.F.);
#337 = EDGE_CURVE('',#92,#338,#340,.T.);
#338 = VERTEX_POINT('',#339);
#339 = CARTESIAN_POINT('',(-23.95,20.,-3.75));
#340 = LINE('',#341,#342);
#341 = CARTESIAN_POINT('',(-23.95,20.,-3.75));
#342 = VECTOR('',#343,1.);
#343 = DIRECTION('',(-0.707106781187,0.,0.707106781187));
#344 = ORIENTED_EDGE('',*,*,#91,.T.);
#345 = ORIENTED_EDGE('',*,*,#337,.T.);
#346 = ORIENTED_EDGE('',*,*,#347,.F.);
#347 = EDGE_CURVE('',#338,#338,#348,.T.);
#348 = CIRCLE('',#349,1.05);
#349 = AXIS2_PLACEMENT_3D('',#350,#351,#352);
#350 = CARTESIAN_POINT('',(-25.,20.,-3.75));
#351 = DIRECTION('',(0.,0.,1.));
#352 = DIRECTION('',(1.,0.,0.));
#353 = CONICAL_SURFACE('',#354,1.05,0.785398163397);
#354 = AXIS2_PLACEMENT_3D('',#355,#356,#357);
#355 = CARTESIAN_POINT('',(-25.,20.,-3.75));
#356 = DIRECTION('',(-0.,-0.,-1.));
#357 = DIRECTION('',(1.,0.,0.));
#358 = ADVANCED_FACE('',(#359),#378,.F.);
#359 = FACE_BOUND('',#360,.F.);
#360 = EDGE_LOOP('',(#361,#369,#370,#371));
#361 = ORIENTED_EDGE('',*,*,#362,.F.);
#362 = EDGE_CURVE('',#103,#363,#365,.T.);
#363 = VERTEX_POINT('',#364);
#364 = CARTESIAN_POINT('',(26.05,20.,-3.75));
#365 = LINE('',#366,#367);
#366 = CARTESIAN_POINT('',(26.05,20.,-3.75));
#367 = VECTOR('',#368,1.);
#368 = DIRECTION('',(-0.707106781187,0.,0.707106781187));
#369 = ORIENTED_EDGE('',*,*,#102,.T.);
#370 = ORIENTED_EDGE('',*,*,#362,.T.);
#371 = ORIENTED_EDGE('',*,*,#372,.F.);
#372 = EDGE_CURVE('',#363,#363,#373,.T.);
#373 = CIRCLE('',#374,1.05);
#374 = AXIS2_PLACEMENT_3D('',#375,#376,#377);
#375 = CARTESIAN_POINT('',(25.,20.,-3.75));
#376 = DIRECTION('',(0.,0.,1.));
#377 = DIRECTION('',(1.,0.,0.));
#378 = CONICAL_SURFACE('',#379,1.05,0.785398163397);
#379 = AXIS2_PLACEMENT_3D('',#380,#381,#382);
#380 = CARTESIAN_POINT('',(25.,20.,-3.75));
#381 = DIRECTION('',(-0.,-0.,-1.));
#382 = DIRECTION('',(1.,0.,0.));
#383 = ADVANCED_FACE('',(#384),#403,.F.);
#384 = FACE_BOUND('',#385,.F.);
#385 = EDGE_LOOP('',(#386,#394,#395,#396));
#386 = ORIENTED_EDGE('',*,*,#387,.F.);
#387 = EDGE_CURVE('',#114,#388,#390,.T.);
#388 = VERTEX_POINT('',#389);
#389 = CARTESIAN_POINT('',(-23.95,-52.,-3.75));
#390 = LINE('',#391,#392);
#391 = CARTESIAN_POINT('',(-23.95,-52.,-3.75));
#392 = VECTOR('',#393,1.);
#393 = DIRECTION('',(-0.707106781187,0.,0.707106781187));
#394 = ORIENTED_EDGE('',*,*,#113,.T.);
#395 = ORIENTED_EDGE('',*,*,#387,.T.);
#396 = ORIENTED_EDGE('',*,*,#397,.F.);
#397 = EDGE_CURVE('',#388,#388,#398,.T.);
#398 = CIRCLE('',#399,1.05);
#399 = AXIS2_PLACEMENT_3D('',#400,#401,#402);
#400 = CARTESIAN_POINT('',(-25.,-52.,-3.75));
#401 = DIRECTION('',(0.,0.,1.));
#402 = DIRECTION('',(1.,0.,0.));
#403 = CONICAL_SURFACE('',#404,1.05,0.785398163397);
#404 = AXIS2_PLACEMENT_3D('',#405,#406,#407);
#405 = CARTESIAN_POINT('',(-25.,-52.,-3.75));
#406 = DIRECTION('',(-0.,-0.,-1.));
#407 = DIRECTION('',(1.,0.,0.));
#408 = ADVANCED_FACE('',(#409),#428,.F.);
#409 = FACE_BOUND('',#410,.F.);
#410 = EDGE_LOOP('',(#411,#419,#420,#421));
#411 = ORIENTED_EDGE('',*,*,#412,.F.);
#412 = EDGE_CURVE('',#125,#413,#415,.T.);
#413 = VERTEX_POINT('',#414);
#414 = CARTESIAN_POINT('',(26.05,-52.,-3.75));
#415 = LINE('',#416,#417);
#416 = CARTESIAN_POINT('',(26.05,-52.,-3.75));
#417 = VECTOR('',#418,1.);
#418 = DIRECTION('',(-0.707106781187,0.,0.707106781187));
#419 = ORIENTED_EDGE('',*,*,#124,.T.);
#420 = ORIENTED_EDGE('',*,*,#412,.T.);
#421 = ORIENTED_EDGE('',*,*,#422,.F.);
#422 = EDGE_CURVE('',#413,#413,#423,.T.);
#423 = CIRCLE('',#424,1.05);
#424 = AXIS2_PLACEMENT_3D('',#425,#426,#427);
#425 = CARTESIAN_POINT('',(25.,-52.,-3.75));
#426 = DIRECTION('',(0.,0.,1.));
#427 = DIRECTION('',(1.,0.,0.));
#428 = CONICAL_SURFACE('',#429,1.05,0.785398163397);
#429 = AXIS2_PLACEMENT_3D('',#430,#431,#432);
#430 = CARTESIAN_POINT('',(25.,-52.,-3.75));
#431 = DIRECTION('',(-0.,-0.,-1.));
#432 = DIRECTION('',(1.,0.,0.));
#433 = ADVANCED_FACE('',(#434,#444),#478,.T.);
#434 = FACE_BOUND('',#435,.T.);
#435 = EDGE_LOOP('',(#436,#437,#438,#439,#440,#441,#442,#443));
#436 = ORIENTED_EDGE('',*,*,#141,.F.);
#437 = ORIENTED_EDGE('',*,*,#172,.T.);
#438 = ORIENTED_EDGE('',*,*,#222,.F.);
#439 = ORIENTED_EDGE('',*,*,#270,.T.);
#440 = ORIENTED_EDGE('',*,*,#320,.F.);
#441 = ORIENTED_EDGE('',*,*,#295,.F.);
#442 = ORIENTED_EDGE('',*,*,#246,.F.);
#443 = ORIENTED_EDGE('',*,*,#197,.F.);
#444 = FACE_BOUND('',#445,.T.);
#445 = EDGE_LOOP('',(#446,#456,#464,#472));
#446 = ORIENTED_EDGE('',*,*,#447,.T.);
#447 = EDGE_CURVE('',#448,#450,#452,.T.);
#448 = VERTEX_POINT('',#449);
#449 = CARTESIAN_POINT('',(26.,21.,0.));
#450 = VERTEX_POINT('',#451);
#451 = CARTESIAN_POINT('',(26.,-53.,0.));
#452 = LINE('',#453,#454);
#453 = CARTESIAN_POINT('',(26.,23.,0.));
#454 = VECTOR('',#455,1.);
#455 = DIRECTION('',(0.,-1.,0.));
#456 = ORIENTED_EDGE('',*,*,#457,.T.);
#457 = EDGE_CURVE('',#450,#458,#460,.T.);
#458 = VERTEX_POINT('',#459);
#459 = CARTESIAN_POINT('',(-26.,-53.,0.));
#460 = LINE('',#461,#462);
#461 = CARTESIAN_POINT('',(28.,-53.,0.));
#462 = VECTOR('',#463,1.);
#463 = DIRECTION('',(-1.,0.,0.));
#464 = ORIENTED_EDGE('',*,*,#465,.T.);
#465 = EDGE_CURVE('',#458,#466,#468,.T.);
#466 = VERTEX_POINT('',#467);
#467 = CARTESIAN_POINT('',(-26.,21.,0.));
#468 = LINE('',#469,#470);
#469 = CARTESIAN_POINT('',(-26.,-55.,0.));
#470 = VECTOR('',#471,1.);
#471 = DIRECTION('',(0.,1.,0.));
#472 = ORIENTED_EDGE('',*,*,#473,.T.);
#473 = EDGE_CURVE('',#466,#448,#474,.T.);
#474 = LINE('',#475,#476);
#475 = CARTESIAN_POINT('',(-28.,21.,0.));
#476 = VECTOR('',#477,1.);
#477 = DIRECTION('',(1.,0.,0.));
#478 = PLANE('',#479);
#479 = AXIS2_PLACEMENT_3D('',#480,#481,#482);
#480 = CARTESIAN_POINT('',(0.,-16.,0.));
#481 = DIRECTION('',(0.,0.,1.));
#482 = DIRECTION('',(1.,0.,0.));
#483 = ADVANCED_FACE('',(#484),#539,.F.);
#484 = FACE_BOUND('',#485,.F.);
#485 = EDGE_LOOP('',(#486,#494,#503,#512,#521,#530,#537,#538));
#486 = ORIENTED_EDGE('',*,*,#487,.F.);
#487 = EDGE_CURVE('',#488,#338,#490,.T.);
#488 = VERTEX_POINT('',#489);
#489 = CARTESIAN_POINT('',(-23.95,20.,-3.));
#490 = LINE('',#491,#492);
#491 = CARTESIAN_POINT('',(-23.95,20.,-3.));
#492 = VECTOR('',#493,1.);
#493 = DIRECTION('',(-0.,-0.,-1.));
#494 = ORIENTED_EDGE('',*,*,#495,.F.);
#495 = EDGE_CURVE('',#496,#488,#498,.T.);
#496 = VERTEX_POINT('',#497);
#497 = CARTESIAN_POINT('',(-26.,19.679843788128,-3.));
#498 = CIRCLE('',#499,1.05);
#499 = AXIS2_PLACEMENT_3D('',#500,#501,#502);
#500 = CARTESIAN_POINT('',(-25.,20.,-3.));
#501 = DIRECTION('',(0.,0.,1.));
#502 = DIRECTION('',(1.,0.,0.));
#503 = ORIENTED_EDGE('',*,*,#504,.F.);
#504 = EDGE_CURVE('',#505,#496,#507,.T.);
#505 = VERTEX_POINT('',#506);
#506 = CARTESIAN_POINT('',(-26.,20.320156211872,-3.));
#507 = CIRCLE('',#508,1.05);
#508 = AXIS2_PLACEMENT_3D('',#509,#510,#511);
#509 = CARTESIAN_POINT('',(-25.,20.,-3.));
#510 = DIRECTION('',(0.,0.,1.));
#511 = DIRECTION('',(1.,0.,0.));
#512 = ORIENTED_EDGE('',*,*,#513,.F.);
#513 = EDGE_CURVE('',#514,#505,#516,.T.);
#514 = VERTEX_POINT('',#515);
#515 = CARTESIAN_POINT('',(-25.32015621187,21.,-3.));
#516 = CIRCLE('',#517,1.05);
#517 = AXIS2_PLACEMENT_3D('',#518,#519,#520);
#518 = CARTESIAN_POINT('',(-25.,20.,-3.));
#519 = DIRECTION('',(0.,0.,1.));
#520 = DIRECTION('',(1.,0.,0.));
#521 = ORIENTED_EDGE('',*,*,#522,.F.);
#522 = EDGE_CURVE('',#523,#514,#525,.T.);
#523 = VERTEX_POINT('',#524);
#524 = CARTESIAN_POINT('',(-24.67984378812,21.,-3.));
#525 = CIRCLE('',#526,1.05);
#526 = AXIS2_PLACEMENT_3D('',#527,#528,#529);
#527 = CARTESIAN_POINT('',(-25.,20.,-3.));
#528 = DIRECTION('',(0.,0.,1.));
#529 = DIRECTION('',(1.,0.,0.));
#530 = ORIENTED_EDGE('',*,*,#531,.F.);
#531 = EDGE_CURVE('',#488,#523,#532,.T.);
#532 = CIRCLE('',#533,1.05);
#533 = AXIS2_PLACEMENT_3D('',#534,#535,#536);
#534 = CARTESIAN_POINT('',(-25.,20.,-3.));
#535 = DIRECTION('',(0.,0.,1.));
#536 = DIRECTION('',(1.,0.,0.));
#537 = ORIENTED_EDGE('',*,*,#487,.T.);
#538 = ORIENTED_EDGE('',*,*,#347,.T.);
#539 = CYLINDRICAL_SURFACE('',#540,1.05);
#540 = AXIS2_PLACEMENT_3D('',#541,#542,#543);
#541 = CARTESIAN_POINT('',(-25.,20.,-3.));
#542 = DIRECTION('',(0.,0.,1.));
#543 = DIRECTION('',(1.,0.,0.));
#544 = ADVANCED_FACE('',(#545),#600,.F.);
#545 = FACE_BOUND('',#546,.F.);
#546 = EDGE_LOOP('',(#547,#555,#564,#573,#582,#591,#598,#599));
#547 = ORIENTED_EDGE('',*,*,#548,.F.);
#548 = EDGE_CURVE('',#549,#363,#551,.T.);
#549 = VERTEX_POINT('',#550);
#550 = CARTESIAN_POINT('',(26.05,20.,-3.));
#551 = LINE('',#552,#553);
#552 = CARTESIAN_POINT('',(26.05,20.,-3.));
#553 = VECTOR('',#554,1.);
#554 = DIRECTION('',(-0.,-0.,-1.));
#555 = ORIENTED_EDGE('',*,*,#556,.F.);
#556 = EDGE_CURVE('',#557,#549,#559,.T.);
#557 = VERTEX_POINT('',#558);
#558 = CARTESIAN_POINT('',(26.,19.679843788128,-3.));
#559 = CIRCLE('',#560,1.05);
#560 = AXIS2_PLACEMENT_3D('',#561,#562,#563);
#561 = CARTESIAN_POINT('',(25.,20.,-3.));
#562 = DIRECTION('',(0.,0.,1.));
#563 = DIRECTION('',(1.,0.,0.));
#564 = ORIENTED_EDGE('',*,*,#565,.F.);
#565 = EDGE_CURVE('',#566,#557,#568,.T.);
#566 = VERTEX_POINT('',#567);
#567 = CARTESIAN_POINT('',(24.679843788128,21.,-3.));
#568 = CIRCLE('',#569,1.05);
#569 = AXIS2_PLACEMENT_3D('',#570,#571,#572);
#570 = CARTESIAN_POINT('',(25.,20.,-3.));
#571 = DIRECTION('',(0.,0.,1.));
#572 = DIRECTION('',(1.,0.,0.));
#573 = ORIENTED_EDGE('',*,*,#574,.F.);
#574 = EDGE_CURVE('',#575,#566,#577,.T.);
#575 = VERTEX_POINT('',#576);
#576 = CARTESIAN_POINT('',(25.320156211872,21.,-3.));
#577 = CIRCLE('',#578,1.05);
#578 = AXIS2_PLACEMENT_3D('',#579,#580,#581);
#579 = CARTESIAN_POINT('',(25.,20.,-3.));
#580 = DIRECTION('',(0.,0.,1.));
#581 = DIRECTION('',(1.,0.,0.));
#582 = ORIENTED_EDGE('',*,*,#583,.F.);
#583 = EDGE_CURVE('',#584,#575,#586,.T.);
#584 = VERTEX_POINT('',#585);
#585 = CARTESIAN_POINT('',(26.,20.320156211872,-3.));
#586 = CIRCLE('',#587,1.05);
#587 = AXIS2_PLACEMENT_3D('',#588,#589,#590);
#588 = CARTESIAN_POINT('',(25.,20.,-3.));
#589 = DIRECTION('',(0.,0.,1.));
#590 = DIRECTION('',(1.,0.,0.));
#591 = ORIENTED_EDGE('',*,*,#592,.F.);
#592 = EDGE_CURVE('',#549,#584,#593,.T.);
#593 = CIRCLE('',#594,1.05);
#594 = AXIS2_PLACEMENT_3D('',#595,#596,#597);
#595 = CARTESIAN_POINT('',(25.,20.,-3.));
#596 = DIRECTION('',(0.,0.,1.));
#597 = DIRECTION('',(1.,0.,0.));
#598 = ORIENTED_EDGE('',*,*,#548,.T.);
#599 = ORIENTED_EDGE('',*,*,#372,.T.);
#600 = CYLINDRICAL_SURFACE('',#601,1.05);
#601 = AXIS2_PLACEMENT_3D('',#602,#603,#604);
#602 = CARTESIAN_POINT('',(25.,20.,-3.));
#603 = DIRECTION('',(0.,0.,1.));
#604 = DIRECTION('',(1.,0.,0.));
#605 = ADVANCED_FACE('',(#606),#661,.F.);
#606 = FACE_BOUND('',#607,.F.);
#607 = EDGE_LOOP('',(#608,#616,#625,#634,#643,#652,#659,#660));
#608 = ORIENTED_EDGE('',*,*,#609,.F.);
#609 = EDGE_CURVE('',#610,#388,#612,.T.);
#610 = VERTEX_POINT('',#611);
#611 = CARTESIAN_POINT('',(-23.95,-52.,-3.));
#612 = LINE('',#613,#614);
#613 = CARTESIAN_POINT('',(-23.95,-52.,-3.));
#614 = VECTOR('',#615,1.);
#615 = DIRECTION('',(-0.,-0.,-1.));
#616 = ORIENTED_EDGE('',*,*,#617,.F.);
#617 = EDGE_CURVE('',#618,#610,#620,.T.);
#618 = VERTEX_POINT('',#619);
#619 = CARTESIAN_POINT('',(-24.67984378812,-53.,-3.));
#620 = CIRCLE('',#621,1.05);
#621 = AXIS2_PLACEMENT_3D('',#622,#623,#624);
#622 = CARTESIAN_POINT('',(-25.,-52.,-3.));
#623 = DIRECTION('',(0.,0.,1.));
#624 = DIRECTION('',(1.,0.,0.));
#625 = ORIENTED_EDGE('',*,*,#626,.F.);
#626 = EDGE_CURVE('',#627,#618,#629,.T.);
#627 = VERTEX_POINT('',#628);
#628 = CARTESIAN_POINT('',(-25.32015621187,-53.,-3.));
#629 = CIRCLE('',#630,1.05);
#630 = AXIS2_PLACEMENT_3D('',#631,#632,#633);
#631 = CARTESIAN_POINT('',(-25.,-52.,-3.));
#632 = DIRECTION('',(0.,0.,1.));
#633 = DIRECTION('',(1.,0.,0.));
#634 = ORIENTED_EDGE('',*,*,#635,.F.);
#635 = EDGE_CURVE('',#636,#627,#638,.T.);
#636 = VERTEX_POINT('',#637);
#637 = CARTESIAN_POINT('',(-26.,-52.32015621187,-3.));
#638 = CIRCLE('',#639,1.05);
#639 = AXIS2_PLACEMENT_3D('',#640,#641,#642);
#640 = CARTESIAN_POINT('',(-25.,-52.,-3.));
#641 = DIRECTION('',(0.,0.,1.));
#642 = DIRECTION('',(1.,0.,0.));
#643 = ORIENTED_EDGE('',*,*,#644,.F.);
#644 = EDGE_CURVE('',#645,#636,#647,.T.);
#645 = VERTEX_POINT('',#646);
#646 = CARTESIAN_POINT('',(-26.,-51.67984378812,-3.));
#647 = CIRCLE('',#648,1.05);
#648 = AXIS2_PLACEMENT_3D('',#649,#650,#651);
#649 = CARTESIAN_POINT('',(-25.,-52.,-3.));
#650 = DIRECTION('',(0.,0.,1.));
#651 = DIRECTION('',(1.,0.,0.));
#652 = ORIENTED_EDGE('',*,*,#653,.F.);
#653 = EDGE_CURVE('',#610,#645,#654,.T.);
#654 = CIRCLE('',#655,1.05);
#655 = AXIS2_PLACEMENT_3D('',#656,#657,#658);
#656 = CARTESIAN_POINT('',(-25.,-52.,-3.));
#657 = DIRECTION('',(0.,0.,1.));
#658 = DIRECTION('',(1.,0.,0.));
#659 = ORIENTED_EDGE('',*,*,#609,.T.);
#660 = ORIENTED_EDGE('',*,*,#397,.T.);
#661 = CYLINDRICAL_SURFACE('',#662,1.05);
#662 = AXIS2_PLACEMENT_3D('',#663,#664,#665);
#663 = CARTESIAN_POINT('',(-25.,-52.,-3.));
#664 = DIRECTION('',(0.,0.,1.));
#665 = DIRECTION('',(1.,0.,0.));
#666 = ADVANCED_FACE('',(#667),#722,.F.);
#667 = FACE_BOUND('',#668,.F.);
#668 = EDGE_LOOP('',(#669,#677,#686,#695,#704,#713,#720,#721));
#669 = ORIENTED_EDGE('',*,*,#670,.F.);
#670 = EDGE_CURVE('',#671,#413,#673,.T.);
#671 = VERTEX_POINT('',#672);
#672 = CARTESIAN_POINT('',(26.05,-52.,-3.));
#673 = LINE('',#674,#675);
#674 = CARTESIAN_POINT('',(26.05,-52.,-3.));
#675 = VECTOR('',#676,1.);
#676 = DIRECTION('',(-0.,-0.,-1.));
#677 = ORIENTED_EDGE('',*,*,#678,.F.);
#678 = EDGE_CURVE('',#679,#671,#681,.T.);
#679 = VERTEX_POINT('',#680);
#680 = CARTESIAN_POINT('',(26.,-52.32015621187,-3.));
#681 = CIRCLE('',#682,1.05);
#682 = AXIS2_PLACEMENT_3D('',#683,#684,#685);
#683 = CARTESIAN_POINT('',(25.,-52.,-3.));
#684 = DIRECTION('',(0.,0.,1.));
#685 = DIRECTION('',(1.,0.,0.));
#686 = ORIENTED_EDGE('',*,*,#687,.F.);
#687 = EDGE_CURVE('',#688,#679,#690,.T.);
#688 = VERTEX_POINT('',#689);
#689 = CARTESIAN_POINT('',(25.320156211872,-53.,-3.));
#690 = CIRCLE('',#691,1.05);
#691 = AXIS2_PLACEMENT_3D('',#692,#693,#694);
#692 = CARTESIAN_POINT('',(25.,-52.,-3.));
#693 = DIRECTION('',(0.,0.,1.));
#694 = DIRECTION('',(1.,0.,0.));
#695 = ORIENTED_EDGE('',*,*,#696,.F.);
#696 = EDGE_CURVE('',#697,#688,#699,.T.);
#697 = VERTEX_POINT('',#698);
#698 = CARTESIAN_POINT('',(24.679843788128,-53.,-3.));
#699 = CIRCLE('',#700,1.05);
#700 = AXIS2_PLACEMENT_3D('',#701,#702,#703);
#701 = CARTESIAN_POINT('',(25.,-52.,-3.));
#702 = DIRECTION('',(0.,0.,1.));
#703 = DIRECTION('',(1.,0.,0.));
#704 = ORIENTED_EDGE('',*,*,#705,.F.);
#705 = EDGE_CURVE('',#706,#697,#708,.T.);
#706 = VERTEX_POINT('',#707);
#707 = CARTESIAN_POINT('',(26.,-51.67984378812,-3.));
#708 = CIRCLE('',#709,1.05);
#709 = AXIS2_PLACEMENT_3D('',#710,#711,#712);
#710 = CARTESIAN_POINT('',(25.,-52.,-3.));
#711 = DIRECTION('',(0.,0.,1.));
#712 = DIRECTION('',(1.,0.,0.));
#713 = ORIENTED_EDGE('',*,*,#714,.F.);
#714 = EDGE_CURVE('',#671,#706,#715,.T.);
#715 = CIRCLE('',#716,1.05);
#716 = AXIS2_PLACEMENT_3D('',#717,#718,#719);
#717 = CARTESIAN_POINT('',(25.,-52.,-3.));
#718 = DIRECTION('',(0.,0.,1.));
#719 = DIRECTION('',(1.,0.,0.));
#720 = ORIENTED_EDGE('',*,*,#670,.T.);
#721 = ORIENTED_EDGE('',*,*,#422,.T.);
#722 = CYLINDRICAL_SURFACE('',#723,1.05);
#723 = AXIS2_PLACEMENT_3D('',#724,#725,#726);
#724 = CARTESIAN_POINT('',(25.,-52.,-3.));
#725 = DIRECTION('',(0.,0.,1.));
#726 = DIRECTION('',(1.,0.,0.));
#727 = ADVANCED_FACE('',(#728),#777,.T.);
#728 = FACE_BOUND('',#729,.T.);
#729 = EDGE_LOOP('',(#730,#731,#739,#745,#751,#757,#763,#771));
#730 = ORIENTED_EDGE('',*,*,#447,.F.);
#731 = ORIENTED_EDGE('',*,*,#732,.T.);
#732 = EDGE_CURVE('',#448,#733,#735,.T.);
#733 = VERTEX_POINT('',#734);
#734 = CARTESIAN_POINT('',(26.,21.,-3.));
#735 = LINE('',#736,#737);
#736 = CARTESIAN_POINT('',(26.,21.,0.));
#737 = VECTOR('',#738,1.);
#738 = DIRECTION('',(0.,0.,-1.));
#739 = ORIENTED_EDGE('',*,*,#740,.F.);
#740 = EDGE_CURVE('',#584,#733,#741,.T.);
#741 = LINE('',#742,#743);
#742 = CARTESIAN_POINT('',(26.,3.5,-3.));
#743 = VECTOR('',#744,1.);
#744 = DIRECTION('',(0.,1.,0.));
#745 = ORIENTED_EDGE('',*,*,#746,.F.);
#746 = EDGE_CURVE('',#557,#584,#747,.T.);
#747 = LINE('',#748,#749);
#748 = CARTESIAN_POINT('',(26.,3.5,-3.));
#749 = VECTOR('',#750,1.);
#750 = DIRECTION('',(0.,1.,0.));
#751 = ORIENTED_EDGE('',*,*,#752,.F.);
#752 = EDGE_CURVE('',#706,#557,#753,.T.);
#753 = LINE('',#754,#755);
#754 = CARTESIAN_POINT('',(26.,3.5,-3.));
#755 = VECTOR('',#756,1.);
#756 = DIRECTION('',(0.,1.,0.));
#757 = ORIENTED_EDGE('',*,*,#758,.F.);
#758 = EDGE_CURVE('',#679,#706,#759,.T.);
#759 = LINE('',#760,#761);
#760 = CARTESIAN_POINT('',(26.,3.5,-3.));
#761 = VECTOR('',#762,1.);
#762 = DIRECTION('',(0.,1.,0.));
#763 = ORIENTED_EDGE('',*,*,#764,.F.);
#764 = EDGE_CURVE('',#765,#679,#767,.T.);
#765 = VERTEX_POINT('',#766);
#766 = CARTESIAN_POINT('',(26.,-53.,-3.));
#767 = LINE('',#768,#769);
#768 = CARTESIAN_POINT('',(26.,3.5,-3.));
#769 = VECTOR('',#770,1.);
#770 = DIRECTION('',(0.,1.,0.));
#771 = ORIENTED_EDGE('',*,*,#772,.F.);
#772 = EDGE_CURVE('',#450,#765,#773,.T.);
#773 = LINE('',#774,#775);
#774 = CARTESIAN_POINT('',(26.,-53.,0.));
#775 = VECTOR('',#776,1.);
#776 = DIRECTION('',(0.,0.,-1.));
#777 = PLANE('',#778);
#778 = AXIS2_PLACEMENT_3D('',#779,#780,#781);
#779 = CARTESIAN_POINT('',(26.,23.,0.));
#780 = DIRECTION('',(-1.,-0.,-0.));
#781 = DIRECTION('',(0.,-1.,0.));
#782 = ADVANCED_FACE('',(#783),#825,.T.);
#783 = FACE_BOUND('',#784,.T.);
#784 = EDGE_LOOP('',(#785,#786,#787,#793,#799,#805,#811,#819));
#785 = ORIENTED_EDGE('',*,*,#457,.F.);
#786 = ORIENTED_EDGE('',*,*,#772,.T.);
#787 = ORIENTED_EDGE('',*,*,#788,.F.);
#788 = EDGE_CURVE('',#688,#765,#789,.T.);
#789 = LINE('',#790,#791);
#790 = CARTESIAN_POINT('',(14.,-53.,-3.));
#791 = VECTOR('',#792,1.);
#792 = DIRECTION('',(1.,0.,0.));
#793 = ORIENTED_EDGE('',*,*,#794,.F.);
#794 = EDGE_CURVE('',#697,#688,#795,.T.);
#795 = LINE('',#796,#797);
#796 = CARTESIAN_POINT('',(14.,-53.,-3.));
#797 = VECTOR('',#798,1.);
#798 = DIRECTION('',(1.,0.,0.));
#799 = ORIENTED_EDGE('',*,*,#800,.F.);
#800 = EDGE_CURVE('',#618,#697,#801,.T.);
#801 = LINE('',#802,#803);
#802 = CARTESIAN_POINT('',(14.,-53.,-3.));
#803 = VECTOR('',#804,1.);
#804 = DIRECTION('',(1.,0.,0.));
#805 = ORIENTED_EDGE('',*,*,#806,.F.);
#806 = EDGE_CURVE('',#627,#618,#807,.T.);
#807 = LINE('',#808,#809);
#808 = CARTESIAN_POINT('',(14.,-53.,-3.));
#809 = VECTOR('',#810,1.);
#810 = DIRECTION('',(1.,0.,0.));
#811 = ORIENTED_EDGE('',*,*,#812,.F.);
#812 = EDGE_CURVE('',#813,#627,#815,.T.);
#813 = VERTEX_POINT('',#814);
#814 = CARTESIAN_POINT('',(-26.,-53.,-3.));
#815 = LINE('',#816,#817);
#816 = CARTESIAN_POINT('',(14.,-53.,-3.));
#817 = VECTOR('',#818,1.);
#818 = DIRECTION('',(1.,0.,0.));
#819 = ORIENTED_EDGE('',*,*,#820,.T.);
#820 = EDGE_CURVE('',#813,#458,#821,.T.);
#821 = LINE('',#822,#823);
#822 = CARTESIAN_POINT('',(-26.,-53.,0.));
#823 = VECTOR('',#824,1.);
#824 = DIRECTION('',(0.,0.,1.));
#825 = PLANE('',#826);
#826 = AXIS2_PLACEMENT_3D('',#827,#828,#829);
#827 = CARTESIAN_POINT('',(28.,-53.,0.));
#828 = DIRECTION('',(0.,1.,0.));
#829 = DIRECTION('',(-1.,0.,0.));
#830 = ADVANCED_FACE('',(#831),#873,.T.);
#831 = FACE_BOUND('',#832,.T.);
#832 = EDGE_LOOP('',(#833,#834,#835,#841,#847,#853,#859,#867));
#833 = ORIENTED_EDGE('',*,*,#465,.F.);
#834 = ORIENTED_EDGE('',*,*,#820,.F.);
#835 = ORIENTED_EDGE('',*,*,#836,.F.);
#836 = EDGE_CURVE('',#636,#813,#837,.T.);
#837 = LINE('',#838,#839);
#838 = CARTESIAN_POINT('',(-26.,-35.5,-3.));
#839 = VECTOR('',#840,1.);
#840 = DIRECTION('',(0.,-1.,0.));
#841 = ORIENTED_EDGE('',*,*,#842,.F.);
#842 = EDGE_CURVE('',#645,#636,#843,.T.);
#843 = LINE('',#844,#845);
#844 = CARTESIAN_POINT('',(-26.,-35.5,-3.));
#845 = VECTOR('',#846,1.);
#846 = DIRECTION('',(0.,-1.,0.));
#847 = ORIENTED_EDGE('',*,*,#848,.F.);
#848 = EDGE_CURVE('',#496,#645,#849,.T.);
#849 = LINE('',#850,#851);
#850 = CARTESIAN_POINT('',(-26.,-35.5,-3.));
#851 = VECTOR('',#852,1.);
#852 = DIRECTION('',(0.,-1.,0.));
#853 = ORIENTED_EDGE('',*,*,#854,.F.);
#854 = EDGE_CURVE('',#505,#496,#855,.T.);
#855 = LINE('',#856,#857);
#856 = CARTESIAN_POINT('',(-26.,-35.5,-3.));
#857 = VECTOR('',#858,1.);
#858 = DIRECTION('',(0.,-1.,0.));
#859 = ORIENTED_EDGE('',*,*,#860,.F.);
#860 = EDGE_CURVE('',#861,#505,#863,.T.);
#861 = VERTEX_POINT('',#862);
#862 = CARTESIAN_POINT('',(-26.,21.,-3.));
#863 = LINE('',#864,#865);
#864 = CARTESIAN_POINT('',(-26.,-35.5,-3.));
#865 = VECTOR('',#866,1.);
#866 = DIRECTION('',(0.,-1.,0.));
#867 = ORIENTED_EDGE('',*,*,#868,.F.);
#868 = EDGE_CURVE('',#466,#861,#869,.T.);
#869 = LINE('',#870,#871);
#870 = CARTESIAN_POINT('',(-26.,21.,0.));
#871 = VECTOR('',#872,1.);
#872 = DIRECTION('',(0.,0.,-1.));
#873 = PLANE('',#874);
#874 = AXIS2_PLACEMENT_3D('',#875,#876,#877);
#875 = CARTESIAN_POINT('',(-26.,-55.,0.));
#876 = DIRECTION('',(1.,0.,0.));
#877 = DIRECTION('',(0.,1.,0.));
#878 = ADVANCED_FACE('',(#879),#914,.T.);
#879 = FACE_BOUND('',#880,.T.);
#880 = EDGE_LOOP('',(#881,#882,#883,#889,#895,#901,#907,#913));
#881 = ORIENTED_EDGE('',*,*,#473,.F.);
#882 = ORIENTED_EDGE('',*,*,#868,.T.);
#883 = ORIENTED_EDGE('',*,*,#884,.F.);
#884 = EDGE_CURVE('',#514,#861,#885,.T.);
#885 = LINE('',#886,#887);
#886 = CARTESIAN_POINT('',(-14.,21.,-3.));
#887 = VECTOR('',#888,1.);
#888 = DIRECTION('',(-1.,0.,0.));
#889 = ORIENTED_EDGE('',*,*,#890,.F.);
#890 = EDGE_CURVE('',#523,#514,#891,.T.);
#891 = LINE('',#892,#893);
#892 = CARTESIAN_POINT('',(-14.,21.,-3.));
#893 = VECTOR('',#894,1.);
#894 = DIRECTION('',(-1.,0.,0.));
#895 = ORIENTED_EDGE('',*,*,#896,.F.);
#896 = EDGE_CURVE('',#566,#523,#897,.T.);
#897 = LINE('',#898,#899);
#898 = CARTESIAN_POINT('',(-14.,21.,-3.));
#899 = VECTOR('',#900,1.);
#900 = DIRECTION('',(-1.,0.,0.));
#901 = ORIENTED_EDGE('',*,*,#902,.F.);
#902 = EDGE_CURVE('',#575,#566,#903,.T.);
#903 = LINE('',#904,#905);
#904 = CARTESIAN_POINT('',(-14.,21.,-3.));
#905 = VECTOR('',#906,1.);
#906 = DIRECTION('',(-1.,0.,0.));
#907 = ORIENTED_EDGE('',*,*,#908,.F.);
#908 = EDGE_CURVE('',#733,#575,#909,.T.);
#909 = LINE('',#910,#911);
#910 = CARTESIAN_POINT('',(-14.,21.,-3.));
#911 = VECTOR('',#912,1.);
#912 = DIRECTION('',(-1.,0.,0.));
#913 = ORIENTED_EDGE('',*,*,#732,.F.);
#914 = PLANE('',#915);
#915 = AXIS2_PLACEMENT_3D('',#916,#917,#918);
#916 = CARTESIAN_POINT('',(-28.,21.,0.));
#917 = DIRECTION('',(0.,-1.,0.));
#918 = DIRECTION('',(1.,0.,0.));
#919 = ADVANCED_FACE('',(#920),#932,.T.);
#920 = FACE_BOUND('',#921,.T.);
#921 = EDGE_LOOP('',(#922,#923,#924,#925,#926,#927,#928,#929,#930,#931)
  );
#922 = ORIENTED_EDGE('',*,*,#495,.F.);
#923 = ORIENTED_EDGE('',*,*,#848,.T.);
#924 = ORIENTED_EDGE('',*,*,#653,.F.);
#925 = ORIENTED_EDGE('',*,*,#617,.F.);
#926 = ORIENTED_EDGE('',*,*,#800,.T.);
#927 = ORIENTED_EDGE('',*,*,#705,.F.);
#928 = ORIENTED_EDGE('',*,*,#752,.T.);
#929 = ORIENTED_EDGE('',*,*,#565,.F.);
#930 = ORIENTED_EDGE('',*,*,#896,.T.);
#931 = ORIENTED_EDGE('',*,*,#531,.F.);
#932 = PLANE('',#933);
#933 = AXIS2_PLACEMENT_3D('',#934,#935,#936);
#934 = CARTESIAN_POINT('',(0.,-16.,-3.));
#935 = DIRECTION('',(0.,0.,1.));
#936 = DIRECTION('',(1.,0.,0.));
#937 = ADVANCED_FACE('',(#938),#942,.F.);
#938 = FACE_BOUND('',#939,.F.);
#939 = EDGE_LOOP('',(#940,#941));
#940 = ORIENTED_EDGE('',*,*,#504,.T.);
#941 = ORIENTED_EDGE('',*,*,#854,.F.);
#942 = PLANE('',#943);
#943 = AXIS2_PLACEMENT_3D('',#944,#945,#946);
#944 = CARTESIAN_POINT('',(1.79E-15,-16.,-3.));
#945 = DIRECTION('',(0.,0.,1.));
#946 = DIRECTION('',(1.,0.,0.));
#947 = ADVANCED_FACE('',(#948),#953,.T.);
#948 = FACE_BOUND('',#949,.T.);
#949 = EDGE_LOOP('',(#950,#951,#952));
#950 = ORIENTED_EDGE('',*,*,#884,.T.);
#951 = ORIENTED_EDGE('',*,*,#860,.T.);
#952 = ORIENTED_EDGE('',*,*,#513,.F.);
#953 = PLANE('',#954);
#954 = AXIS2_PLACEMENT_3D('',#955,#956,#957);
#955 = CARTESIAN_POINT('',(0.,-16.,-3.));
#956 = DIRECTION('',(0.,0.,1.));
#957 = DIRECTION('',(1.,0.,0.));
#958 = ADVANCED_FACE('',(#959),#963,.F.);
#959 = FACE_BOUND('',#960,.F.);
#960 = EDGE_LOOP('',(#961,#962));
#961 = ORIENTED_EDGE('',*,*,#890,.F.);
#962 = ORIENTED_EDGE('',*,*,#522,.T.);
#963 = PLANE('',#964);
#964 = AXIS2_PLACEMENT_3D('',#965,#966,#967);
#965 = CARTESIAN_POINT('',(1.79E-15,-16.,-3.));
#966 = DIRECTION('',(0.,0.,1.));
#967 = DIRECTION('',(1.,0.,0.));
#968 = ADVANCED_FACE('',(#969),#974,.F.);
#969 = FACE_BOUND('',#970,.F.);
#970 = EDGE_LOOP('',(#971,#972,#973));
#971 = ORIENTED_EDGE('',*,*,#556,.T.);
#972 = ORIENTED_EDGE('',*,*,#592,.T.);
#973 = ORIENTED_EDGE('',*,*,#746,.F.);
#974 = PLANE('',#975);
#975 = AXIS2_PLACEMENT_3D('',#976,#977,#978);
#976 = CARTESIAN_POINT('',(1.79E-15,-16.,-3.));
#977 = DIRECTION('',(0.,0.,1.));
#978 = DIRECTION('',(1.,0.,0.));
#979 = ADVANCED_FACE('',(#980),#984,.F.);
#980 = FACE_BOUND('',#981,.F.);
#981 = EDGE_LOOP('',(#982,#983));
#982 = ORIENTED_EDGE('',*,*,#902,.F.);
#983 = ORIENTED_EDGE('',*,*,#574,.T.);
#984 = PLANE('',#985);
#985 = AXIS2_PLACEMENT_3D('',#986,#987,#988);
#986 = CARTESIAN_POINT('',(1.79E-15,-16.,-3.));
#987 = DIRECTION('',(0.,0.,1.));
#988 = DIRECTION('',(1.,0.,0.));
#989 = ADVANCED_FACE('',(#990),#995,.T.);
#990 = FACE_BOUND('',#991,.T.);
#991 = EDGE_LOOP('',(#992,#993,#994));
#992 = ORIENTED_EDGE('',*,*,#908,.T.);
#993 = ORIENTED_EDGE('',*,*,#583,.F.);
#994 = ORIENTED_EDGE('',*,*,#740,.T.);
#995 = PLANE('',#996);
#996 = AXIS2_PLACEMENT_3D('',#997,#998,#999);
#997 = CARTESIAN_POINT('',(0.,-16.,-3.));
#998 = DIRECTION('',(0.,0.,1.));
#999 = DIRECTION('',(1.,0.,0.));
#1000 = ADVANCED_FACE('',(#1001),#1005,.F.);
#1001 = FACE_BOUND('',#1002,.F.);
#1002 = EDGE_LOOP('',(#1003,#1004));
#1003 = ORIENTED_EDGE('',*,*,#626,.T.);
#1004 = ORIENTED_EDGE('',*,*,#806,.F.);
#1005 = PLANE('',#1006);
#1006 = AXIS2_PLACEMENT_3D('',#1007,#1008,#1009);
#1007 = CARTESIAN_POINT('',(1.79E-15,-16.,-3.));
#1008 = DIRECTION('',(0.,0.,1.));
#1009 = DIRECTION('',(1.,0.,0.));
#1010 = ADVANCED_FACE('',(#1011),#1016,.T.);
#1011 = FACE_BOUND('',#1012,.T.);
#1012 = EDGE_LOOP('',(#1013,#1014,#1015));
#1013 = ORIENTED_EDGE('',*,*,#635,.F.);
#1014 = ORIENTED_EDGE('',*,*,#836,.T.);
#1015 = ORIENTED_EDGE('',*,*,#812,.T.);
#1016 = PLANE('',#1017);
#1017 = AXIS2_PLACEMENT_3D('',#1018,#1019,#1020);
#1018 = CARTESIAN_POINT('',(0.,-16.,-3.));
#1019 = DIRECTION('',(0.,0.,1.));
#1020 = DIRECTION('',(1.,0.,0.));
#1021 = ADVANCED_FACE('',(#1022),#1026,.F.);
#1022 = FACE_BOUND('',#1023,.F.);
#1023 = EDGE_LOOP('',(#1024,#1025));
#1024 = ORIENTED_EDGE('',*,*,#842,.F.);
#1025 = ORIENTED_EDGE('',*,*,#644,.T.);
#1026 = PLANE('',#1027);
#1027 = AXIS2_PLACEMENT_3D('',#1028,#1029,#1030);
#1028 = CARTESIAN_POINT('',(1.79E-15,-16.,-3.));
#1029 = DIRECTION('',(0.,0.,1.));
#1030 = DIRECTION('',(1.,0.,0.));
#1031 = ADVANCED_FACE('',(#1032),#1037,.F.);
#1032 = FACE_BOUND('',#1033,.F.);
#1033 = EDGE_LOOP('',(#1034,#1035,#1036));
#1034 = ORIENTED_EDGE('',*,*,#678,.T.);
#1035 = ORIENTED_EDGE('',*,*,#714,.T.);
#1036 = ORIENTED_EDGE('',*,*,#758,.F.);
#1037 = PLANE('',#1038);
#1038 = AXIS2_PLACEMENT_3D('',#1039,#1040,#1041);
#1039 = CARTESIAN_POINT('',(1.79E-15,-16.,-3.));
#1040 = DIRECTION('',(0.,0.,1.));
#1041 = DIRECTION('',(1.,0.,0.));
#1042 = ADVANCED_FACE('',(#1043),#1048,.T.);
#1043 = FACE_BOUND('',#1044,.T.);
#1044 = EDGE_LOOP('',(#1045,#1046,#1047));
#1045 = ORIENTED_EDGE('',*,*,#764,.T.);
#1046 = ORIENTED_EDGE('',*,*,#687,.F.);
#1047 = ORIENTED_EDGE('',*,*,#788,.T.);
#1048 = PLANE('',#1049);
#1049 = AXIS2_PLACEMENT_3D('',#1050,#1051,#1052);
#1050 = CARTESIAN_POINT('',(0.,-16.,-3.));
#1051 = DIRECTION('',(0.,0.,1.));
#1052 = DIRECTION('',(1.,0.,0.));
#1053 = ADVANCED_FACE('',(#1054),#1058,.F.);
#1054 = FACE_BOUND('',#1055,.F.);
#1055 = EDGE_LOOP('',(#1056,#1057));
#1056 = ORIENTED_EDGE('',*,*,#794,.F.);
#1057 = ORIENTED_EDGE('',*,*,#696,.T.);
#1058 = PLANE('',#1059);
#1059 = AXIS2_PLACEMENT_3D('',#1060,#1061,#1062);
#1060 = CARTESIAN_POINT('',(1.79E-15,-16.,-3.));
#1061 = DIRECTION('',(0.,0.,1.));
#1062 = DIRECTION('',(1.,0.,0.));
#1063 = ( GEOMETRIC_REPRESENTATION_CONTEXT(3) 
GLOBAL_UNCERTAINTY_ASSIGNED_CONTEXT((#1067)) 
GLOBAL_UNIT_ASSIGNED_CONTEXT((#1064,#1065,#1066)) REPRESENTATION_CONTEXT
('Context #1','3D Context with UNIT and UNCERTAINTY') );
#1064 = ( LENGTH_UNIT() NAMED_UNIT(*) SI_UNIT(.MILLI.,.METRE.) );
#1065 = ( NAMED_UNIT(*) PLANE_ANGLE_UNIT() SI_UNIT($,.RADIAN.) );
#1066 = ( NAMED_UNIT(*) SI_UNIT($,.STERADIAN.) SOLID_ANGLE_UNIT() );
#1067 = UNCERTAINTY_MEASURE_WITH_UNIT(LENGTH_MEASURE(1.E-07),#1064,
  'distance_accuracy_value','confusion accuracy');
#1068 = PRODUCT_RELATED_PRODUCT_CATEGORY('part',$,(#7));
#1069 = MECHANICAL_DESIGN_GEOMETRIC_PRESENTATION_REPRESENTATION('',(
    #1070),#1063);
#1070 = STYLED_ITEM('color',(#1071),#15);
#1071 = PRESENTATION_STYLE_ASSIGNMENT((#1072,#1080));
#1072 = SURFACE_STYLE_USAGE(.BOTH.,#1073);
#1073 = SURFACE_SIDE_STYLE('',(#1074,#1078));
#1074 = SURFACE_STYLE_FILL_AREA(#1075);
#1075 = FILL_AREA_STYLE('',(#1076));
#1076 = FILL_AREA_STYLE_COLOUR('',#1077);
#1077 = COLOUR_RGB('',0.40784314916,0.600000020288,0.733333345324);
#1078 = SURFACE_STYLE_RENDERING_WITH_PROPERTIES(.NORMAL_SHADING.,#1077,(
    #1079));
#1079 = SURFACE_STYLE_TRANSPARENT(0.800000011921);
#1080 = CURVE_STYLE('',#1081,POSITIVE_LENGTH_MEASURE(0.1),#1082);
#1081 = DRAUGHTING_PRE_DEFINED_CURVE_FONT('continuous');
#1082 = COLOUR_RGB('',9.803921802644E-02,9.803921802644E-02,
  9.803921802644E-02);
ENDSEC;
END-ISO-10303-21;
