ISO-10303-21;
HEADER;
FILE_DESCRIPTION(('FreeCAD Model'),'2;1');
FILE_NAME('Open CASCADE Shape Model','2026-01-12T23:40:34',(''),(''),
  'Open CASCADE STEP processor 7.8','FreeCAD','Unknown');
FILE_SCHEMA(('AUTOMOTIVE_DESIGN { 1 0 10303 214 1 1 1 1 }'));
ENDSEC;
DATA;
#1 = APPLICATION_PROTOCOL_DEFINITION('international standard',
  'automotive_design',2000,#2);
#2 = APPLICATION_CONTEXT(
  'core data for automotive mechanical design processes');
#3 = SHAPE_DEFINITION_REPRESENTATION(#4,#10);
#4 = PRODUCT_DEFINITION_SHAPE('','',#5);
#5 = PRODUCT_DEFINITION('design','',#6,#9);
#6 = PRODUCT_DEFINITION_FORMATION('','',#7);
#7 = PRODUCT('base','base','',(#8));
#8 = PRODUCT_CONTEXT('',#2,'mechanical');
#9 = PRODUCT_DEFINITION_CONTEXT('part definition',#2,'design');
#10 = ADVANCED_BREP_SHAPE_REPRESENTATION('',(#11,#15),#2291);
#11 = AXIS2_PLACEMENT_3D('',#12,#13,#14);
#12 = CARTESIAN_POINT('',(0.,0.,0.));
#13 = DIRECTION('',(0.,0.,1.));
#14 = DIRECTION('',(1.,0.,-0.));
#15 = MANIFOLD_SOLID_BREP('',#16);
#16 = CLOSED_SHELL('',(#17,#57,#88,#119,#305,#329,#353,#377,#433,#450,
    #474,#498,#522,#539,#570,#594,#625,#706,#730,#754,#785,#866,#897,
    #978,#1002,#1026,#1057,#1138,#1162,#1179,#1196,#1213,#1230,#1247,
    #1259,#1367,#1392,#1417,#1434,#1465,#1489,#1513,#1537,#1561,#1578,
    #1603,#1627,#1645,#1676,#1700,#1724,#1748,#1772,#1789,#1814,#1838,
    #1856,#1887,#1911,#1935,#1959,#1983,#2000,#2025,#2049,#2067,#2098,
    #2122,#2146,#2170,#2194,#2211,#2231,#2251,#2271));
#17 = ADVANCED_FACE('',(#18),#52,.T.);
#18 = FACE_BOUND('',#19,.T.);
#19 = EDGE_LOOP('',(#20,#30,#38,#46));
#20 = ORIENTED_EDGE('',*,*,#21,.T.);
#21 = EDGE_CURVE('',#22,#24,#26,.T.);
#22 = VERTEX_POINT('',#23);
#23 = CARTESIAN_POINT('',(-22.,-56.82893653003,0.));
#24 = VERTEX_POINT('',#25);
#25 = CARTESIAN_POINT('',(-22.,-56.82893653003,-4.5));
#26 = LINE('',#27,#28);
#27 = CARTESIAN_POINT('',(-22.,-56.82893653003,0.));
#28 = VECTOR('',#29,1.);
#29 = DIRECTION('',(-0.,-0.,-1.));
#30 = ORIENTED_EDGE('',*,*,#31,.T.);
#31 = EDGE_CURVE('',#24,#32,#34,.T.);
#32 = VERTEX_POINT('',#33);
#33 = CARTESIAN_POINT('',(22.,-56.82893653003,-4.5));
#34 = LINE('',#35,#36);
#35 = CARTESIAN_POINT('',(-22.,-56.82893653003,-4.5));
#36 = VECTOR('',#37,1.);
#37 = DIRECTION('',(1.,-3.229739708E-16,0.));
#38 = ORIENTED_EDGE('',*,*,#39,.F.);
#39 = EDGE_CURVE('',#40,#32,#42,.T.);
#40 = VERTEX_POINT('',#41);
#41 = CARTESIAN_POINT('',(22.,-56.82893653003,0.));
#42 = LINE('',#43,#44);
#43 = CARTESIAN_POINT('',(22.,-56.82893653003,0.));
#44 = VECTOR('',#45,1.);
#45 = DIRECTION('',(-0.,-0.,-1.));
#46 = ORIENTED_EDGE('',*,*,#47,.F.);
#47 = EDGE_CURVE('',#22,#40,#48,.T.);
#48 = LINE('',#49,#50);
#49 = CARTESIAN_POINT('',(-22.,-56.82893653003,0.));
#50 = VECTOR('',#51,1.);
#51 = DIRECTION('',(1.,-3.229739708E-16,0.));
#52 = PLANE('',#53);
#53 = AXIS2_PLACEMENT_3D('',#54,#55,#56);
#54 = CARTESIAN_POINT('',(-22.,-56.82893653003,0.));
#55 = DIRECTION('',(-3.229739708E-16,-1.,0.));
#56 = DIRECTION('',(1.,-3.229739708E-16,0.));
#57 = ADVANCED_FACE('',(#58),#83,.T.);
#58 = FACE_BOUND('',#59,.T.);
#59 = EDGE_LOOP('',(#60,#70,#76,#77));
#60 = ORIENTED_EDGE('',*,*,#61,.T.);
#61 = EDGE_CURVE('',#62,#64,#66,.T.);
#62 = VERTEX_POINT('',#63);
#63 = CARTESIAN_POINT('',(-28.,-50.82893653003,0.));
#64 = VERTEX_POINT('',#65);
#65 = CARTESIAN_POINT('',(-28.,-50.82893653003,-4.5));
#66 = LINE('',#67,#68);
#67 = CARTESIAN_POINT('',(-28.,-50.82893653003,0.));
#68 = VECTOR('',#69,1.);
#69 = DIRECTION('',(-0.,-0.,-1.));
#70 = ORIENTED_EDGE('',*,*,#71,.T.);
#71 = EDGE_CURVE('',#64,#24,#72,.T.);
#72 = LINE('',#73,#74);
#73 = CARTESIAN_POINT('',(-28.,-50.82893653003,-4.5));
#74 = VECTOR('',#75,1.);
#75 = DIRECTION('',(0.707106781187,-0.707106781187,0.));
#76 = ORIENTED_EDGE('',*,*,#21,.F.);
#77 = ORIENTED_EDGE('',*,*,#78,.F.);
#78 = EDGE_CURVE('',#62,#22,#79,.T.);
#79 = LINE('',#80,#81);
#80 = CARTESIAN_POINT('',(-28.,-50.82893653003,0.));
#81 = VECTOR('',#82,1.);
#82 = DIRECTION('',(0.707106781187,-0.707106781187,0.));
#83 = PLANE('',#84);
#84 = AXIS2_PLACEMENT_3D('',#85,#86,#87);
#85 = CARTESIAN_POINT('',(-28.,-50.82893653003,0.));
#86 = DIRECTION('',(-0.707106781187,-0.707106781187,0.));
#87 = DIRECTION('',(0.707106781187,-0.707106781187,0.));
#88 = ADVANCED_FACE('',(#89),#114,.F.);
#89 = FACE_BOUND('',#90,.F.);
#90 = EDGE_LOOP('',(#91,#99,#100,#108));
#91 = ORIENTED_EDGE('',*,*,#92,.F.);
#92 = EDGE_CURVE('',#24,#93,#95,.T.);
#93 = VERTEX_POINT('',#94);
#94 = CARTESIAN_POINT('',(-21.37867965644,-55.32893653003,-6.));
#95 = LINE('',#96,#97);
#96 = CARTESIAN_POINT('',(-21.37867965644,-55.32893653003,-6.));
#97 = VECTOR('',#98,1.);
#98 = DIRECTION('',(0.281084637715,0.678598344546,-0.678598344546));
#99 = ORIENTED_EDGE('',*,*,#31,.T.);
#100 = ORIENTED_EDGE('',*,*,#101,.T.);
#101 = EDGE_CURVE('',#32,#102,#104,.T.);
#102 = VERTEX_POINT('',#103);
#103 = CARTESIAN_POINT('',(21.37867965644,-55.32893653003,-6.));
#104 = LINE('',#105,#106);
#105 = CARTESIAN_POINT('',(19.97569602695,-51.94183442392,
    -9.387102106103));
#106 = VECTOR('',#107,1.);
#107 = DIRECTION('',(-0.281084637715,0.678598344546,-0.678598344546));
#108 = ORIENTED_EDGE('',*,*,#109,.F.);
#109 = EDGE_CURVE('',#93,#102,#110,.T.);
#110 = LINE('',#111,#112);
#111 = CARTESIAN_POINT('',(-22.,-55.32893653003,-6.));
#112 = VECTOR('',#113,1.);
#113 = DIRECTION('',(1.,-3.229739708E-16,0.));
#114 = PLANE('',#115);
#115 = AXIS2_PLACEMENT_3D('',#116,#117,#118);
#116 = CARTESIAN_POINT('',(-22.,-56.07893653003,-5.25));
#117 = DIRECTION('',(4.961034868438E-16,0.707106781187,0.707106781187));
#118 = DIRECTION('',(1.,-5.122851251176E-16,-1.893111543175E-16));
#119 = ADVANCED_FACE('',(#120,#170),#300,.T.);
#120 = FACE_BOUND('',#121,.T.);
#121 = EDGE_LOOP('',(#122,#123,#131,#139,#147,#155,#163,#169));
#122 = ORIENTED_EDGE('',*,*,#47,.T.);
#123 = ORIENTED_EDGE('',*,*,#124,.T.);
#124 = EDGE_CURVE('',#40,#125,#127,.T.);
#125 = VERTEX_POINT('',#126);
#126 = CARTESIAN_POINT('',(28.,-50.82893653003,0.));
#127 = LINE('',#128,#129);
#128 = CARTESIAN_POINT('',(22.,-56.82893653003,0.));
#129 = VECTOR('',#130,1.);
#130 = DIRECTION('',(0.707106781187,0.707106781187,0.));
#131 = ORIENTED_EDGE('',*,*,#132,.T.);
#132 = EDGE_CURVE('',#125,#133,#135,.T.);
#133 = VERTEX_POINT('',#134);
#134 = CARTESIAN_POINT('',(28.,17.,0.));
#135 = LINE('',#136,#137);
#136 = CARTESIAN_POINT('',(28.,-50.82893653003,0.));
#137 = VECTOR('',#138,1.);
#138 = DIRECTION('',(0.,1.,0.));
#139 = ORIENTED_EDGE('',*,*,#140,.T.);
#140 = EDGE_CURVE('',#133,#141,#143,.T.);
#141 = VERTEX_POINT('',#142);
#142 = CARTESIAN_POINT('',(22.,23.,0.));
#143 = LINE('',#144,#145);
#144 = CARTESIAN_POINT('',(28.,17.,0.));
#145 = VECTOR('',#146,1.);
#146 = DIRECTION('',(-0.707106781187,0.707106781187,0.));
#147 = ORIENTED_EDGE('',*,*,#148,.T.);
#148 = EDGE_CURVE('',#141,#149,#151,.T.);
#149 = VERTEX_POINT('',#150);
#150 = CARTESIAN_POINT('',(-22.,23.,0.));
#151 = LINE('',#152,#153);
#152 = CARTESIAN_POINT('',(22.,23.,0.));
#153 = VECTOR('',#154,1.);
#154 = DIRECTION('',(-1.,0.,0.));
#155 = ORIENTED_EDGE('',*,*,#156,.T.);
#156 = EDGE_CURVE('',#149,#157,#159,.T.);
#157 = VERTEX_POINT('',#158);
#158 = CARTESIAN_POINT('',(-28.,17.,0.));
#159 = LINE('',#160,#161);
#160 = CARTESIAN_POINT('',(-22.,23.,0.));
#161 = VECTOR('',#162,1.);
#162 = DIRECTION('',(-0.707106781187,-0.707106781187,0.));
#163 = ORIENTED_EDGE('',*,*,#164,.T.);
#164 = EDGE_CURVE('',#157,#62,#165,.T.);
#165 = LINE('',#166,#167);
#166 = CARTESIAN_POINT('',(-28.,17.,0.));
#167 = VECTOR('',#168,1.);
#168 = DIRECTION('',(0.,-1.,0.));
#169 = ORIENTED_EDGE('',*,*,#78,.T.);
#170 = FACE_BOUND('',#171,.T.);
#171 = EDGE_LOOP('',(#172,#182,#190,#198,#206,#214,#222,#230,#238,#246,
    #254,#262,#270,#278,#286,#294));
#172 = ORIENTED_EDGE('',*,*,#173,.F.);
#173 = EDGE_CURVE('',#174,#176,#178,.T.);
#174 = VERTEX_POINT('',#175);
#175 = CARTESIAN_POINT('',(-21.17157287525,-54.82893653003,0.));
#176 = VERTEX_POINT('',#177);
#177 = CARTESIAN_POINT('',(21.171572875254,-54.82893653003,0.));
#178 = LINE('',#179,#180);
#179 = CARTESIAN_POINT('',(-22.,-54.82893653003,0.));
#180 = VECTOR('',#181,1.);
#181 = DIRECTION('',(1.,-3.229739708E-16,0.));
#182 = ORIENTED_EDGE('',*,*,#183,.F.);
#183 = EDGE_CURVE('',#184,#174,#186,.T.);
#184 = VERTEX_POINT('',#185);
#185 = CARTESIAN_POINT('',(-26.,-50.00050940528,0.));
#186 = LINE('',#187,#188);
#187 = CARTESIAN_POINT('',(-26.58578643762,-49.41472296765,0.));
#188 = VECTOR('',#189,1.);
#189 = DIRECTION('',(0.707106781187,-0.707106781187,0.));
#190 = ORIENTED_EDGE('',*,*,#191,.F.);
#191 = EDGE_CURVE('',#192,#184,#194,.T.);
#192 = VERTEX_POINT('',#193);
#193 = CARTESIAN_POINT('',(-26.,-49.34,0.));
#194 = LINE('',#195,#196);
#195 = CARTESIAN_POINT('',(-26.,17.,0.));
#196 = VECTOR('',#197,1.);
#197 = DIRECTION('',(0.,-1.,0.));
#198 = ORIENTED_EDGE('',*,*,#199,.F.);
#199 = EDGE_CURVE('',#200,#192,#202,.T.);
#200 = VERTEX_POINT('',#201);
#201 = CARTESIAN_POINT('',(-26.,-42.34,0.));
#202 = LINE('',#203,#204);
#203 = CARTESIAN_POINT('',(-26.,17.,0.));
#204 = VECTOR('',#205,1.);
#205 = DIRECTION('',(0.,-1.,0.));
#206 = ORIENTED_EDGE('',*,*,#207,.F.);
#207 = EDGE_CURVE('',#208,#200,#210,.T.);
#208 = VERTEX_POINT('',#209);
#209 = CARTESIAN_POINT('',(-26.,16.171572875254,0.));
#210 = LINE('',#211,#212);
#211 = CARTESIAN_POINT('',(-26.,17.,0.));
#212 = VECTOR('',#213,1.);
#213 = DIRECTION('',(0.,-1.,0.));
#214 = ORIENTED_EDGE('',*,*,#215,.F.);
#215 = EDGE_CURVE('',#216,#208,#218,.T.);
#216 = VERTEX_POINT('',#217);
#217 = CARTESIAN_POINT('',(-21.17157287525,21.,0.));
#218 = LINE('',#219,#220);
#219 = CARTESIAN_POINT('',(-20.58578643762,21.585786437627,0.));
#220 = VECTOR('',#221,1.);
#221 = DIRECTION('',(-0.707106781187,-0.707106781187,0.));
#222 = ORIENTED_EDGE('',*,*,#223,.F.);
#223 = EDGE_CURVE('',#224,#216,#226,.T.);
#224 = VERTEX_POINT('',#225);
#225 = CARTESIAN_POINT('',(-20.5,21.,0.));
#226 = LINE('',#227,#228);
#227 = CARTESIAN_POINT('',(22.,21.,0.));
#228 = VECTOR('',#229,1.);
#229 = DIRECTION('',(-1.,0.,0.));
#230 = ORIENTED_EDGE('',*,*,#231,.F.);
#231 = EDGE_CURVE('',#232,#224,#234,.T.);
#232 = VERTEX_POINT('',#233);
#233 = CARTESIAN_POINT('',(-13.5,21.,0.));
#234 = LINE('',#235,#236);
#235 = CARTESIAN_POINT('',(22.,21.,0.));
#236 = VECTOR('',#237,1.);
#237 = DIRECTION('',(-1.,0.,0.));
#238 = ORIENTED_EDGE('',*,*,#239,.F.);
#239 = EDGE_CURVE('',#240,#232,#242,.T.);
#240 = VERTEX_POINT('',#241);
#241 = CARTESIAN_POINT('',(13.5,21.,0.));
#242 = LINE('',#243,#244);
#243 = CARTESIAN_POINT('',(22.,21.,0.));
#244 = VECTOR('',#245,1.);
#245 = DIRECTION('',(-1.,0.,0.));
#246 = ORIENTED_EDGE('',*,*,#247,.F.);
#247 = EDGE_CURVE('',#248,#240,#250,.T.);
#248 = VERTEX_POINT('',#249);
#249 = CARTESIAN_POINT('',(20.5,21.,0.));
#250 = LINE('',#251,#252);
#251 = CARTESIAN_POINT('',(22.,21.,0.));
#252 = VECTOR('',#253,1.);
#253 = DIRECTION('',(-1.,0.,0.));
#254 = ORIENTED_EDGE('',*,*,#255,.F.);
#255 = EDGE_CURVE('',#256,#248,#258,.T.);
#256 = VERTEX_POINT('',#257);
#257 = CARTESIAN_POINT('',(21.171572875254,21.,0.));
#258 = LINE('',#259,#260);
#259 = CARTESIAN_POINT('',(22.,21.,0.));
#260 = VECTOR('',#261,1.);
#261 = DIRECTION('',(-1.,0.,0.));
#262 = ORIENTED_EDGE('',*,*,#263,.F.);
#263 = EDGE_CURVE('',#264,#256,#266,.T.);
#264 = VERTEX_POINT('',#265);
#265 = CARTESIAN_POINT('',(26.,16.171572875254,0.));
#266 = LINE('',#267,#268);
#267 = CARTESIAN_POINT('',(26.585786437627,15.585786437627,0.));
#268 = VECTOR('',#269,1.);
#269 = DIRECTION('',(-0.707106781187,0.707106781187,0.));
#270 = ORIENTED_EDGE('',*,*,#271,.F.);
#271 = EDGE_CURVE('',#272,#264,#274,.T.);
#272 = VERTEX_POINT('',#273);
#273 = CARTESIAN_POINT('',(26.,-42.34,0.));
#274 = LINE('',#275,#276);
#275 = CARTESIAN_POINT('',(26.,-50.82893653003,0.));
#276 = VECTOR('',#277,1.);
#277 = DIRECTION('',(0.,1.,0.));
#278 = ORIENTED_EDGE('',*,*,#279,.F.);
#279 = EDGE_CURVE('',#280,#272,#282,.T.);
#280 = VERTEX_POINT('',#281);
#281 = CARTESIAN_POINT('',(26.,-49.34,0.));
#282 = LINE('',#283,#284);
#283 = CARTESIAN_POINT('',(26.,-50.82893653003,0.));
#284 = VECTOR('',#285,1.);
#285 = DIRECTION('',(0.,1.,0.));
#286 = ORIENTED_EDGE('',*,*,#287,.F.);
#287 = EDGE_CURVE('',#288,#280,#290,.T.);
#288 = VERTEX_POINT('',#289);
#289 = CARTESIAN_POINT('',(26.,-50.00050940528,0.));
#290 = LINE('',#291,#292);
#291 = CARTESIAN_POINT('',(26.,-50.82893653003,0.));
#292 = VECTOR('',#293,1.);
#293 = DIRECTION('',(0.,1.,0.));
#294 = ORIENTED_EDGE('',*,*,#295,.F.);
#295 = EDGE_CURVE('',#176,#288,#296,.T.);
#296 = LINE('',#297,#298);
#297 = CARTESIAN_POINT('',(20.585786437627,-55.41472296765,0.));
#298 = VECTOR('',#299,1.);
#299 = DIRECTION('',(0.707106781187,0.707106781187,0.));
#300 = PLANE('',#301);
#301 = AXIS2_PLACEMENT_3D('',#302,#303,#304);
#302 = CARTESIAN_POINT('',(1.875663581859E-15,-16.91446826501,0.));
#303 = DIRECTION('',(0.,0.,1.));
#304 = DIRECTION('',(1.,0.,0.));
#305 = ADVANCED_FACE('',(#306),#324,.T.);
#306 = FACE_BOUND('',#307,.T.);
#307 = EDGE_LOOP('',(#308,#309,#317,#323));
#308 = ORIENTED_EDGE('',*,*,#39,.T.);
#309 = ORIENTED_EDGE('',*,*,#310,.T.);
#310 = EDGE_CURVE('',#32,#311,#313,.T.);
#311 = VERTEX_POINT('',#312);
#312 = CARTESIAN_POINT('',(28.,-50.82893653003,-4.5));
#313 = LINE('',#314,#315);
#314 = CARTESIAN_POINT('',(22.,-56.82893653003,-4.5));
#315 = VECTOR('',#316,1.);
#316 = DIRECTION('',(0.707106781187,0.707106781187,0.));
#317 = ORIENTED_EDGE('',*,*,#318,.F.);
#318 = EDGE_CURVE('',#125,#311,#319,.T.);
#319 = LINE('',#320,#321);
#320 = CARTESIAN_POINT('',(28.,-50.82893653003,0.));
#321 = VECTOR('',#322,1.);
#322 = DIRECTION('',(-0.,-0.,-1.));
#323 = ORIENTED_EDGE('',*,*,#124,.F.);
#324 = PLANE('',#325);
#325 = AXIS2_PLACEMENT_3D('',#326,#327,#328);
#326 = CARTESIAN_POINT('',(22.,-56.82893653003,0.));
#327 = DIRECTION('',(0.707106781187,-0.707106781187,0.));
#328 = DIRECTION('',(0.707106781187,0.707106781187,0.));
#329 = ADVANCED_FACE('',(#330),#348,.T.);
#330 = FACE_BOUND('',#331,.T.);
#331 = EDGE_LOOP('',(#332,#340,#346,#347));
#332 = ORIENTED_EDGE('',*,*,#333,.T.);
#333 = EDGE_CURVE('',#157,#334,#336,.T.);
#334 = VERTEX_POINT('',#335);
#335 = CARTESIAN_POINT('',(-28.,17.,-4.5));
#336 = LINE('',#337,#338);
#337 = CARTESIAN_POINT('',(-28.,17.,0.));
#338 = VECTOR('',#339,1.);
#339 = DIRECTION('',(-0.,-0.,-1.));
#340 = ORIENTED_EDGE('',*,*,#341,.T.);
#341 = EDGE_CURVE('',#334,#64,#342,.T.);
#342 = LINE('',#343,#344);
#343 = CARTESIAN_POINT('',(-28.,17.,-4.5));
#344 = VECTOR('',#345,1.);
#345 = DIRECTION('',(0.,-1.,0.));
#346 = ORIENTED_EDGE('',*,*,#61,.F.);
#347 = ORIENTED_EDGE('',*,*,#164,.F.);
#348 = PLANE('',#349);
#349 = AXIS2_PLACEMENT_3D('',#350,#351,#352);
#350 = CARTESIAN_POINT('',(-28.,17.,0.));
#351 = DIRECTION('',(-1.,0.,0.));
#352 = DIRECTION('',(0.,-1.,0.));
#353 = ADVANCED_FACE('',(#354),#372,.F.);
#354 = FACE_BOUND('',#355,.F.);
#355 = EDGE_LOOP('',(#356,#364,#365,#366));
#356 = ORIENTED_EDGE('',*,*,#357,.F.);
#357 = EDGE_CURVE('',#64,#358,#360,.T.);
#358 = VERTEX_POINT('',#359);
#359 = CARTESIAN_POINT('',(-26.5,-50.20761618647,-6.));
#360 = LINE('',#361,#362);
#361 = CARTESIAN_POINT('',(-20.84028968439,-47.86328741464,
    -11.6597103156));
#362 = VECTOR('',#363,1.);
#363 = DIRECTION('',(0.678598344546,0.281084637715,-0.678598344546));
#364 = ORIENTED_EDGE('',*,*,#71,.T.);
#365 = ORIENTED_EDGE('',*,*,#92,.T.);
#366 = ORIENTED_EDGE('',*,*,#367,.F.);
#367 = EDGE_CURVE('',#358,#93,#368,.T.);
#368 = LINE('',#369,#370);
#369 = CARTESIAN_POINT('',(-26.93933982822,-49.76827635825,-6.));
#370 = VECTOR('',#371,1.);
#371 = DIRECTION('',(0.707106781187,-0.707106781187,0.));
#372 = PLANE('',#373);
#373 = AXIS2_PLACEMENT_3D('',#374,#375,#376);
#374 = CARTESIAN_POINT('',(-27.46966991411,-50.29860644414,-5.25));
#375 = DIRECTION('',(0.5,0.5,0.707106781187));
#376 = DIRECTION('',(0.707106781187,-0.707106781187,2.775557561563E-17)
  );
#377 = ADVANCED_FACE('',(#378),#428,.F.);
#378 = FACE_BOUND('',#379,.F.);
#379 = EDGE_LOOP('',(#380,#390,#398,#406,#414,#420,#421,#422));
#380 = ORIENTED_EDGE('',*,*,#381,.T.);
#381 = EDGE_CURVE('',#382,#384,#386,.T.);
#382 = VERTEX_POINT('',#383);
#383 = CARTESIAN_POINT('',(26.5,-50.20761618647,-6.));
#384 = VERTEX_POINT('',#385);
#385 = CARTESIAN_POINT('',(26.5,16.37867965644,-6.));
#386 = LINE('',#387,#388);
#387 = CARTESIAN_POINT('',(26.5,-50.82893653003,-6.));
#388 = VECTOR('',#389,1.);
#389 = DIRECTION('',(0.,1.,0.));
#390 = ORIENTED_EDGE('',*,*,#391,.T.);
#391 = EDGE_CURVE('',#384,#392,#394,.T.);
#392 = VERTEX_POINT('',#393);
#393 = CARTESIAN_POINT('',(21.37867965644,21.5,-6.));
#394 = LINE('',#395,#396);
#395 = CARTESIAN_POINT('',(26.93933982822,15.93933982822,-6.));
#396 = VECTOR('',#397,1.);
#397 = DIRECTION('',(-0.707106781187,0.707106781187,0.));
#398 = ORIENTED_EDGE('',*,*,#399,.T.);
#399 = EDGE_CURVE('',#392,#400,#402,.T.);
#400 = VERTEX_POINT('',#401);
#401 = CARTESIAN_POINT('',(-21.37867965644,21.5,-6.));
#402 = LINE('',#403,#404);
#403 = CARTESIAN_POINT('',(22.,21.5,-6.));
#404 = VECTOR('',#405,1.);
#405 = DIRECTION('',(-1.,0.,0.));
#406 = ORIENTED_EDGE('',*,*,#407,.T.);
#407 = EDGE_CURVE('',#400,#408,#410,.T.);
#408 = VERTEX_POINT('',#409);
#409 = CARTESIAN_POINT('',(-26.5,16.37867965644,-6.));
#410 = LINE('',#411,#412);
#411 = CARTESIAN_POINT('',(-20.93933982822,21.93933982822,-6.));
#412 = VECTOR('',#413,1.);
#413 = DIRECTION('',(-0.707106781187,-0.707106781187,0.));
#414 = ORIENTED_EDGE('',*,*,#415,.T.);
#415 = EDGE_CURVE('',#408,#358,#416,.T.);
#416 = LINE('',#417,#418);
#417 = CARTESIAN_POINT('',(-26.5,17.,-6.));
#418 = VECTOR('',#419,1.);
#419 = DIRECTION('',(0.,-1.,0.));
#420 = ORIENTED_EDGE('',*,*,#367,.T.);
#421 = ORIENTED_EDGE('',*,*,#109,.T.);
#422 = ORIENTED_EDGE('',*,*,#423,.T.);
#423 = EDGE_CURVE('',#102,#382,#424,.T.);
#424 = LINE('',#425,#426);
#425 = CARTESIAN_POINT('',(20.93933982822,-55.76827635825,-6.));
#426 = VECTOR('',#427,1.);
#427 = DIRECTION('',(0.707106781187,0.707106781187,0.));
#428 = PLANE('',#429);
#429 = AXIS2_PLACEMENT_3D('',#430,#431,#432);
#430 = CARTESIAN_POINT('',(1.875663581859E-15,-16.91446826501,-6.));
#431 = DIRECTION('',(0.,0.,1.));
#432 = DIRECTION('',(1.,0.,0.));
#433 = ADVANCED_FACE('',(#434),#445,.F.);
#434 = FACE_BOUND('',#435,.F.);
#435 = EDGE_LOOP('',(#436,#437,#438,#444));
#436 = ORIENTED_EDGE('',*,*,#101,.F.);
#437 = ORIENTED_EDGE('',*,*,#310,.T.);
#438 = ORIENTED_EDGE('',*,*,#439,.F.);
#439 = EDGE_CURVE('',#382,#311,#440,.T.);
#440 = LINE('',#441,#442);
#441 = CARTESIAN_POINT('',(26.5,-50.20761618647,-6.));
#442 = VECTOR('',#443,1.);
#443 = DIRECTION('',(0.678598344546,-0.281084637715,0.678598344546));
#444 = ORIENTED_EDGE('',*,*,#423,.F.);
#445 = PLANE('',#446);
#446 = AXIS2_PLACEMENT_3D('',#447,#448,#449);
#447 = CARTESIAN_POINT('',(21.46966991411,-56.29860644414,-5.25));
#448 = DIRECTION('',(-0.5,0.5,0.707106781187));
#449 = DIRECTION('',(0.707106781187,0.707106781187,5.551115123126E-17));
#450 = ADVANCED_FACE('',(#451),#469,.T.);
#451 = FACE_BOUND('',#452,.T.);
#452 = EDGE_LOOP('',(#453,#454,#462,#468));
#453 = ORIENTED_EDGE('',*,*,#318,.T.);
#454 = ORIENTED_EDGE('',*,*,#455,.T.);
#455 = EDGE_CURVE('',#311,#456,#458,.T.);
#456 = VERTEX_POINT('',#457);
#457 = CARTESIAN_POINT('',(28.,17.,-4.5));
#458 = LINE('',#459,#460);
#459 = CARTESIAN_POINT('',(28.,-50.82893653003,-4.5));
#460 = VECTOR('',#461,1.);
#461 = DIRECTION('',(0.,1.,0.));
#462 = ORIENTED_EDGE('',*,*,#463,.F.);
#463 = EDGE_CURVE('',#133,#456,#464,.T.);
#464 = LINE('',#465,#466);
#465 = CARTESIAN_POINT('',(28.,17.,0.));
#466 = VECTOR('',#467,1.);
#467 = DIRECTION('',(-0.,-0.,-1.));
#468 = ORIENTED_EDGE('',*,*,#132,.F.);
#469 = PLANE('',#470);
#470 = AXIS2_PLACEMENT_3D('',#471,#472,#473);
#471 = CARTESIAN_POINT('',(28.,-50.82893653003,0.));
#472 = DIRECTION('',(1.,0.,0.));
#473 = DIRECTION('',(0.,1.,0.));
#474 = ADVANCED_FACE('',(#475),#493,.T.);
#475 = FACE_BOUND('',#476,.T.);
#476 = EDGE_LOOP('',(#477,#478,#486,#492));
#477 = ORIENTED_EDGE('',*,*,#463,.T.);
#478 = ORIENTED_EDGE('',*,*,#479,.T.);
#479 = EDGE_CURVE('',#456,#480,#482,.T.);
#480 = VERTEX_POINT('',#481);
#481 = CARTESIAN_POINT('',(22.,23.,-4.5));
#482 = LINE('',#483,#484);
#483 = CARTESIAN_POINT('',(28.,17.,-4.5));
#484 = VECTOR('',#485,1.);
#485 = DIRECTION('',(-0.707106781187,0.707106781187,0.));
#486 = ORIENTED_EDGE('',*,*,#487,.F.);
#487 = EDGE_CURVE('',#141,#480,#488,.T.);
#488 = LINE('',#489,#490);
#489 = CARTESIAN_POINT('',(22.,23.,0.));
#490 = VECTOR('',#491,1.);
#491 = DIRECTION('',(-0.,-0.,-1.));
#492 = ORIENTED_EDGE('',*,*,#140,.F.);
#493 = PLANE('',#494);
#494 = AXIS2_PLACEMENT_3D('',#495,#496,#497);
#495 = CARTESIAN_POINT('',(28.,17.,0.));
#496 = DIRECTION('',(0.707106781187,0.707106781187,0.));
#497 = DIRECTION('',(-0.707106781187,0.707106781187,0.));
#498 = ADVANCED_FACE('',(#499),#517,.T.);
#499 = FACE_BOUND('',#500,.T.);
#500 = EDGE_LOOP('',(#501,#502,#510,#516));
#501 = ORIENTED_EDGE('',*,*,#487,.T.);
#502 = ORIENTED_EDGE('',*,*,#503,.T.);
#503 = EDGE_CURVE('',#480,#504,#506,.T.);
#504 = VERTEX_POINT('',#505);
#505 = CARTESIAN_POINT('',(-22.,23.,-4.5));
#506 = LINE('',#507,#508);
#507 = CARTESIAN_POINT('',(22.,23.,-4.5));
#508 = VECTOR('',#509,1.);
#509 = DIRECTION('',(-1.,0.,0.));
#510 = ORIENTED_EDGE('',*,*,#511,.F.);
#511 = EDGE_CURVE('',#149,#504,#512,.T.);
#512 = LINE('',#513,#514);
#513 = CARTESIAN_POINT('',(-22.,23.,0.));
#514 = VECTOR('',#515,1.);
#515 = DIRECTION('',(-0.,-0.,-1.));
#516 = ORIENTED_EDGE('',*,*,#148,.F.);
#517 = PLANE('',#518);
#518 = AXIS2_PLACEMENT_3D('',#519,#520,#521);
#519 = CARTESIAN_POINT('',(22.,23.,0.));
#520 = DIRECTION('',(0.,1.,0.));
#521 = DIRECTION('',(-1.,0.,0.));
#522 = ADVANCED_FACE('',(#523),#534,.T.);
#523 = FACE_BOUND('',#524,.T.);
#524 = EDGE_LOOP('',(#525,#526,#532,#533));
#525 = ORIENTED_EDGE('',*,*,#511,.T.);
#526 = ORIENTED_EDGE('',*,*,#527,.T.);
#527 = EDGE_CURVE('',#504,#334,#528,.T.);
#528 = LINE('',#529,#530);
#529 = CARTESIAN_POINT('',(-22.,23.,-4.5));
#530 = VECTOR('',#531,1.);
#531 = DIRECTION('',(-0.707106781187,-0.707106781187,0.));
#532 = ORIENTED_EDGE('',*,*,#333,.F.);
#533 = ORIENTED_EDGE('',*,*,#156,.F.);
#534 = PLANE('',#535);
#535 = AXIS2_PLACEMENT_3D('',#536,#537,#538);
#536 = CARTESIAN_POINT('',(-22.,23.,0.));
#537 = DIRECTION('',(-0.707106781187,0.707106781187,0.));
#538 = DIRECTION('',(-0.707106781187,-0.707106781187,0.));
#539 = ADVANCED_FACE('',(#540),#565,.F.);
#540 = FACE_BOUND('',#541,.F.);
#541 = EDGE_LOOP('',(#542,#543,#551,#559));
#542 = ORIENTED_EDGE('',*,*,#173,.F.);
#543 = ORIENTED_EDGE('',*,*,#544,.T.);
#544 = EDGE_CURVE('',#174,#545,#547,.T.);
#545 = VERTEX_POINT('',#546);
#546 = CARTESIAN_POINT('',(-21.17157287525,-54.82893653003,-4.));
#547 = LINE('',#548,#549);
#548 = CARTESIAN_POINT('',(-21.17157287525,-54.82893653003,0.));
#549 = VECTOR('',#550,1.);
#550 = DIRECTION('',(0.,0.,-1.));
#551 = ORIENTED_EDGE('',*,*,#552,.F.);
#552 = EDGE_CURVE('',#553,#545,#555,.T.);
#553 = VERTEX_POINT('',#554);
#554 = CARTESIAN_POINT('',(21.171572875254,-54.82893653003,-4.));
#555 = LINE('',#556,#557);
#556 = CARTESIAN_POINT('',(-11.,-54.82893653003,-4.));
#557 = VECTOR('',#558,1.);
#558 = DIRECTION('',(-1.,3.229739708E-16,0.));
#559 = ORIENTED_EDGE('',*,*,#560,.T.);
#560 = EDGE_CURVE('',#553,#176,#561,.T.);
#561 = LINE('',#562,#563);
#562 = CARTESIAN_POINT('',(21.171572875254,-54.82893653003,0.));
#563 = VECTOR('',#564,1.);
#564 = DIRECTION('',(0.,0.,1.));
#565 = PLANE('',#566);
#566 = AXIS2_PLACEMENT_3D('',#567,#568,#569);
#567 = CARTESIAN_POINT('',(-22.,-54.82893653003,0.));
#568 = DIRECTION('',(-3.229739708E-16,-1.,0.));
#569 = DIRECTION('',(1.,-3.229739708E-16,0.));
#570 = ADVANCED_FACE('',(#571),#589,.F.);
#571 = FACE_BOUND('',#572,.F.);
#572 = EDGE_LOOP('',(#573,#574,#582,#588));
#573 = ORIENTED_EDGE('',*,*,#183,.F.);
#574 = ORIENTED_EDGE('',*,*,#575,.F.);
#575 = EDGE_CURVE('',#576,#184,#578,.T.);
#576 = VERTEX_POINT('',#577);
#577 = CARTESIAN_POINT('',(-26.,-50.00050940528,-4.));
#578 = LINE('',#579,#580);
#579 = CARTESIAN_POINT('',(-26.,-50.00050940528,0.));
#580 = VECTOR('',#581,1.);
#581 = DIRECTION('',(0.,0.,1.));
#582 = ORIENTED_EDGE('',*,*,#583,.F.);
#583 = EDGE_CURVE('',#545,#576,#584,.T.);
#584 = LINE('',#585,#586);
#585 = CARTESIAN_POINT('',(-28.06440350388,-47.9361059014,-4.));
#586 = VECTOR('',#587,1.);
#587 = DIRECTION('',(-0.707106781187,0.707106781187,0.));
#588 = ORIENTED_EDGE('',*,*,#544,.F.);
#589 = PLANE('',#590);
#590 = AXIS2_PLACEMENT_3D('',#591,#592,#593);
#591 = CARTESIAN_POINT('',(-26.58578643762,-49.41472296765,0.));
#592 = DIRECTION('',(-0.707106781187,-0.707106781187,0.));
#593 = DIRECTION('',(0.707106781187,-0.707106781187,0.));
#594 = ADVANCED_FACE('',(#595),#620,.F.);
#595 = FACE_BOUND('',#596,.F.);
#596 = EDGE_LOOP('',(#597,#598,#606,#614));
#597 = ORIENTED_EDGE('',*,*,#207,.F.);
#598 = ORIENTED_EDGE('',*,*,#599,.F.);
#599 = EDGE_CURVE('',#600,#208,#602,.T.);
#600 = VERTEX_POINT('',#601);
#601 = CARTESIAN_POINT('',(-26.,16.171572875254,-4.));
#602 = LINE('',#603,#604);
#603 = CARTESIAN_POINT('',(-26.,16.171572875254,0.));
#604 = VECTOR('',#605,1.);
#605 = DIRECTION('',(0.,0.,1.));
#606 = ORIENTED_EDGE('',*,*,#607,.F.);
#607 = EDGE_CURVE('',#608,#600,#610,.T.);
#608 = VERTEX_POINT('',#609);
#609 = CARTESIAN_POINT('',(-26.,-42.34,-4.));
#610 = LINE('',#611,#612);
#611 = CARTESIAN_POINT('',(-26.,4.276586749243E-02,-4.));
#612 = VECTOR('',#613,1.);
#613 = DIRECTION('',(0.,1.,0.));
#614 = ORIENTED_EDGE('',*,*,#615,.F.);
#615 = EDGE_CURVE('',#200,#608,#616,.T.);
#616 = LINE('',#617,#618);
#617 = CARTESIAN_POINT('',(-26.,-42.34,7.204108734824));
#618 = VECTOR('',#619,1.);
#619 = DIRECTION('',(0.,0.,-1.));
#620 = PLANE('',#621);
#621 = AXIS2_PLACEMENT_3D('',#622,#623,#624);
#622 = CARTESIAN_POINT('',(-26.,17.,0.));
#623 = DIRECTION('',(-1.,0.,0.));
#624 = DIRECTION('',(0.,-1.,0.));
#625 = ADVANCED_FACE('',(#626,#651),#701,.F.);
#626 = FACE_BOUND('',#627,.F.);
#627 = EDGE_LOOP('',(#628,#636,#637,#645));
#628 = ORIENTED_EDGE('',*,*,#629,.F.);
#629 = EDGE_CURVE('',#192,#630,#632,.T.);
#630 = VERTEX_POINT('',#631);
#631 = CARTESIAN_POINT('',(-26.,-49.34,4.656318499632));
#632 = LINE('',#633,#634);
#633 = CARTESIAN_POINT('',(-26.,-49.34,-4.));
#634 = VECTOR('',#635,1.);
#635 = DIRECTION('',(0.,0.,1.));
#636 = ORIENTED_EDGE('',*,*,#199,.F.);
#637 = ORIENTED_EDGE('',*,*,#638,.F.);
#638 = EDGE_CURVE('',#639,#200,#641,.T.);
#639 = VERTEX_POINT('',#640);
#640 = CARTESIAN_POINT('',(-26.,-42.34,7.204108734824));
#641 = LINE('',#642,#643);
#642 = CARTESIAN_POINT('',(-26.,-42.34,7.204108734824));
#643 = VECTOR('',#644,1.);
#644 = DIRECTION('',(0.,0.,-1.));
#645 = ORIENTED_EDGE('',*,*,#646,.F.);
#646 = EDGE_CURVE('',#630,#639,#647,.T.);
#647 = LINE('',#648,#649);
#648 = CARTESIAN_POINT('',(-26.,-49.34,4.656318499632));
#649 = VECTOR('',#650,1.);
#650 = DIRECTION('',(0.,0.93969268139,0.342019976818));
#651 = FACE_BOUND('',#652,.F.);
#652 = EDGE_LOOP('',(#653,#663,#671,#679,#687,#695));
#653 = ORIENTED_EDGE('',*,*,#654,.T.);
#654 = EDGE_CURVE('',#655,#657,#659,.T.);
#655 = VERTEX_POINT('',#656);
#656 = CARTESIAN_POINT('',(-26.,-47.84,1.845299461621));
#657 = VERTEX_POINT('',#658);
#658 = CARTESIAN_POINT('',(-26.,-47.84,4.15470053838));
#659 = LINE('',#660,#661);
#660 = CARTESIAN_POINT('',(-26.,-47.84,1.845299461621));
#661 = VECTOR('',#662,1.);
#662 = DIRECTION('',(0.,0.,1.));
#663 = ORIENTED_EDGE('',*,*,#664,.T.);
#664 = EDGE_CURVE('',#657,#665,#667,.T.);
#665 = VERTEX_POINT('',#666);
#666 = CARTESIAN_POINT('',(-26.,-45.84,5.309401071456));
#667 = LINE('',#668,#669);
#668 = CARTESIAN_POINT('',(-26.,-47.84,4.15470053838));
#669 = VECTOR('',#670,1.);
#670 = DIRECTION('',(0.,0.866025404779,0.499999998278));
#671 = ORIENTED_EDGE('',*,*,#672,.T.);
#672 = EDGE_CURVE('',#665,#673,#675,.T.);
#673 = VERTEX_POINT('',#674);
#674 = CARTESIAN_POINT('',(-26.,-43.84,4.154700538379));
#675 = LINE('',#676,#677);
#676 = CARTESIAN_POINT('',(-26.,-45.84,5.309401071456));
#677 = VECTOR('',#678,1.);
#678 = DIRECTION('',(0.,0.866025404779,-0.499999998278));
#679 = ORIENTED_EDGE('',*,*,#680,.T.);
#680 = EDGE_CURVE('',#673,#681,#683,.T.);
#681 = VERTEX_POINT('',#682);
#682 = CARTESIAN_POINT('',(-26.,-43.84,1.845299461622));
#683 = LINE('',#684,#685);
#684 = CARTESIAN_POINT('',(-26.,-43.84,4.154700538379));
#685 = VECTOR('',#686,1.);
#686 = DIRECTION('',(0.,0.,-1.));
#687 = ORIENTED_EDGE('',*,*,#688,.T.);
#688 = EDGE_CURVE('',#681,#689,#691,.T.);
#689 = VERTEX_POINT('',#690);
#690 = CARTESIAN_POINT('',(-26.,-45.84,0.690598923241));
#691 = LINE('',#692,#693);
#692 = CARTESIAN_POINT('',(-26.,-43.84,1.845299461622));
#693 = VECTOR('',#694,1.);
#694 = DIRECTION('',(0.,-0.866025403784,-0.500000000001));
#695 = ORIENTED_EDGE('',*,*,#696,.T.);
#696 = EDGE_CURVE('',#689,#655,#697,.T.);
#697 = LINE('',#698,#699);
#698 = CARTESIAN_POINT('',(-26.,-45.84,0.690598923241));
#699 = VECTOR('',#700,1.);
#700 = DIRECTION('',(0.,-0.866025403784,0.5));
#701 = PLANE('',#702);
#702 = AXIS2_PLACEMENT_3D('',#703,#704,#705);
#703 = CARTESIAN_POINT('',(-26.,-45.65486418939,1.630505810737));
#704 = DIRECTION('',(1.,0.,0.));
#705 = DIRECTION('',(0.,0.,1.));
#706 = ADVANCED_FACE('',(#707),#725,.F.);
#707 = FACE_BOUND('',#708,.F.);
#708 = EDGE_LOOP('',(#709,#710,#718,#724));
#709 = ORIENTED_EDGE('',*,*,#191,.F.);
#710 = ORIENTED_EDGE('',*,*,#711,.F.);
#711 = EDGE_CURVE('',#712,#192,#714,.T.);
#712 = VERTEX_POINT('',#713);
#713 = CARTESIAN_POINT('',(-26.,-49.34,-4.));
#714 = LINE('',#715,#716);
#715 = CARTESIAN_POINT('',(-26.,-49.34,-4.));
#716 = VECTOR('',#717,1.);
#717 = DIRECTION('',(0.,0.,1.));
#718 = ORIENTED_EDGE('',*,*,#719,.F.);
#719 = EDGE_CURVE('',#576,#712,#720,.T.);
#720 = LINE('',#721,#722);
#721 = CARTESIAN_POINT('',(-26.,4.276586749243E-02,-4.));
#722 = VECTOR('',#723,1.);
#723 = DIRECTION('',(0.,1.,0.));
#724 = ORIENTED_EDGE('',*,*,#575,.T.);
#725 = PLANE('',#726);
#726 = AXIS2_PLACEMENT_3D('',#727,#728,#729);
#727 = CARTESIAN_POINT('',(-26.,17.,0.));
#728 = DIRECTION('',(-1.,0.,0.));
#729 = DIRECTION('',(0.,-1.,0.));
#730 = ADVANCED_FACE('',(#731),#749,.F.);
#731 = FACE_BOUND('',#732,.F.);
#732 = EDGE_LOOP('',(#733,#734,#742,#748));
#733 = ORIENTED_EDGE('',*,*,#215,.F.);
#734 = ORIENTED_EDGE('',*,*,#735,.F.);
#735 = EDGE_CURVE('',#736,#216,#738,.T.);
#736 = VERTEX_POINT('',#737);
#737 = CARTESIAN_POINT('',(-21.17157287525,21.,-4.));
#738 = LINE('',#739,#740);
#739 = CARTESIAN_POINT('',(-21.17157287525,21.,0.));
#740 = VECTOR('',#741,1.);
#741 = DIRECTION('',(0.,0.,1.));
#742 = ORIENTED_EDGE('',*,*,#743,.F.);
#743 = EDGE_CURVE('',#600,#736,#744,.T.);
#744 = LINE('',#745,#746);
#745 = CARTESIAN_POINT('',(-25.06440350388,17.107169371373,-4.));
#746 = VECTOR('',#747,1.);
#747 = DIRECTION('',(0.707106781187,0.707106781187,0.));
#748 = ORIENTED_EDGE('',*,*,#599,.T.);
#749 = PLANE('',#750);
#750 = AXIS2_PLACEMENT_3D('',#751,#752,#753);
#751 = CARTESIAN_POINT('',(-20.58578643762,21.585786437627,0.));
#752 = DIRECTION('',(-0.707106781187,0.707106781187,0.));
#753 = DIRECTION('',(-0.707106781187,-0.707106781187,0.));
#754 = ADVANCED_FACE('',(#755),#780,.F.);
#755 = FACE_BOUND('',#756,.F.);
#756 = EDGE_LOOP('',(#757,#758,#766,#774));
#757 = ORIENTED_EDGE('',*,*,#255,.F.);
#758 = ORIENTED_EDGE('',*,*,#759,.F.);
#759 = EDGE_CURVE('',#760,#256,#762,.T.);
#760 = VERTEX_POINT('',#761);
#761 = CARTESIAN_POINT('',(21.171572875254,21.,-4.));
#762 = LINE('',#763,#764);
#763 = CARTESIAN_POINT('',(21.171572875254,21.,0.));
#764 = VECTOR('',#765,1.);
#765 = DIRECTION('',(0.,0.,1.));
#766 = ORIENTED_EDGE('',*,*,#767,.F.);
#767 = EDGE_CURVE('',#768,#760,#770,.T.);
#768 = VERTEX_POINT('',#769);
#769 = CARTESIAN_POINT('',(20.5,21.,-4.));
#770 = LINE('',#771,#772);
#771 = CARTESIAN_POINT('',(11.,21.,-4.));
#772 = VECTOR('',#773,1.);
#773 = DIRECTION('',(1.,0.,0.));
#774 = ORIENTED_EDGE('',*,*,#775,.F.);
#775 = EDGE_CURVE('',#248,#768,#776,.T.);
#776 = LINE('',#777,#778);
#777 = CARTESIAN_POINT('',(20.5,21.,6.5));
#778 = VECTOR('',#779,1.);
#779 = DIRECTION('',(0.,-2.22044604925E-16,-1.));
#780 = PLANE('',#781);
#781 = AXIS2_PLACEMENT_3D('',#782,#783,#784);
#782 = CARTESIAN_POINT('',(22.,21.,0.));
#783 = DIRECTION('',(0.,1.,0.));
#784 = DIRECTION('',(-1.,0.,0.));
#785 = ADVANCED_FACE('',(#786,#811),#861,.T.);
#786 = FACE_BOUND('',#787,.T.);
#787 = EDGE_LOOP('',(#788,#789,#797,#805));
#788 = ORIENTED_EDGE('',*,*,#247,.T.);
#789 = ORIENTED_EDGE('',*,*,#790,.T.);
#790 = EDGE_CURVE('',#240,#791,#793,.T.);
#791 = VERTEX_POINT('',#792);
#792 = CARTESIAN_POINT('',(13.5,21.,6.5));
#793 = LINE('',#794,#795);
#794 = CARTESIAN_POINT('',(13.5,21.,-4.));
#795 = VECTOR('',#796,1.);
#796 = DIRECTION('',(0.,2.22044604925E-16,1.));
#797 = ORIENTED_EDGE('',*,*,#798,.T.);
#798 = EDGE_CURVE('',#791,#799,#801,.T.);
#799 = VERTEX_POINT('',#800);
#800 = CARTESIAN_POINT('',(20.5,21.,6.5));
#801 = LINE('',#802,#803);
#802 = CARTESIAN_POINT('',(13.5,21.,6.5));
#803 = VECTOR('',#804,1.);
#804 = DIRECTION('',(1.,0.,0.));
#805 = ORIENTED_EDGE('',*,*,#806,.T.);
#806 = EDGE_CURVE('',#799,#248,#807,.T.);
#807 = LINE('',#808,#809);
#808 = CARTESIAN_POINT('',(20.5,21.,6.5));
#809 = VECTOR('',#810,1.);
#810 = DIRECTION('',(0.,-2.22044604925E-16,-1.));
#811 = FACE_BOUND('',#812,.T.);
#812 = EDGE_LOOP('',(#813,#823,#831,#839,#847,#855));
#813 = ORIENTED_EDGE('',*,*,#814,.F.);
#814 = EDGE_CURVE('',#815,#817,#819,.T.);
#815 = VERTEX_POINT('',#816);
#816 = CARTESIAN_POINT('',(15.,21.,1.845));
#817 = VERTEX_POINT('',#818);
#818 = CARTESIAN_POINT('',(15.,21.,4.155));
#819 = LINE('',#820,#821);
#820 = CARTESIAN_POINT('',(15.,21.,1.845));
#821 = VECTOR('',#822,1.);
#822 = DIRECTION('',(0.,2.22044604925E-16,1.));
#823 = ORIENTED_EDGE('',*,*,#824,.F.);
#824 = EDGE_CURVE('',#825,#815,#827,.T.);
#825 = VERTEX_POINT('',#826);
#826 = CARTESIAN_POINT('',(17.000518682742,21.,0.69));
#827 = LINE('',#828,#829);
#828 = CARTESIAN_POINT('',(17.000518682742,21.,0.69));
#829 = VECTOR('',#830,1.);
#830 = DIRECTION('',(-0.866025403784,1.110223024625E-16,0.5));
#831 = ORIENTED_EDGE('',*,*,#832,.F.);
#832 = EDGE_CURVE('',#833,#825,#835,.T.);
#833 = VERTEX_POINT('',#834);
#834 = CARTESIAN_POINT('',(19.001037365484,21.,1.845));
#835 = LINE('',#836,#837);
#836 = CARTESIAN_POINT('',(19.001037365484,21.,1.845));
#837 = VECTOR('',#838,1.);
#838 = DIRECTION('',(-0.866025403784,-1.110223024625E-16,-0.5));
#839 = ORIENTED_EDGE('',*,*,#840,.F.);
#840 = EDGE_CURVE('',#841,#833,#843,.T.);
#841 = VERTEX_POINT('',#842);
#842 = CARTESIAN_POINT('',(19.001037365484,21.,4.155));
#843 = LINE('',#844,#845);
#844 = CARTESIAN_POINT('',(19.001037365484,21.,4.155));
#845 = VECTOR('',#846,1.);
#846 = DIRECTION('',(0.,-2.22044604925E-16,-1.));
#847 = ORIENTED_EDGE('',*,*,#848,.F.);
#848 = EDGE_CURVE('',#849,#841,#851,.T.);
#849 = VERTEX_POINT('',#850);
#850 = CARTESIAN_POINT('',(17.000518682742,21.,5.31));
#851 = LINE('',#852,#853);
#852 = CARTESIAN_POINT('',(17.000518682742,21.,5.31));
#853 = VECTOR('',#854,1.);
#854 = DIRECTION('',(0.866025403784,-1.110223024625E-16,-0.5));
#855 = ORIENTED_EDGE('',*,*,#856,.F.);
#856 = EDGE_CURVE('',#817,#849,#857,.T.);
#857 = LINE('',#858,#859);
#858 = CARTESIAN_POINT('',(15.,21.,4.155));
#859 = VECTOR('',#860,1.);
#860 = DIRECTION('',(0.866025403784,1.110223024625E-16,0.5));
#861 = PLANE('',#862);
#862 = AXIS2_PLACEMENT_3D('',#863,#864,#865);
#863 = CARTESIAN_POINT('',(1.470831983908E-04,21.,1.74641835547));
#864 = DIRECTION('',(0.,1.,0.));
#865 = DIRECTION('',(0.,0.,1.));
#866 = ADVANCED_FACE('',(#867),#892,.F.);
#867 = FACE_BOUND('',#868,.F.);
#868 = EDGE_LOOP('',(#869,#870,#878,#886));
#869 = ORIENTED_EDGE('',*,*,#239,.F.);
#870 = ORIENTED_EDGE('',*,*,#871,.F.);
#871 = EDGE_CURVE('',#872,#240,#874,.T.);
#872 = VERTEX_POINT('',#873);
#873 = CARTESIAN_POINT('',(13.5,21.,-4.));
#874 = LINE('',#875,#876);
#875 = CARTESIAN_POINT('',(13.5,21.,-4.));
#876 = VECTOR('',#877,1.);
#877 = DIRECTION('',(0.,2.22044604925E-16,1.));
#878 = ORIENTED_EDGE('',*,*,#879,.F.);
#879 = EDGE_CURVE('',#880,#872,#882,.T.);
#880 = VERTEX_POINT('',#881);
#881 = CARTESIAN_POINT('',(-13.5,21.,-4.));
#882 = LINE('',#883,#884);
#883 = CARTESIAN_POINT('',(11.,21.,-4.));
#884 = VECTOR('',#885,1.);
#885 = DIRECTION('',(1.,0.,0.));
#886 = ORIENTED_EDGE('',*,*,#887,.F.);
#887 = EDGE_CURVE('',#232,#880,#888,.T.);
#888 = LINE('',#889,#890);
#889 = CARTESIAN_POINT('',(-13.5,21.,6.5));
#890 = VECTOR('',#891,1.);
#891 = DIRECTION('',(0.,-2.22044604925E-16,-1.));
#892 = PLANE('',#893);
#893 = AXIS2_PLACEMENT_3D('',#894,#895,#896);
#894 = CARTESIAN_POINT('',(22.,21.,0.));
#895 = DIRECTION('',(0.,1.,0.));
#896 = DIRECTION('',(-1.,0.,0.));
#897 = ADVANCED_FACE('',(#898,#923),#973,.T.);
#898 = FACE_BOUND('',#899,.T.);
#899 = EDGE_LOOP('',(#900,#901,#909,#917));
#900 = ORIENTED_EDGE('',*,*,#231,.T.);
#901 = ORIENTED_EDGE('',*,*,#902,.T.);
#902 = EDGE_CURVE('',#224,#903,#905,.T.);
#903 = VERTEX_POINT('',#904);
#904 = CARTESIAN_POINT('',(-20.5,21.,6.5));
#905 = LINE('',#906,#907);
#906 = CARTESIAN_POINT('',(-20.5,21.,-4.));
#907 = VECTOR('',#908,1.);
#908 = DIRECTION('',(0.,2.22044604925E-16,1.));
#909 = ORIENTED_EDGE('',*,*,#910,.T.);
#910 = EDGE_CURVE('',#903,#911,#913,.T.);
#911 = VERTEX_POINT('',#912);
#912 = CARTESIAN_POINT('',(-13.5,21.,6.5));
#913 = LINE('',#914,#915);
#914 = CARTESIAN_POINT('',(-20.5,21.,6.5));
#915 = VECTOR('',#916,1.);
#916 = DIRECTION('',(1.,0.,0.));
#917 = ORIENTED_EDGE('',*,*,#918,.T.);
#918 = EDGE_CURVE('',#911,#232,#919,.T.);
#919 = LINE('',#920,#921);
#920 = CARTESIAN_POINT('',(-13.5,21.,6.5));
#921 = VECTOR('',#922,1.);
#922 = DIRECTION('',(0.,-2.22044604925E-16,-1.));
#923 = FACE_BOUND('',#924,.T.);
#924 = EDGE_LOOP('',(#925,#935,#943,#951,#959,#967));
#925 = ORIENTED_EDGE('',*,*,#926,.F.);
#926 = EDGE_CURVE('',#927,#929,#931,.T.);
#927 = VERTEX_POINT('',#928);
#928 = CARTESIAN_POINT('',(-19.,21.,1.845000204839));
#929 = VERTEX_POINT('',#930);
#930 = CARTESIAN_POINT('',(-19.,21.,4.155000204839));
#931 = LINE('',#932,#933);
#932 = CARTESIAN_POINT('',(-19.,21.,1.845000204839));
#933 = VECTOR('',#934,1.);
#934 = DIRECTION('',(0.,2.22044604925E-16,1.));
#935 = ORIENTED_EDGE('',*,*,#936,.F.);
#936 = EDGE_CURVE('',#937,#927,#939,.T.);
#937 = VERTEX_POINT('',#938);
#938 = CARTESIAN_POINT('',(-16.9994804894,21.,0.69));
#939 = LINE('',#940,#941);
#940 = CARTESIAN_POINT('',(-16.9994804894,21.,0.69));
#941 = VECTOR('',#942,1.);
#942 = DIRECTION('',(-0.866025454981,1.110222827727E-16,0.499999911325)
  );
#943 = ORIENTED_EDGE('',*,*,#944,.F.);
#944 = EDGE_CURVE('',#945,#937,#947,.T.);
#945 = VERTEX_POINT('',#946);
#946 = CARTESIAN_POINT('',(-14.99896239798,21.,1.845000204839));
#947 = LINE('',#948,#949);
#948 = CARTESIAN_POINT('',(-14.99896239798,21.,1.845000204839));
#949 = VECTOR('',#950,1.);
#950 = DIRECTION('',(-0.866025301391,-1.110223418422E-16,-0.50000017735)
  );
#951 = ORIENTED_EDGE('',*,*,#952,.F.);
#952 = EDGE_CURVE('',#953,#945,#955,.T.);
#953 = VERTEX_POINT('',#954);
#954 = CARTESIAN_POINT('',(-14.99896239798,21.,4.155000204839));
#955 = LINE('',#956,#957);
#956 = CARTESIAN_POINT('',(-14.99896239798,21.,4.155000204839));
#957 = VECTOR('',#958,1.);
#958 = DIRECTION('',(0.,-2.22044604925E-16,-1.));
#959 = ORIENTED_EDGE('',*,*,#960,.F.);
#960 = EDGE_CURVE('',#961,#953,#963,.T.);
#961 = VERTEX_POINT('',#962);
#962 = CARTESIAN_POINT('',(-16.99948119899,21.,5.31));
#963 = LINE('',#964,#965);
#964 = CARTESIAN_POINT('',(-16.99948119899,21.,5.31));
#965 = VECTOR('',#966,1.);
#966 = DIRECTION('',(0.866025454981,-1.110222827727E-16,-0.499999911325)
  );
#967 = ORIENTED_EDGE('',*,*,#968,.F.);
#968 = EDGE_CURVE('',#929,#961,#969,.T.);
#969 = LINE('',#970,#971);
#970 = CARTESIAN_POINT('',(-19.,21.,4.155000204839));
#971 = VECTOR('',#972,1.);
#972 = DIRECTION('',(0.866025454981,1.110222827727E-16,0.499999911325));
#973 = PLANE('',#974);
#974 = AXIS2_PLACEMENT_3D('',#975,#976,#977);
#975 = CARTESIAN_POINT('',(1.470831983908E-04,21.,1.74641835547));
#976 = DIRECTION('',(0.,1.,0.));
#977 = DIRECTION('',(0.,0.,1.));
#978 = ADVANCED_FACE('',(#979),#997,.F.);
#979 = FACE_BOUND('',#980,.F.);
#980 = EDGE_LOOP('',(#981,#982,#990,#996));
#981 = ORIENTED_EDGE('',*,*,#223,.F.);
#982 = ORIENTED_EDGE('',*,*,#983,.F.);
#983 = EDGE_CURVE('',#984,#224,#986,.T.);
#984 = VERTEX_POINT('',#985);
#985 = CARTESIAN_POINT('',(-20.5,21.,-4.));
#986 = LINE('',#987,#988);
#987 = CARTESIAN_POINT('',(-20.5,21.,-4.));
#988 = VECTOR('',#989,1.);
#989 = DIRECTION('',(0.,2.22044604925E-16,1.));
#990 = ORIENTED_EDGE('',*,*,#991,.F.);
#991 = EDGE_CURVE('',#736,#984,#992,.T.);
#992 = LINE('',#993,#994);
#993 = CARTESIAN_POINT('',(11.,21.,-4.));
#994 = VECTOR('',#995,1.);
#995 = DIRECTION('',(1.,0.,0.));
#996 = ORIENTED_EDGE('',*,*,#735,.T.);
#997 = PLANE('',#998);
#998 = AXIS2_PLACEMENT_3D('',#999,#1000,#1001);
#999 = CARTESIAN_POINT('',(22.,21.,0.));
#1000 = DIRECTION('',(0.,1.,0.));
#1001 = DIRECTION('',(-1.,0.,0.));
#1002 = ADVANCED_FACE('',(#1003),#1021,.F.);
#1003 = FACE_BOUND('',#1004,.F.);
#1004 = EDGE_LOOP('',(#1005,#1006,#1014,#1020));
#1005 = ORIENTED_EDGE('',*,*,#263,.F.);
#1006 = ORIENTED_EDGE('',*,*,#1007,.F.);
#1007 = EDGE_CURVE('',#1008,#264,#1010,.T.);
#1008 = VERTEX_POINT('',#1009);
#1009 = CARTESIAN_POINT('',(26.,16.171572875254,-4.));
#1010 = LINE('',#1011,#1012);
#1011 = CARTESIAN_POINT('',(26.,16.171572875254,0.));
#1012 = VECTOR('',#1013,1.);
#1013 = DIRECTION('',(0.,0.,1.));
#1014 = ORIENTED_EDGE('',*,*,#1015,.F.);
#1015 = EDGE_CURVE('',#760,#1008,#1016,.T.);
#1016 = LINE('',#1017,#1018);
#1017 = CARTESIAN_POINT('',(28.064403503881,14.107169371373,-4.));
#1018 = VECTOR('',#1019,1.);
#1019 = DIRECTION('',(0.707106781187,-0.707106781187,0.));
#1020 = ORIENTED_EDGE('',*,*,#759,.T.);
#1021 = PLANE('',#1022);
#1022 = AXIS2_PLACEMENT_3D('',#1023,#1024,#1025);
#1023 = CARTESIAN_POINT('',(26.585786437627,15.585786437627,0.));
#1024 = DIRECTION('',(0.707106781187,0.707106781187,0.));
#1025 = DIRECTION('',(-0.707106781187,0.707106781187,0.));
#1026 = ADVANCED_FACE('',(#1027),#1052,.F.);
#1027 = FACE_BOUND('',#1028,.F.);
#1028 = EDGE_LOOP('',(#1029,#1030,#1038,#1046));
#1029 = ORIENTED_EDGE('',*,*,#287,.F.);
#1030 = ORIENTED_EDGE('',*,*,#1031,.F.);
#1031 = EDGE_CURVE('',#1032,#288,#1034,.T.);
#1032 = VERTEX_POINT('',#1033);
#1033 = CARTESIAN_POINT('',(26.,-50.00050940528,-4.));
#1034 = LINE('',#1035,#1036);
#1035 = CARTESIAN_POINT('',(26.,-50.00050940528,0.));
#1036 = VECTOR('',#1037,1.);
#1037 = DIRECTION('',(0.,0.,1.));
#1038 = ORIENTED_EDGE('',*,*,#1039,.F.);
#1039 = EDGE_CURVE('',#1040,#1032,#1042,.T.);
#1040 = VERTEX_POINT('',#1041);
#1041 = CARTESIAN_POINT('',(26.,-49.34,-4.));
#1042 = LINE('',#1043,#1044);
#1043 = CARTESIAN_POINT('',(26.,-33.87170239752,-4.));
#1044 = VECTOR('',#1045,1.);
#1045 = DIRECTION('',(0.,-1.,0.));
#1046 = ORIENTED_EDGE('',*,*,#1047,.F.);
#1047 = EDGE_CURVE('',#280,#1040,#1048,.T.);
#1048 = LINE('',#1049,#1050);
#1049 = CARTESIAN_POINT('',(26.,-49.34,4.656318499632));
#1050 = VECTOR('',#1051,1.);
#1051 = DIRECTION('',(0.,0.,-1.));
#1052 = PLANE('',#1053);
#1053 = AXIS2_PLACEMENT_3D('',#1054,#1055,#1056);
#1054 = CARTESIAN_POINT('',(26.,-50.82893653003,0.));
#1055 = DIRECTION('',(1.,0.,0.));
#1056 = DIRECTION('',(0.,1.,0.));
#1057 = ADVANCED_FACE('',(#1058,#1083),#1133,.T.);
#1058 = FACE_BOUND('',#1059,.T.);
#1059 = EDGE_LOOP('',(#1060,#1061,#1069,#1077));
#1060 = ORIENTED_EDGE('',*,*,#279,.T.);
#1061 = ORIENTED_EDGE('',*,*,#1062,.T.);
#1062 = EDGE_CURVE('',#272,#1063,#1065,.T.);
#1063 = VERTEX_POINT('',#1064);
#1064 = CARTESIAN_POINT('',(26.,-42.34,7.204108734824));
#1065 = LINE('',#1066,#1067);
#1066 = CARTESIAN_POINT('',(26.,-42.34,-4.));
#1067 = VECTOR('',#1068,1.);
#1068 = DIRECTION('',(0.,0.,1.));
#1069 = ORIENTED_EDGE('',*,*,#1070,.T.);
#1070 = EDGE_CURVE('',#1063,#1071,#1073,.T.);
#1071 = VERTEX_POINT('',#1072);
#1072 = CARTESIAN_POINT('',(26.,-49.34,4.656318499632));
#1073 = LINE('',#1074,#1075);
#1074 = CARTESIAN_POINT('',(26.,-42.34,7.204108734824));
#1075 = VECTOR('',#1076,1.);
#1076 = DIRECTION('',(0.,-0.93969268139,-0.342019976818));
#1077 = ORIENTED_EDGE('',*,*,#1078,.T.);
#1078 = EDGE_CURVE('',#1071,#280,#1079,.T.);
#1079 = LINE('',#1080,#1081);
#1080 = CARTESIAN_POINT('',(26.,-49.34,4.656318499632));
#1081 = VECTOR('',#1082,1.);
#1082 = DIRECTION('',(0.,0.,-1.));
#1083 = FACE_BOUND('',#1084,.T.);
#1084 = EDGE_LOOP('',(#1085,#1095,#1103,#1111,#1119,#1127));
#1085 = ORIENTED_EDGE('',*,*,#1086,.F.);
#1086 = EDGE_CURVE('',#1087,#1089,#1091,.T.);
#1087 = VERTEX_POINT('',#1088);
#1088 = CARTESIAN_POINT('',(26.,-45.84,5.309401071456));
#1089 = VERTEX_POINT('',#1090);
#1090 = CARTESIAN_POINT('',(26.,-47.84,4.15470053838));
#1091 = LINE('',#1092,#1093);
#1092 = CARTESIAN_POINT('',(26.,-45.84,5.309401071456));
#1093 = VECTOR('',#1094,1.);
#1094 = DIRECTION('',(0.,-0.866025404779,-0.499999998278));
#1095 = ORIENTED_EDGE('',*,*,#1096,.F.);
#1096 = EDGE_CURVE('',#1097,#1087,#1099,.T.);
#1097 = VERTEX_POINT('',#1098);
#1098 = CARTESIAN_POINT('',(26.,-43.84,4.154700538379));
#1099 = LINE('',#1100,#1101);
#1100 = CARTESIAN_POINT('',(26.,-43.84,4.154700538379));
#1101 = VECTOR('',#1102,1.);
#1102 = DIRECTION('',(0.,-0.866025404779,0.499999998278));
#1103 = ORIENTED_EDGE('',*,*,#1104,.F.);
#1104 = EDGE_CURVE('',#1105,#1097,#1107,.T.);
#1105 = VERTEX_POINT('',#1106);
#1106 = CARTESIAN_POINT('',(26.,-43.84,1.845299461622));
#1107 = LINE('',#1108,#1109);
#1108 = CARTESIAN_POINT('',(26.,-43.84,1.845299461622));
#1109 = VECTOR('',#1110,1.);
#1110 = DIRECTION('',(0.,0.,1.));
#1111 = ORIENTED_EDGE('',*,*,#1112,.F.);
#1112 = EDGE_CURVE('',#1113,#1105,#1115,.T.);
#1113 = VERTEX_POINT('',#1114);
#1114 = CARTESIAN_POINT('',(26.,-45.84,0.690598923241));
#1115 = LINE('',#1116,#1117);
#1116 = CARTESIAN_POINT('',(26.,-45.84,0.690598923241));
#1117 = VECTOR('',#1118,1.);
#1118 = DIRECTION('',(0.,0.866025403784,0.500000000001));
#1119 = ORIENTED_EDGE('',*,*,#1120,.F.);
#1120 = EDGE_CURVE('',#1121,#1113,#1123,.T.);
#1121 = VERTEX_POINT('',#1122);
#1122 = CARTESIAN_POINT('',(26.,-47.84,1.845299461621));
#1123 = LINE('',#1124,#1125);
#1124 = CARTESIAN_POINT('',(26.,-47.84,1.845299461621));
#1125 = VECTOR('',#1126,1.);
#1126 = DIRECTION('',(-0.,0.866025403784,-0.5));
#1127 = ORIENTED_EDGE('',*,*,#1128,.F.);
#1128 = EDGE_CURVE('',#1089,#1121,#1129,.T.);
#1129 = LINE('',#1130,#1131);
#1130 = CARTESIAN_POINT('',(26.,-47.84,4.15470053838));
#1131 = VECTOR('',#1132,1.);
#1132 = DIRECTION('',(0.,0.,-1.));
#1133 = PLANE('',#1134);
#1134 = AXIS2_PLACEMENT_3D('',#1135,#1136,#1137);
#1135 = CARTESIAN_POINT('',(26.,-45.65486418939,1.630505810737));
#1136 = DIRECTION('',(1.,0.,0.));
#1137 = DIRECTION('',(0.,0.,1.));
#1138 = ADVANCED_FACE('',(#1139),#1157,.F.);
#1139 = FACE_BOUND('',#1140,.F.);
#1140 = EDGE_LOOP('',(#1141,#1142,#1150,#1156));
#1141 = ORIENTED_EDGE('',*,*,#271,.F.);
#1142 = ORIENTED_EDGE('',*,*,#1143,.F.);
#1143 = EDGE_CURVE('',#1144,#272,#1146,.T.);
#1144 = VERTEX_POINT('',#1145);
#1145 = CARTESIAN_POINT('',(26.,-42.34,-4.));
#1146 = LINE('',#1147,#1148);
#1147 = CARTESIAN_POINT('',(26.,-42.34,-4.));
#1148 = VECTOR('',#1149,1.);
#1149 = DIRECTION('',(0.,0.,1.));
#1150 = ORIENTED_EDGE('',*,*,#1151,.F.);
#1151 = EDGE_CURVE('',#1008,#1144,#1152,.T.);
#1152 = LINE('',#1153,#1154);
#1153 = CARTESIAN_POINT('',(26.,-33.87170239752,-4.));
#1154 = VECTOR('',#1155,1.);
#1155 = DIRECTION('',(0.,-1.,0.));
#1156 = ORIENTED_EDGE('',*,*,#1007,.T.);
#1157 = PLANE('',#1158);
#1158 = AXIS2_PLACEMENT_3D('',#1159,#1160,#1161);
#1159 = CARTESIAN_POINT('',(26.,-50.82893653003,0.));
#1160 = DIRECTION('',(1.,0.,0.));
#1161 = DIRECTION('',(0.,1.,0.));
#1162 = ADVANCED_FACE('',(#1163),#1174,.F.);
#1163 = FACE_BOUND('',#1164,.F.);
#1164 = EDGE_LOOP('',(#1165,#1166,#1167,#1173));
#1165 = ORIENTED_EDGE('',*,*,#295,.F.);
#1166 = ORIENTED_EDGE('',*,*,#560,.F.);
#1167 = ORIENTED_EDGE('',*,*,#1168,.F.);
#1168 = EDGE_CURVE('',#1032,#553,#1169,.T.);
#1169 = LINE('',#1170,#1171);
#1170 = CARTESIAN_POINT('',(25.064403503881,-50.9361059014,-4.));
#1171 = VECTOR('',#1172,1.);
#1172 = DIRECTION('',(-0.707106781187,-0.707106781187,0.));
#1173 = ORIENTED_EDGE('',*,*,#1031,.T.);
#1174 = PLANE('',#1175);
#1175 = AXIS2_PLACEMENT_3D('',#1176,#1177,#1178);
#1176 = CARTESIAN_POINT('',(20.585786437627,-55.41472296765,0.));
#1177 = DIRECTION('',(0.707106781187,-0.707106781187,0.));
#1178 = DIRECTION('',(0.707106781187,0.707106781187,0.));
#1179 = ADVANCED_FACE('',(#1180),#1191,.F.);
#1180 = FACE_BOUND('',#1181,.T.);
#1181 = EDGE_LOOP('',(#1182,#1188,#1189,#1190));
#1182 = ORIENTED_EDGE('',*,*,#1183,.F.);
#1183 = EDGE_CURVE('',#408,#334,#1184,.T.);
#1184 = LINE('',#1185,#1186);
#1185 = CARTESIAN_POINT('',(-26.5,16.37867965644,-6.));
#1186 = VECTOR('',#1187,1.);
#1187 = DIRECTION('',(-0.678598344546,0.281084637715,0.678598344546));
#1188 = ORIENTED_EDGE('',*,*,#415,.T.);
#1189 = ORIENTED_EDGE('',*,*,#357,.F.);
#1190 = ORIENTED_EDGE('',*,*,#341,.F.);
#1191 = PLANE('',#1192);
#1192 = AXIS2_PLACEMENT_3D('',#1193,#1194,#1195);
#1193 = CARTESIAN_POINT('',(-27.25,17.,-5.25));
#1194 = DIRECTION('',(0.707106781187,-6.303869705843E-18,0.707106781187)
  );
#1195 = DIRECTION('',(4.457509016718E-18,1.,4.457509016718E-18));
#1196 = ADVANCED_FACE('',(#1197),#1208,.F.);
#1197 = FACE_BOUND('',#1198,.T.);
#1198 = EDGE_LOOP('',(#1199,#1200,#1201,#1207));
#1199 = ORIENTED_EDGE('',*,*,#439,.F.);
#1200 = ORIENTED_EDGE('',*,*,#381,.T.);
#1201 = ORIENTED_EDGE('',*,*,#1202,.T.);
#1202 = EDGE_CURVE('',#384,#456,#1203,.T.);
#1203 = LINE('',#1204,#1205);
#1204 = CARTESIAN_POINT('',(20.840289684396,14.034350884614,
    -11.6597103156));
#1205 = VECTOR('',#1206,1.);
#1206 = DIRECTION('',(0.678598344546,0.281084637715,0.678598344546));
#1207 = ORIENTED_EDGE('',*,*,#455,.F.);
#1208 = PLANE('',#1209);
#1209 = AXIS2_PLACEMENT_3D('',#1210,#1211,#1212);
#1210 = CARTESIAN_POINT('',(27.25,-50.82893653003,-5.25));
#1211 = DIRECTION('',(-0.707106781187,6.303869705843E-18,0.707106781187)
  );
#1212 = DIRECTION('',(-4.457509016718E-18,-1.,4.457509016718E-18));
#1213 = ADVANCED_FACE('',(#1214),#1225,.F.);
#1214 = FACE_BOUND('',#1215,.T.);
#1215 = EDGE_LOOP('',(#1216,#1217,#1218,#1224));
#1216 = ORIENTED_EDGE('',*,*,#1202,.F.);
#1217 = ORIENTED_EDGE('',*,*,#391,.T.);
#1218 = ORIENTED_EDGE('',*,*,#1219,.T.);
#1219 = EDGE_CURVE('',#392,#480,#1220,.T.);
#1220 = LINE('',#1221,#1222);
#1221 = CARTESIAN_POINT('',(21.37867965644,21.5,-6.));
#1222 = VECTOR('',#1223,1.);
#1223 = DIRECTION('',(0.281084637715,0.678598344546,0.678598344546));
#1224 = ORIENTED_EDGE('',*,*,#479,.F.);
#1225 = PLANE('',#1226);
#1226 = AXIS2_PLACEMENT_3D('',#1227,#1228,#1229);
#1227 = CARTESIAN_POINT('',(27.46966991411,16.46966991411,-5.25));
#1228 = DIRECTION('',(-0.5,-0.5,0.707106781187));
#1229 = DIRECTION('',(0.707106781187,-0.707106781187,2.22044604925E-16)
  );
#1230 = ADVANCED_FACE('',(#1231),#1242,.F.);
#1231 = FACE_BOUND('',#1232,.T.);
#1232 = EDGE_LOOP('',(#1233,#1234,#1235,#1241));
#1233 = ORIENTED_EDGE('',*,*,#1219,.F.);
#1234 = ORIENTED_EDGE('',*,*,#399,.T.);
#1235 = ORIENTED_EDGE('',*,*,#1236,.T.);
#1236 = EDGE_CURVE('',#400,#504,#1237,.T.);
#1237 = LINE('',#1238,#1239);
#1238 = CARTESIAN_POINT('',(-19.97569602695,18.112897893897,
    -9.387102106103));
#1239 = VECTOR('',#1240,1.);
#1240 = DIRECTION('',(-0.281084637715,0.678598344546,0.678598344546));
#1241 = ORIENTED_EDGE('',*,*,#503,.F.);
#1242 = PLANE('',#1243);
#1243 = AXIS2_PLACEMENT_3D('',#1244,#1245,#1246);
#1244 = CARTESIAN_POINT('',(22.,22.25,-5.25));
#1245 = DIRECTION('',(6.303869705843E-18,-0.707106781187,0.707106781187)
  );
#1246 = DIRECTION('',(1.,4.457509016718E-18,-4.457509016718E-18));
#1247 = ADVANCED_FACE('',(#1248),#1254,.F.);
#1248 = FACE_BOUND('',#1249,.T.);
#1249 = EDGE_LOOP('',(#1250,#1251,#1252,#1253));
#1250 = ORIENTED_EDGE('',*,*,#1236,.F.);
#1251 = ORIENTED_EDGE('',*,*,#407,.T.);
#1252 = ORIENTED_EDGE('',*,*,#1183,.T.);
#1253 = ORIENTED_EDGE('',*,*,#527,.F.);
#1254 = PLANE('',#1255);
#1255 = AXIS2_PLACEMENT_3D('',#1256,#1257,#1258);
#1256 = CARTESIAN_POINT('',(-21.46966991411,22.46966991411,-5.25));
#1257 = DIRECTION('',(0.5,-0.5,0.707106781187));
#1258 = DIRECTION('',(0.707106781187,0.707106781187,1.109335647967E-31)
  );
#1259 = ADVANCED_FACE('',(#1260),#1362,.T.);
#1260 = FACE_BOUND('',#1261,.T.);
#1261 = EDGE_LOOP('',(#1262,#1263,#1264,#1265,#1273,#1281,#1287,#1288,
    #1289,#1290,#1298,#1306,#1312,#1313,#1321,#1329,#1335,#1336,#1337,
    #1338,#1346,#1354,#1360,#1361));
#1262 = ORIENTED_EDGE('',*,*,#552,.F.);
#1263 = ORIENTED_EDGE('',*,*,#1168,.F.);
#1264 = ORIENTED_EDGE('',*,*,#1039,.F.);
#1265 = ORIENTED_EDGE('',*,*,#1266,.T.);
#1266 = EDGE_CURVE('',#1040,#1267,#1269,.T.);
#1267 = VERTEX_POINT('',#1268);
#1268 = CARTESIAN_POINT('',(24.4,-49.34,-4.));
#1269 = LINE('',#1270,#1271);
#1270 = CARTESIAN_POINT('',(26.,-49.34,-4.));
#1271 = VECTOR('',#1272,1.);
#1272 = DIRECTION('',(-1.,0.,0.));
#1273 = ORIENTED_EDGE('',*,*,#1274,.T.);
#1274 = EDGE_CURVE('',#1267,#1275,#1277,.T.);
#1275 = VERTEX_POINT('',#1276);
#1276 = CARTESIAN_POINT('',(24.4,-42.34,-4.));
#1277 = LINE('',#1278,#1279);
#1278 = CARTESIAN_POINT('',(24.4,-49.34,-4.));
#1279 = VECTOR('',#1280,1.);
#1280 = DIRECTION('',(0.,1.,0.));
#1281 = ORIENTED_EDGE('',*,*,#1282,.F.);
#1282 = EDGE_CURVE('',#1144,#1275,#1283,.T.);
#1283 = LINE('',#1284,#1285);
#1284 = CARTESIAN_POINT('',(26.,-42.34,-4.));
#1285 = VECTOR('',#1286,1.);
#1286 = DIRECTION('',(-1.,0.,0.));
#1287 = ORIENTED_EDGE('',*,*,#1151,.F.);
#1288 = ORIENTED_EDGE('',*,*,#1015,.F.);
#1289 = ORIENTED_EDGE('',*,*,#767,.F.);
#1290 = ORIENTED_EDGE('',*,*,#1291,.T.);
#1291 = EDGE_CURVE('',#768,#1292,#1294,.T.);
#1292 = VERTEX_POINT('',#1293);
#1293 = CARTESIAN_POINT('',(20.5,19.4,-4.));
#1294 = LINE('',#1295,#1296);
#1295 = CARTESIAN_POINT('',(20.5,21.,-4.));
#1296 = VECTOR('',#1297,1.);
#1297 = DIRECTION('',(0.,-1.,2.22044604925E-16));
#1298 = ORIENTED_EDGE('',*,*,#1299,.T.);
#1299 = EDGE_CURVE('',#1292,#1300,#1302,.T.);
#1300 = VERTEX_POINT('',#1301);
#1301 = CARTESIAN_POINT('',(13.5,19.4,-4.));
#1302 = LINE('',#1303,#1304);
#1303 = CARTESIAN_POINT('',(20.5,19.4,-4.));
#1304 = VECTOR('',#1305,1.);
#1305 = DIRECTION('',(-1.,0.,0.));
#1306 = ORIENTED_EDGE('',*,*,#1307,.F.);
#1307 = EDGE_CURVE('',#872,#1300,#1308,.T.);
#1308 = LINE('',#1309,#1310);
#1309 = CARTESIAN_POINT('',(13.5,21.,-4.));
#1310 = VECTOR('',#1311,1.);
#1311 = DIRECTION('',(0.,-1.,2.22044604925E-16));
#1312 = ORIENTED_EDGE('',*,*,#879,.F.);
#1313 = ORIENTED_EDGE('',*,*,#1314,.T.);
#1314 = EDGE_CURVE('',#880,#1315,#1317,.T.);
#1315 = VERTEX_POINT('',#1316);
#1316 = CARTESIAN_POINT('',(-13.5,19.4,-4.));
#1317 = LINE('',#1318,#1319);
#1318 = CARTESIAN_POINT('',(-13.5,21.,-4.));
#1319 = VECTOR('',#1320,1.);
#1320 = DIRECTION('',(0.,-1.,2.22044604925E-16));
#1321 = ORIENTED_EDGE('',*,*,#1322,.T.);
#1322 = EDGE_CURVE('',#1315,#1323,#1325,.T.);
#1323 = VERTEX_POINT('',#1324);
#1324 = CARTESIAN_POINT('',(-20.5,19.4,-4.));
#1325 = LINE('',#1326,#1327);
#1326 = CARTESIAN_POINT('',(-13.5,19.4,-4.));
#1327 = VECTOR('',#1328,1.);
#1328 = DIRECTION('',(-1.,0.,0.));
#1329 = ORIENTED_EDGE('',*,*,#1330,.F.);
#1330 = EDGE_CURVE('',#984,#1323,#1331,.T.);
#1331 = LINE('',#1332,#1333);
#1332 = CARTESIAN_POINT('',(-20.5,21.,-4.));
#1333 = VECTOR('',#1334,1.);
#1334 = DIRECTION('',(0.,-1.,2.22044604925E-16));
#1335 = ORIENTED_EDGE('',*,*,#991,.F.);
#1336 = ORIENTED_EDGE('',*,*,#743,.F.);
#1337 = ORIENTED_EDGE('',*,*,#607,.F.);
#1338 = ORIENTED_EDGE('',*,*,#1339,.T.);
#1339 = EDGE_CURVE('',#608,#1340,#1342,.T.);
#1340 = VERTEX_POINT('',#1341);
#1341 = CARTESIAN_POINT('',(-24.4,-42.34,-4.));
#1342 = LINE('',#1343,#1344);
#1343 = CARTESIAN_POINT('',(-26.,-42.34,-4.));
#1344 = VECTOR('',#1345,1.);
#1345 = DIRECTION('',(1.,0.,0.));
#1346 = ORIENTED_EDGE('',*,*,#1347,.T.);
#1347 = EDGE_CURVE('',#1340,#1348,#1350,.T.);
#1348 = VERTEX_POINT('',#1349);
#1349 = CARTESIAN_POINT('',(-24.4,-49.34,-4.));
#1350 = LINE('',#1351,#1352);
#1351 = CARTESIAN_POINT('',(-24.4,-42.34,-4.));
#1352 = VECTOR('',#1353,1.);
#1353 = DIRECTION('',(0.,-1.,-1.268826313857E-16));
#1354 = ORIENTED_EDGE('',*,*,#1355,.F.);
#1355 = EDGE_CURVE('',#712,#1348,#1356,.T.);
#1356 = LINE('',#1357,#1358);
#1357 = CARTESIAN_POINT('',(-26.,-49.34,-4.));
#1358 = VECTOR('',#1359,1.);
#1359 = DIRECTION('',(1.,0.,0.));
#1360 = ORIENTED_EDGE('',*,*,#719,.F.);
#1361 = ORIENTED_EDGE('',*,*,#583,.F.);
#1362 = PLANE('',#1363);
#1363 = AXIS2_PLACEMENT_3D('',#1364,#1365,#1366);
#1364 = CARTESIAN_POINT('',(1.875663581859E-15,-16.91446826501,-4.));
#1365 = DIRECTION('',(0.,0.,1.));
#1366 = DIRECTION('',(1.,0.,0.));
#1367 = ADVANCED_FACE('',(#1368),#1387,.T.);
#1368 = FACE_BOUND('',#1369,.T.);
#1369 = EDGE_LOOP('',(#1370,#1378,#1384,#1385,#1386));
#1370 = ORIENTED_EDGE('',*,*,#1371,.T.);
#1371 = EDGE_CURVE('',#639,#1372,#1374,.T.);
#1372 = VERTEX_POINT('',#1373);
#1373 = CARTESIAN_POINT('',(-24.4,-42.34,7.204108734824));
#1374 = LINE('',#1375,#1376);
#1375 = CARTESIAN_POINT('',(-26.,-42.34,7.204108734824));
#1376 = VECTOR('',#1377,1.);
#1377 = DIRECTION('',(1.,0.,0.));
#1378 = ORIENTED_EDGE('',*,*,#1379,.T.);
#1379 = EDGE_CURVE('',#1372,#1340,#1380,.T.);
#1380 = LINE('',#1381,#1382);
#1381 = CARTESIAN_POINT('',(-24.4,-42.34,7.204108734824));
#1382 = VECTOR('',#1383,1.);
#1383 = DIRECTION('',(0.,0.,-1.));
#1384 = ORIENTED_EDGE('',*,*,#1339,.F.);
#1385 = ORIENTED_EDGE('',*,*,#615,.F.);
#1386 = ORIENTED_EDGE('',*,*,#638,.F.);
#1387 = PLANE('',#1388);
#1388 = AXIS2_PLACEMENT_3D('',#1389,#1390,#1391);
#1389 = CARTESIAN_POINT('',(-26.,-42.34,7.204108734824));
#1390 = DIRECTION('',(0.,1.,0.));
#1391 = DIRECTION('',(0.,0.,-1.));
#1392 = ADVANCED_FACE('',(#1393),#1412,.T.);
#1393 = FACE_BOUND('',#1394,.T.);
#1394 = EDGE_LOOP('',(#1395,#1396,#1404,#1410,#1411));
#1395 = ORIENTED_EDGE('',*,*,#1355,.T.);
#1396 = ORIENTED_EDGE('',*,*,#1397,.T.);
#1397 = EDGE_CURVE('',#1348,#1398,#1400,.T.);
#1398 = VERTEX_POINT('',#1399);
#1399 = CARTESIAN_POINT('',(-24.4,-49.34,4.656318499632));
#1400 = LINE('',#1401,#1402);
#1401 = CARTESIAN_POINT('',(-24.4,-49.34,-4.));
#1402 = VECTOR('',#1403,1.);
#1403 = DIRECTION('',(0.,0.,1.));
#1404 = ORIENTED_EDGE('',*,*,#1405,.F.);
#1405 = EDGE_CURVE('',#630,#1398,#1406,.T.);
#1406 = LINE('',#1407,#1408);
#1407 = CARTESIAN_POINT('',(-26.,-49.34,4.656318499632));
#1408 = VECTOR('',#1409,1.);
#1409 = DIRECTION('',(1.,0.,0.));
#1410 = ORIENTED_EDGE('',*,*,#629,.F.);
#1411 = ORIENTED_EDGE('',*,*,#711,.F.);
#1412 = PLANE('',#1413);
#1413 = AXIS2_PLACEMENT_3D('',#1414,#1415,#1416);
#1414 = CARTESIAN_POINT('',(-26.,-49.34,-4.));
#1415 = DIRECTION('',(0.,-1.,0.));
#1416 = DIRECTION('',(0.,0.,1.));
#1417 = ADVANCED_FACE('',(#1418),#1429,.T.);
#1418 = FACE_BOUND('',#1419,.T.);
#1419 = EDGE_LOOP('',(#1420,#1421,#1427,#1428));
#1420 = ORIENTED_EDGE('',*,*,#1405,.T.);
#1421 = ORIENTED_EDGE('',*,*,#1422,.T.);
#1422 = EDGE_CURVE('',#1398,#1372,#1423,.T.);
#1423 = LINE('',#1424,#1425);
#1424 = CARTESIAN_POINT('',(-24.4,-49.34,4.656318499632));
#1425 = VECTOR('',#1426,1.);
#1426 = DIRECTION('',(0.,0.93969268139,0.342019976818));
#1427 = ORIENTED_EDGE('',*,*,#1371,.F.);
#1428 = ORIENTED_EDGE('',*,*,#646,.F.);
#1429 = PLANE('',#1430);
#1430 = AXIS2_PLACEMENT_3D('',#1431,#1432,#1433);
#1431 = CARTESIAN_POINT('',(-26.,-49.34,4.656318499632));
#1432 = DIRECTION('',(0.,-0.342019976818,0.93969268139));
#1433 = DIRECTION('',(0.,0.93969268139,0.342019976818));
#1434 = ADVANCED_FACE('',(#1435),#1460,.F.);
#1435 = FACE_BOUND('',#1436,.F.);
#1436 = EDGE_LOOP('',(#1437,#1445,#1453,#1459));
#1437 = ORIENTED_EDGE('',*,*,#1438,.T.);
#1438 = EDGE_CURVE('',#655,#1439,#1441,.T.);
#1439 = VERTEX_POINT('',#1440);
#1440 = CARTESIAN_POINT('',(-24.4,-47.84,1.845299461621));
#1441 = LINE('',#1442,#1443);
#1442 = CARTESIAN_POINT('',(-26.,-47.84,1.845299461621));
#1443 = VECTOR('',#1444,1.);
#1444 = DIRECTION('',(1.,0.,0.));
#1445 = ORIENTED_EDGE('',*,*,#1446,.T.);
#1446 = EDGE_CURVE('',#1439,#1447,#1449,.T.);
#1447 = VERTEX_POINT('',#1448);
#1448 = CARTESIAN_POINT('',(-24.4,-47.84,4.15470053838));
#1449 = LINE('',#1450,#1451);
#1450 = CARTESIAN_POINT('',(-24.4,-47.84,1.845299461621));
#1451 = VECTOR('',#1452,1.);
#1452 = DIRECTION('',(0.,0.,1.));
#1453 = ORIENTED_EDGE('',*,*,#1454,.F.);
#1454 = EDGE_CURVE('',#657,#1447,#1455,.T.);
#1455 = LINE('',#1456,#1457);
#1456 = CARTESIAN_POINT('',(-26.,-47.84,4.15470053838));
#1457 = VECTOR('',#1458,1.);
#1458 = DIRECTION('',(1.,0.,0.));
#1459 = ORIENTED_EDGE('',*,*,#654,.F.);
#1460 = PLANE('',#1461);
#1461 = AXIS2_PLACEMENT_3D('',#1462,#1463,#1464);
#1462 = CARTESIAN_POINT('',(-26.,-47.84,1.845299461621));
#1463 = DIRECTION('',(0.,-1.,0.));
#1464 = DIRECTION('',(0.,0.,1.));
#1465 = ADVANCED_FACE('',(#1466),#1484,.F.);
#1466 = FACE_BOUND('',#1467,.F.);
#1467 = EDGE_LOOP('',(#1468,#1476,#1482,#1483));
#1468 = ORIENTED_EDGE('',*,*,#1469,.T.);
#1469 = EDGE_CURVE('',#689,#1470,#1472,.T.);
#1470 = VERTEX_POINT('',#1471);
#1471 = CARTESIAN_POINT('',(-24.4,-45.84,0.690598923241));
#1472 = LINE('',#1473,#1474);
#1473 = CARTESIAN_POINT('',(-26.,-45.84,0.690598923241));
#1474 = VECTOR('',#1475,1.);
#1475 = DIRECTION('',(1.,0.,0.));
#1476 = ORIENTED_EDGE('',*,*,#1477,.T.);
#1477 = EDGE_CURVE('',#1470,#1439,#1478,.T.);
#1478 = LINE('',#1479,#1480);
#1479 = CARTESIAN_POINT('',(-24.4,-45.84,0.690598923241));
#1480 = VECTOR('',#1481,1.);
#1481 = DIRECTION('',(0.,-0.866025403784,0.5));
#1482 = ORIENTED_EDGE('',*,*,#1438,.F.);
#1483 = ORIENTED_EDGE('',*,*,#696,.F.);
#1484 = PLANE('',#1485);
#1485 = AXIS2_PLACEMENT_3D('',#1486,#1487,#1488);
#1486 = CARTESIAN_POINT('',(-26.,-45.84,0.690598923241));
#1487 = DIRECTION('',(0.,-0.5,-0.866025403784));
#1488 = DIRECTION('',(0.,-0.866025403784,0.5));
#1489 = ADVANCED_FACE('',(#1490),#1508,.F.);
#1490 = FACE_BOUND('',#1491,.F.);
#1491 = EDGE_LOOP('',(#1492,#1493,#1501,#1507));
#1492 = ORIENTED_EDGE('',*,*,#1454,.T.);
#1493 = ORIENTED_EDGE('',*,*,#1494,.T.);
#1494 = EDGE_CURVE('',#1447,#1495,#1497,.T.);
#1495 = VERTEX_POINT('',#1496);
#1496 = CARTESIAN_POINT('',(-24.4,-45.84,5.309401071456));
#1497 = LINE('',#1498,#1499);
#1498 = CARTESIAN_POINT('',(-24.4,-47.84,4.15470053838));
#1499 = VECTOR('',#1500,1.);
#1500 = DIRECTION('',(0.,0.866025404779,0.499999998278));
#1501 = ORIENTED_EDGE('',*,*,#1502,.F.);
#1502 = EDGE_CURVE('',#665,#1495,#1503,.T.);
#1503 = LINE('',#1504,#1505);
#1504 = CARTESIAN_POINT('',(-26.,-45.84,5.309401071456));
#1505 = VECTOR('',#1506,1.);
#1506 = DIRECTION('',(1.,0.,0.));
#1507 = ORIENTED_EDGE('',*,*,#664,.F.);
#1508 = PLANE('',#1509);
#1509 = AXIS2_PLACEMENT_3D('',#1510,#1511,#1512);
#1510 = CARTESIAN_POINT('',(-26.,-47.84,4.15470053838));
#1511 = DIRECTION('',(0.,-0.499999998278,0.866025404779));
#1512 = DIRECTION('',(0.,0.866025404779,0.499999998278));
#1513 = ADVANCED_FACE('',(#1514),#1532,.F.);
#1514 = FACE_BOUND('',#1515,.F.);
#1515 = EDGE_LOOP('',(#1516,#1524,#1530,#1531));
#1516 = ORIENTED_EDGE('',*,*,#1517,.T.);
#1517 = EDGE_CURVE('',#681,#1518,#1520,.T.);
#1518 = VERTEX_POINT('',#1519);
#1519 = CARTESIAN_POINT('',(-24.4,-43.84,1.845299461622));
#1520 = LINE('',#1521,#1522);
#1521 = CARTESIAN_POINT('',(-26.,-43.84,1.845299461622));
#1522 = VECTOR('',#1523,1.);
#1523 = DIRECTION('',(1.,0.,0.));
#1524 = ORIENTED_EDGE('',*,*,#1525,.T.);
#1525 = EDGE_CURVE('',#1518,#1470,#1526,.T.);
#1526 = LINE('',#1527,#1528);
#1527 = CARTESIAN_POINT('',(-24.4,-43.84,1.845299461622));
#1528 = VECTOR('',#1529,1.);
#1529 = DIRECTION('',(0.,-0.866025403784,-0.500000000001));
#1530 = ORIENTED_EDGE('',*,*,#1469,.F.);
#1531 = ORIENTED_EDGE('',*,*,#688,.F.);
#1532 = PLANE('',#1533);
#1533 = AXIS2_PLACEMENT_3D('',#1534,#1535,#1536);
#1534 = CARTESIAN_POINT('',(-26.,-43.84,1.845299461622));
#1535 = DIRECTION('',(0.,0.500000000001,-0.866025403784));
#1536 = DIRECTION('',(0.,-0.866025403784,-0.500000000001));
#1537 = ADVANCED_FACE('',(#1538),#1556,.F.);
#1538 = FACE_BOUND('',#1539,.F.);
#1539 = EDGE_LOOP('',(#1540,#1541,#1549,#1555));
#1540 = ORIENTED_EDGE('',*,*,#1502,.T.);
#1541 = ORIENTED_EDGE('',*,*,#1542,.T.);
#1542 = EDGE_CURVE('',#1495,#1543,#1545,.T.);
#1543 = VERTEX_POINT('',#1544);
#1544 = CARTESIAN_POINT('',(-24.4,-43.84,4.154700538379));
#1545 = LINE('',#1546,#1547);
#1546 = CARTESIAN_POINT('',(-24.4,-45.84,5.309401071456));
#1547 = VECTOR('',#1548,1.);
#1548 = DIRECTION('',(0.,0.866025404779,-0.499999998278));
#1549 = ORIENTED_EDGE('',*,*,#1550,.F.);
#1550 = EDGE_CURVE('',#673,#1543,#1551,.T.);
#1551 = LINE('',#1552,#1553);
#1552 = CARTESIAN_POINT('',(-26.,-43.84,4.154700538379));
#1553 = VECTOR('',#1554,1.);
#1554 = DIRECTION('',(1.,0.,0.));
#1555 = ORIENTED_EDGE('',*,*,#672,.F.);
#1556 = PLANE('',#1557);
#1557 = AXIS2_PLACEMENT_3D('',#1558,#1559,#1560);
#1558 = CARTESIAN_POINT('',(-26.,-45.84,5.309401071456));
#1559 = DIRECTION('',(0.,0.499999998278,0.866025404779));
#1560 = DIRECTION('',(0.,0.866025404779,-0.499999998278));
#1561 = ADVANCED_FACE('',(#1562),#1573,.F.);
#1562 = FACE_BOUND('',#1563,.F.);
#1563 = EDGE_LOOP('',(#1564,#1565,#1571,#1572));
#1564 = ORIENTED_EDGE('',*,*,#1550,.T.);
#1565 = ORIENTED_EDGE('',*,*,#1566,.T.);
#1566 = EDGE_CURVE('',#1543,#1518,#1567,.T.);
#1567 = LINE('',#1568,#1569);
#1568 = CARTESIAN_POINT('',(-24.4,-43.84,4.154700538379));
#1569 = VECTOR('',#1570,1.);
#1570 = DIRECTION('',(0.,0.,-1.));
#1571 = ORIENTED_EDGE('',*,*,#1517,.F.);
#1572 = ORIENTED_EDGE('',*,*,#680,.F.);
#1573 = PLANE('',#1574);
#1574 = AXIS2_PLACEMENT_3D('',#1575,#1576,#1577);
#1575 = CARTESIAN_POINT('',(-26.,-43.84,4.154700538379));
#1576 = DIRECTION('',(0.,1.,0.));
#1577 = DIRECTION('',(0.,0.,-1.));
#1578 = ADVANCED_FACE('',(#1579),#1598,.T.);
#1579 = FACE_BOUND('',#1580,.T.);
#1580 = EDGE_LOOP('',(#1581,#1589,#1595,#1596,#1597));
#1581 = ORIENTED_EDGE('',*,*,#1582,.T.);
#1582 = EDGE_CURVE('',#799,#1583,#1585,.T.);
#1583 = VERTEX_POINT('',#1584);
#1584 = CARTESIAN_POINT('',(20.5,19.4,6.5));
#1585 = LINE('',#1586,#1587);
#1586 = CARTESIAN_POINT('',(20.5,21.,6.5));
#1587 = VECTOR('',#1588,1.);
#1588 = DIRECTION('',(0.,-1.,2.22044604925E-16));
#1589 = ORIENTED_EDGE('',*,*,#1590,.T.);
#1590 = EDGE_CURVE('',#1583,#1292,#1591,.T.);
#1591 = LINE('',#1592,#1593);
#1592 = CARTESIAN_POINT('',(20.5,19.4,6.5));
#1593 = VECTOR('',#1594,1.);
#1594 = DIRECTION('',(0.,-2.22044604925E-16,-1.));
#1595 = ORIENTED_EDGE('',*,*,#1291,.F.);
#1596 = ORIENTED_EDGE('',*,*,#775,.F.);
#1597 = ORIENTED_EDGE('',*,*,#806,.F.);
#1598 = PLANE('',#1599);
#1599 = AXIS2_PLACEMENT_3D('',#1600,#1601,#1602);
#1600 = CARTESIAN_POINT('',(20.5,21.,6.5));
#1601 = DIRECTION('',(1.,0.,0.));
#1602 = DIRECTION('',(0.,-2.22044604925E-16,-1.));
#1603 = ADVANCED_FACE('',(#1604),#1622,.T.);
#1604 = FACE_BOUND('',#1605,.T.);
#1605 = EDGE_LOOP('',(#1606,#1614,#1620,#1621));
#1606 = ORIENTED_EDGE('',*,*,#1607,.T.);
#1607 = EDGE_CURVE('',#791,#1608,#1610,.T.);
#1608 = VERTEX_POINT('',#1609);
#1609 = CARTESIAN_POINT('',(13.5,19.4,6.5));
#1610 = LINE('',#1611,#1612);
#1611 = CARTESIAN_POINT('',(13.5,21.,6.5));
#1612 = VECTOR('',#1613,1.);
#1613 = DIRECTION('',(0.,-1.,2.22044604925E-16));
#1614 = ORIENTED_EDGE('',*,*,#1615,.T.);
#1615 = EDGE_CURVE('',#1608,#1583,#1616,.T.);
#1616 = LINE('',#1617,#1618);
#1617 = CARTESIAN_POINT('',(13.5,19.4,6.5));
#1618 = VECTOR('',#1619,1.);
#1619 = DIRECTION('',(1.,0.,0.));
#1620 = ORIENTED_EDGE('',*,*,#1582,.F.);
#1621 = ORIENTED_EDGE('',*,*,#798,.F.);
#1622 = PLANE('',#1623);
#1623 = AXIS2_PLACEMENT_3D('',#1624,#1625,#1626);
#1624 = CARTESIAN_POINT('',(13.5,21.,6.5));
#1625 = DIRECTION('',(0.,2.22044604925E-16,1.));
#1626 = DIRECTION('',(1.,0.,0.));
#1627 = ADVANCED_FACE('',(#1628),#1640,.T.);
#1628 = FACE_BOUND('',#1629,.T.);
#1629 = EDGE_LOOP('',(#1630,#1631,#1637,#1638,#1639));
#1630 = ORIENTED_EDGE('',*,*,#1307,.T.);
#1631 = ORIENTED_EDGE('',*,*,#1632,.T.);
#1632 = EDGE_CURVE('',#1300,#1608,#1633,.T.);
#1633 = LINE('',#1634,#1635);
#1634 = CARTESIAN_POINT('',(13.5,19.4,-4.));
#1635 = VECTOR('',#1636,1.);
#1636 = DIRECTION('',(0.,2.22044604925E-16,1.));
#1637 = ORIENTED_EDGE('',*,*,#1607,.F.);
#1638 = ORIENTED_EDGE('',*,*,#790,.F.);
#1639 = ORIENTED_EDGE('',*,*,#871,.F.);
#1640 = PLANE('',#1641);
#1641 = AXIS2_PLACEMENT_3D('',#1642,#1643,#1644);
#1642 = CARTESIAN_POINT('',(13.5,21.,-4.));
#1643 = DIRECTION('',(-1.,0.,0.));
#1644 = DIRECTION('',(0.,2.22044604925E-16,1.));
#1645 = ADVANCED_FACE('',(#1646),#1671,.F.);
#1646 = FACE_BOUND('',#1647,.F.);
#1647 = EDGE_LOOP('',(#1648,#1656,#1664,#1670));
#1648 = ORIENTED_EDGE('',*,*,#1649,.T.);
#1649 = EDGE_CURVE('',#815,#1650,#1652,.T.);
#1650 = VERTEX_POINT('',#1651);
#1651 = CARTESIAN_POINT('',(15.,19.4,1.845));
#1652 = LINE('',#1653,#1654);
#1653 = CARTESIAN_POINT('',(15.,21.,1.845));
#1654 = VECTOR('',#1655,1.);
#1655 = DIRECTION('',(0.,-1.,2.22044604925E-16));
#1656 = ORIENTED_EDGE('',*,*,#1657,.T.);
#1657 = EDGE_CURVE('',#1650,#1658,#1660,.T.);
#1658 = VERTEX_POINT('',#1659);
#1659 = CARTESIAN_POINT('',(15.,19.4,4.155));
#1660 = LINE('',#1661,#1662);
#1661 = CARTESIAN_POINT('',(15.,19.4,1.845));
#1662 = VECTOR('',#1663,1.);
#1663 = DIRECTION('',(0.,2.22044604925E-16,1.));
#1664 = ORIENTED_EDGE('',*,*,#1665,.F.);
#1665 = EDGE_CURVE('',#817,#1658,#1666,.T.);
#1666 = LINE('',#1667,#1668);
#1667 = CARTESIAN_POINT('',(15.,21.,4.155));
#1668 = VECTOR('',#1669,1.);
#1669 = DIRECTION('',(0.,-1.,2.22044604925E-16));
#1670 = ORIENTED_EDGE('',*,*,#814,.F.);
#1671 = PLANE('',#1672);
#1672 = AXIS2_PLACEMENT_3D('',#1673,#1674,#1675);
#1673 = CARTESIAN_POINT('',(15.,21.,1.845));
#1674 = DIRECTION('',(-1.,0.,0.));
#1675 = DIRECTION('',(0.,2.22044604925E-16,1.));
#1676 = ADVANCED_FACE('',(#1677),#1695,.F.);
#1677 = FACE_BOUND('',#1678,.F.);
#1678 = EDGE_LOOP('',(#1679,#1687,#1693,#1694));
#1679 = ORIENTED_EDGE('',*,*,#1680,.T.);
#1680 = EDGE_CURVE('',#825,#1681,#1683,.T.);
#1681 = VERTEX_POINT('',#1682);
#1682 = CARTESIAN_POINT('',(17.000518682742,19.4,0.69));
#1683 = LINE('',#1684,#1685);
#1684 = CARTESIAN_POINT('',(17.000518682742,21.,0.69));
#1685 = VECTOR('',#1686,1.);
#1686 = DIRECTION('',(0.,-1.,2.22044604925E-16));
#1687 = ORIENTED_EDGE('',*,*,#1688,.T.);
#1688 = EDGE_CURVE('',#1681,#1650,#1689,.T.);
#1689 = LINE('',#1690,#1691);
#1690 = CARTESIAN_POINT('',(17.000518682742,19.4,0.69));
#1691 = VECTOR('',#1692,1.);
#1692 = DIRECTION('',(-0.866025403784,1.110223024625E-16,0.5));
#1693 = ORIENTED_EDGE('',*,*,#1649,.F.);
#1694 = ORIENTED_EDGE('',*,*,#824,.F.);
#1695 = PLANE('',#1696);
#1696 = AXIS2_PLACEMENT_3D('',#1697,#1698,#1699);
#1697 = CARTESIAN_POINT('',(17.000518682742,21.,0.69));
#1698 = DIRECTION('',(-0.5,-1.922962686384E-16,-0.866025403784));
#1699 = DIRECTION('',(-0.866025403784,1.110223024625E-16,0.5));
#1700 = ADVANCED_FACE('',(#1701),#1719,.F.);
#1701 = FACE_BOUND('',#1702,.F.);
#1702 = EDGE_LOOP('',(#1703,#1704,#1712,#1718));
#1703 = ORIENTED_EDGE('',*,*,#1665,.T.);
#1704 = ORIENTED_EDGE('',*,*,#1705,.T.);
#1705 = EDGE_CURVE('',#1658,#1706,#1708,.T.);
#1706 = VERTEX_POINT('',#1707);
#1707 = CARTESIAN_POINT('',(17.000518682742,19.4,5.31));
#1708 = LINE('',#1709,#1710);
#1709 = CARTESIAN_POINT('',(15.,19.4,4.155));
#1710 = VECTOR('',#1711,1.);
#1711 = DIRECTION('',(0.866025403784,1.110223024625E-16,0.5));
#1712 = ORIENTED_EDGE('',*,*,#1713,.F.);
#1713 = EDGE_CURVE('',#849,#1706,#1714,.T.);
#1714 = LINE('',#1715,#1716);
#1715 = CARTESIAN_POINT('',(17.000518682742,21.,5.31));
#1716 = VECTOR('',#1717,1.);
#1717 = DIRECTION('',(0.,-1.,2.22044604925E-16));
#1718 = ORIENTED_EDGE('',*,*,#856,.F.);
#1719 = PLANE('',#1720);
#1720 = AXIS2_PLACEMENT_3D('',#1721,#1722,#1723);
#1721 = CARTESIAN_POINT('',(15.,21.,4.155));
#1722 = DIRECTION('',(-0.5,1.922962686384E-16,0.866025403784));
#1723 = DIRECTION('',(0.866025403784,1.110223024625E-16,0.5));
#1724 = ADVANCED_FACE('',(#1725),#1743,.F.);
#1725 = FACE_BOUND('',#1726,.F.);
#1726 = EDGE_LOOP('',(#1727,#1735,#1741,#1742));
#1727 = ORIENTED_EDGE('',*,*,#1728,.T.);
#1728 = EDGE_CURVE('',#833,#1729,#1731,.T.);
#1729 = VERTEX_POINT('',#1730);
#1730 = CARTESIAN_POINT('',(19.001037365484,19.4,1.845));
#1731 = LINE('',#1732,#1733);
#1732 = CARTESIAN_POINT('',(19.001037365484,21.,1.845));
#1733 = VECTOR('',#1734,1.);
#1734 = DIRECTION('',(0.,-1.,2.22044604925E-16));
#1735 = ORIENTED_EDGE('',*,*,#1736,.T.);
#1736 = EDGE_CURVE('',#1729,#1681,#1737,.T.);
#1737 = LINE('',#1738,#1739);
#1738 = CARTESIAN_POINT('',(19.001037365484,19.4,1.845));
#1739 = VECTOR('',#1740,1.);
#1740 = DIRECTION('',(-0.866025403784,-1.110223024625E-16,-0.5));
#1741 = ORIENTED_EDGE('',*,*,#1680,.F.);
#1742 = ORIENTED_EDGE('',*,*,#832,.F.);
#1743 = PLANE('',#1744);
#1744 = AXIS2_PLACEMENT_3D('',#1745,#1746,#1747);
#1745 = CARTESIAN_POINT('',(19.001037365484,21.,1.845));
#1746 = DIRECTION('',(0.5,-1.922962686384E-16,-0.866025403784));
#1747 = DIRECTION('',(-0.866025403784,-1.110223024625E-16,-0.5));
#1748 = ADVANCED_FACE('',(#1749),#1767,.F.);
#1749 = FACE_BOUND('',#1750,.F.);
#1750 = EDGE_LOOP('',(#1751,#1752,#1760,#1766));
#1751 = ORIENTED_EDGE('',*,*,#1713,.T.);
#1752 = ORIENTED_EDGE('',*,*,#1753,.T.);
#1753 = EDGE_CURVE('',#1706,#1754,#1756,.T.);
#1754 = VERTEX_POINT('',#1755);
#1755 = CARTESIAN_POINT('',(19.001037365484,19.4,4.155));
#1756 = LINE('',#1757,#1758);
#1757 = CARTESIAN_POINT('',(17.000518682742,19.4,5.31));
#1758 = VECTOR('',#1759,1.);
#1759 = DIRECTION('',(0.866025403784,-1.110223024625E-16,-0.5));
#1760 = ORIENTED_EDGE('',*,*,#1761,.F.);
#1761 = EDGE_CURVE('',#841,#1754,#1762,.T.);
#1762 = LINE('',#1763,#1764);
#1763 = CARTESIAN_POINT('',(19.001037365484,21.,4.155));
#1764 = VECTOR('',#1765,1.);
#1765 = DIRECTION('',(0.,-1.,2.22044604925E-16));
#1766 = ORIENTED_EDGE('',*,*,#848,.F.);
#1767 = PLANE('',#1768);
#1768 = AXIS2_PLACEMENT_3D('',#1769,#1770,#1771);
#1769 = CARTESIAN_POINT('',(17.000518682742,21.,5.31));
#1770 = DIRECTION('',(0.5,1.922962686384E-16,0.866025403784));
#1771 = DIRECTION('',(0.866025403784,-1.110223024625E-16,-0.5));
#1772 = ADVANCED_FACE('',(#1773),#1784,.F.);
#1773 = FACE_BOUND('',#1774,.F.);
#1774 = EDGE_LOOP('',(#1775,#1776,#1782,#1783));
#1775 = ORIENTED_EDGE('',*,*,#1761,.T.);
#1776 = ORIENTED_EDGE('',*,*,#1777,.T.);
#1777 = EDGE_CURVE('',#1754,#1729,#1778,.T.);
#1778 = LINE('',#1779,#1780);
#1779 = CARTESIAN_POINT('',(19.001037365484,19.4,4.155));
#1780 = VECTOR('',#1781,1.);
#1781 = DIRECTION('',(0.,-2.22044604925E-16,-1.));
#1782 = ORIENTED_EDGE('',*,*,#1728,.F.);
#1783 = ORIENTED_EDGE('',*,*,#840,.F.);
#1784 = PLANE('',#1785);
#1785 = AXIS2_PLACEMENT_3D('',#1786,#1787,#1788);
#1786 = CARTESIAN_POINT('',(19.001037365484,21.,4.155));
#1787 = DIRECTION('',(1.,0.,0.));
#1788 = DIRECTION('',(0.,-2.22044604925E-16,-1.));
#1789 = ADVANCED_FACE('',(#1790),#1809,.T.);
#1790 = FACE_BOUND('',#1791,.T.);
#1791 = EDGE_LOOP('',(#1792,#1800,#1806,#1807,#1808));
#1792 = ORIENTED_EDGE('',*,*,#1793,.T.);
#1793 = EDGE_CURVE('',#911,#1794,#1796,.T.);
#1794 = VERTEX_POINT('',#1795);
#1795 = CARTESIAN_POINT('',(-13.5,19.4,6.5));
#1796 = LINE('',#1797,#1798);
#1797 = CARTESIAN_POINT('',(-13.5,21.,6.5));
#1798 = VECTOR('',#1799,1.);
#1799 = DIRECTION('',(0.,-1.,2.22044604925E-16));
#1800 = ORIENTED_EDGE('',*,*,#1801,.T.);
#1801 = EDGE_CURVE('',#1794,#1315,#1802,.T.);
#1802 = LINE('',#1803,#1804);
#1803 = CARTESIAN_POINT('',(-13.5,19.4,6.5));
#1804 = VECTOR('',#1805,1.);
#1805 = DIRECTION('',(0.,-2.22044604925E-16,-1.));
#1806 = ORIENTED_EDGE('',*,*,#1314,.F.);
#1807 = ORIENTED_EDGE('',*,*,#887,.F.);
#1808 = ORIENTED_EDGE('',*,*,#918,.F.);
#1809 = PLANE('',#1810);
#1810 = AXIS2_PLACEMENT_3D('',#1811,#1812,#1813);
#1811 = CARTESIAN_POINT('',(-13.5,21.,6.5));
#1812 = DIRECTION('',(1.,0.,0.));
#1813 = DIRECTION('',(0.,-2.22044604925E-16,-1.));
#1814 = ADVANCED_FACE('',(#1815),#1833,.T.);
#1815 = FACE_BOUND('',#1816,.T.);
#1816 = EDGE_LOOP('',(#1817,#1825,#1831,#1832));
#1817 = ORIENTED_EDGE('',*,*,#1818,.T.);
#1818 = EDGE_CURVE('',#903,#1819,#1821,.T.);
#1819 = VERTEX_POINT('',#1820);
#1820 = CARTESIAN_POINT('',(-20.5,19.4,6.5));
#1821 = LINE('',#1822,#1823);
#1822 = CARTESIAN_POINT('',(-20.5,21.,6.5));
#1823 = VECTOR('',#1824,1.);
#1824 = DIRECTION('',(0.,-1.,2.22044604925E-16));
#1825 = ORIENTED_EDGE('',*,*,#1826,.T.);
#1826 = EDGE_CURVE('',#1819,#1794,#1827,.T.);
#1827 = LINE('',#1828,#1829);
#1828 = CARTESIAN_POINT('',(-20.5,19.4,6.5));
#1829 = VECTOR('',#1830,1.);
#1830 = DIRECTION('',(1.,0.,0.));
#1831 = ORIENTED_EDGE('',*,*,#1793,.F.);
#1832 = ORIENTED_EDGE('',*,*,#910,.F.);
#1833 = PLANE('',#1834);
#1834 = AXIS2_PLACEMENT_3D('',#1835,#1836,#1837);
#1835 = CARTESIAN_POINT('',(-20.5,21.,6.5));
#1836 = DIRECTION('',(0.,2.22044604925E-16,1.));
#1837 = DIRECTION('',(1.,0.,0.));
#1838 = ADVANCED_FACE('',(#1839),#1851,.T.);
#1839 = FACE_BOUND('',#1840,.T.);
#1840 = EDGE_LOOP('',(#1841,#1842,#1848,#1849,#1850));
#1841 = ORIENTED_EDGE('',*,*,#1330,.T.);
#1842 = ORIENTED_EDGE('',*,*,#1843,.T.);
#1843 = EDGE_CURVE('',#1323,#1819,#1844,.T.);
#1844 = LINE('',#1845,#1846);
#1845 = CARTESIAN_POINT('',(-20.5,19.4,-4.));
#1846 = VECTOR('',#1847,1.);
#1847 = DIRECTION('',(0.,2.22044604925E-16,1.));
#1848 = ORIENTED_EDGE('',*,*,#1818,.F.);
#1849 = ORIENTED_EDGE('',*,*,#902,.F.);
#1850 = ORIENTED_EDGE('',*,*,#983,.F.);
#1851 = PLANE('',#1852);
#1852 = AXIS2_PLACEMENT_3D('',#1853,#1854,#1855);
#1853 = CARTESIAN_POINT('',(-20.5,21.,-4.));
#1854 = DIRECTION('',(-1.,0.,0.));
#1855 = DIRECTION('',(0.,2.22044604925E-16,1.));
#1856 = ADVANCED_FACE('',(#1857),#1882,.F.);
#1857 = FACE_BOUND('',#1858,.F.);
#1858 = EDGE_LOOP('',(#1859,#1867,#1875,#1881));
#1859 = ORIENTED_EDGE('',*,*,#1860,.T.);
#1860 = EDGE_CURVE('',#927,#1861,#1863,.T.);
#1861 = VERTEX_POINT('',#1862);
#1862 = CARTESIAN_POINT('',(-19.,19.4,1.845000204839));
#1863 = LINE('',#1864,#1865);
#1864 = CARTESIAN_POINT('',(-19.,21.,1.845000204839));
#1865 = VECTOR('',#1866,1.);
#1866 = DIRECTION('',(0.,-1.,2.22044604925E-16));
#1867 = ORIENTED_EDGE('',*,*,#1868,.T.);
#1868 = EDGE_CURVE('',#1861,#1869,#1871,.T.);
#1869 = VERTEX_POINT('',#1870);
#1870 = CARTESIAN_POINT('',(-19.,19.4,4.155000204839));
#1871 = LINE('',#1872,#1873);
#1872 = CARTESIAN_POINT('',(-19.,19.4,1.845000204839));
#1873 = VECTOR('',#1874,1.);
#1874 = DIRECTION('',(0.,2.22044604925E-16,1.));
#1875 = ORIENTED_EDGE('',*,*,#1876,.F.);
#1876 = EDGE_CURVE('',#929,#1869,#1877,.T.);
#1877 = LINE('',#1878,#1879);
#1878 = CARTESIAN_POINT('',(-19.,21.,4.155000204839));
#1879 = VECTOR('',#1880,1.);
#1880 = DIRECTION('',(0.,-1.,2.22044604925E-16));
#1881 = ORIENTED_EDGE('',*,*,#926,.F.);
#1882 = PLANE('',#1883);
#1883 = AXIS2_PLACEMENT_3D('',#1884,#1885,#1886);
#1884 = CARTESIAN_POINT('',(-19.,21.,1.845000204839));
#1885 = DIRECTION('',(-1.,0.,0.));
#1886 = DIRECTION('',(0.,2.22044604925E-16,1.));
#1887 = ADVANCED_FACE('',(#1888),#1906,.F.);
#1888 = FACE_BOUND('',#1889,.F.);
#1889 = EDGE_LOOP('',(#1890,#1898,#1904,#1905));
#1890 = ORIENTED_EDGE('',*,*,#1891,.T.);
#1891 = EDGE_CURVE('',#937,#1892,#1894,.T.);
#1892 = VERTEX_POINT('',#1893);
#1893 = CARTESIAN_POINT('',(-16.9994804894,19.4,0.69));
#1894 = LINE('',#1895,#1896);
#1895 = CARTESIAN_POINT('',(-16.9994804894,21.,0.69));
#1896 = VECTOR('',#1897,1.);
#1897 = DIRECTION('',(0.,-1.,2.22044604925E-16));
#1898 = ORIENTED_EDGE('',*,*,#1899,.T.);
#1899 = EDGE_CURVE('',#1892,#1861,#1900,.T.);
#1900 = LINE('',#1901,#1902);
#1901 = CARTESIAN_POINT('',(-16.9994804894,19.4,0.69));
#1902 = VECTOR('',#1903,1.);
#1903 = DIRECTION('',(-0.866025454981,1.110222827727E-16,0.499999911325)
  );
#1904 = ORIENTED_EDGE('',*,*,#1860,.F.);
#1905 = ORIENTED_EDGE('',*,*,#936,.F.);
#1906 = PLANE('',#1907);
#1907 = AXIS2_PLACEMENT_3D('',#1908,#1909,#1910);
#1908 = CARTESIAN_POINT('',(-16.9994804894,21.,0.69));
#1909 = DIRECTION('',(-0.499999911325,-1.922962800063E-16,
    -0.866025454981));
#1910 = DIRECTION('',(-0.866025454981,1.110222827727E-16,0.499999911325)
  );
#1911 = ADVANCED_FACE('',(#1912),#1930,.F.);
#1912 = FACE_BOUND('',#1913,.F.);
#1913 = EDGE_LOOP('',(#1914,#1915,#1923,#1929));
#1914 = ORIENTED_EDGE('',*,*,#1876,.T.);
#1915 = ORIENTED_EDGE('',*,*,#1916,.T.);
#1916 = EDGE_CURVE('',#1869,#1917,#1919,.T.);
#1917 = VERTEX_POINT('',#1918);
#1918 = CARTESIAN_POINT('',(-16.99948119899,19.4,5.31));
#1919 = LINE('',#1920,#1921);
#1920 = CARTESIAN_POINT('',(-19.,19.4,4.155000204839));
#1921 = VECTOR('',#1922,1.);
#1922 = DIRECTION('',(0.866025454981,1.110222827727E-16,0.499999911325)
  );
#1923 = ORIENTED_EDGE('',*,*,#1924,.F.);
#1924 = EDGE_CURVE('',#961,#1917,#1925,.T.);
#1925 = LINE('',#1926,#1927);
#1926 = CARTESIAN_POINT('',(-16.99948119899,21.,5.31));
#1927 = VECTOR('',#1928,1.);
#1928 = DIRECTION('',(0.,-1.,2.22044604925E-16));
#1929 = ORIENTED_EDGE('',*,*,#968,.F.);
#1930 = PLANE('',#1931);
#1931 = AXIS2_PLACEMENT_3D('',#1932,#1933,#1934);
#1932 = CARTESIAN_POINT('',(-19.,21.,4.155000204839));
#1933 = DIRECTION('',(-0.499999911325,1.922962800063E-16,0.866025454981)
  );
#1934 = DIRECTION('',(0.866025454981,1.110222827727E-16,0.499999911325)
  );
#1935 = ADVANCED_FACE('',(#1936),#1954,.F.);
#1936 = FACE_BOUND('',#1937,.F.);
#1937 = EDGE_LOOP('',(#1938,#1946,#1952,#1953));
#1938 = ORIENTED_EDGE('',*,*,#1939,.T.);
#1939 = EDGE_CURVE('',#945,#1940,#1942,.T.);
#1940 = VERTEX_POINT('',#1941);
#1941 = CARTESIAN_POINT('',(-14.99896239798,19.4,1.845000204839));
#1942 = LINE('',#1943,#1944);
#1943 = CARTESIAN_POINT('',(-14.99896239798,21.,1.845000204839));
#1944 = VECTOR('',#1945,1.);
#1945 = DIRECTION('',(0.,-1.,2.22044604925E-16));
#1946 = ORIENTED_EDGE('',*,*,#1947,.T.);
#1947 = EDGE_CURVE('',#1940,#1892,#1948,.T.);
#1948 = LINE('',#1949,#1950);
#1949 = CARTESIAN_POINT('',(-14.99896239798,19.4,1.845000204839));
#1950 = VECTOR('',#1951,1.);
#1951 = DIRECTION('',(-0.866025301391,-1.110223418422E-16,-0.50000017735
    ));
#1952 = ORIENTED_EDGE('',*,*,#1891,.F.);
#1953 = ORIENTED_EDGE('',*,*,#944,.F.);
#1954 = PLANE('',#1955);
#1955 = AXIS2_PLACEMENT_3D('',#1956,#1957,#1958);
#1956 = CARTESIAN_POINT('',(-14.99896239798,21.,1.845000204839));
#1957 = DIRECTION('',(0.50000017735,-1.922962459025E-16,-0.866025301391)
  );
#1958 = DIRECTION('',(-0.866025301391,-1.110223418422E-16,-0.50000017735
    ));
#1959 = ADVANCED_FACE('',(#1960),#1978,.F.);
#1960 = FACE_BOUND('',#1961,.F.);
#1961 = EDGE_LOOP('',(#1962,#1963,#1971,#1977));
#1962 = ORIENTED_EDGE('',*,*,#1924,.T.);
#1963 = ORIENTED_EDGE('',*,*,#1964,.T.);
#1964 = EDGE_CURVE('',#1917,#1965,#1967,.T.);
#1965 = VERTEX_POINT('',#1966);
#1966 = CARTESIAN_POINT('',(-14.99896239798,19.4,4.155000204839));
#1967 = LINE('',#1968,#1969);
#1968 = CARTESIAN_POINT('',(-16.99948119899,19.4,5.31));
#1969 = VECTOR('',#1970,1.);
#1970 = DIRECTION('',(0.866025454981,-1.110222827727E-16,-0.499999911325
    ));
#1971 = ORIENTED_EDGE('',*,*,#1972,.F.);
#1972 = EDGE_CURVE('',#953,#1965,#1973,.T.);
#1973 = LINE('',#1974,#1975);
#1974 = CARTESIAN_POINT('',(-14.99896239798,21.,4.155000204839));
#1975 = VECTOR('',#1976,1.);
#1976 = DIRECTION('',(0.,-1.,2.22044604925E-16));
#1977 = ORIENTED_EDGE('',*,*,#960,.F.);
#1978 = PLANE('',#1979);
#1979 = AXIS2_PLACEMENT_3D('',#1980,#1981,#1982);
#1980 = CARTESIAN_POINT('',(-16.99948119899,21.,5.31));
#1981 = DIRECTION('',(0.499999911325,1.922962800063E-16,0.866025454981)
  );
#1982 = DIRECTION('',(0.866025454981,-1.110222827727E-16,-0.499999911325
    ));
#1983 = ADVANCED_FACE('',(#1984),#1995,.F.);
#1984 = FACE_BOUND('',#1985,.F.);
#1985 = EDGE_LOOP('',(#1986,#1987,#1993,#1994));
#1986 = ORIENTED_EDGE('',*,*,#1972,.T.);
#1987 = ORIENTED_EDGE('',*,*,#1988,.T.);
#1988 = EDGE_CURVE('',#1965,#1940,#1989,.T.);
#1989 = LINE('',#1990,#1991);
#1990 = CARTESIAN_POINT('',(-14.99896239798,19.4,4.155000204839));
#1991 = VECTOR('',#1992,1.);
#1992 = DIRECTION('',(0.,-2.22044604925E-16,-1.));
#1993 = ORIENTED_EDGE('',*,*,#1939,.F.);
#1994 = ORIENTED_EDGE('',*,*,#952,.F.);
#1995 = PLANE('',#1996);
#1996 = AXIS2_PLACEMENT_3D('',#1997,#1998,#1999);
#1997 = CARTESIAN_POINT('',(-14.99896239798,21.,4.155000204839));
#1998 = DIRECTION('',(1.,0.,0.));
#1999 = DIRECTION('',(0.,-2.22044604925E-16,-1.));
#2000 = ADVANCED_FACE('',(#2001),#2020,.T.);
#2001 = FACE_BOUND('',#2002,.T.);
#2002 = EDGE_LOOP('',(#2003,#2011,#2017,#2018,#2019));
#2003 = ORIENTED_EDGE('',*,*,#2004,.T.);
#2004 = EDGE_CURVE('',#1071,#2005,#2007,.T.);
#2005 = VERTEX_POINT('',#2006);
#2006 = CARTESIAN_POINT('',(24.4,-49.34,4.656318499632));
#2007 = LINE('',#2008,#2009);
#2008 = CARTESIAN_POINT('',(26.,-49.34,4.656318499632));
#2009 = VECTOR('',#2010,1.);
#2010 = DIRECTION('',(-1.,0.,0.));
#2011 = ORIENTED_EDGE('',*,*,#2012,.T.);
#2012 = EDGE_CURVE('',#2005,#1267,#2013,.T.);
#2013 = LINE('',#2014,#2015);
#2014 = CARTESIAN_POINT('',(24.4,-49.34,4.656318499632));
#2015 = VECTOR('',#2016,1.);
#2016 = DIRECTION('',(0.,0.,-1.));
#2017 = ORIENTED_EDGE('',*,*,#1266,.F.);
#2018 = ORIENTED_EDGE('',*,*,#1047,.F.);
#2019 = ORIENTED_EDGE('',*,*,#1078,.F.);
#2020 = PLANE('',#2021);
#2021 = AXIS2_PLACEMENT_3D('',#2022,#2023,#2024);
#2022 = CARTESIAN_POINT('',(26.,-49.34,4.656318499632));
#2023 = DIRECTION('',(-0.,-1.,-0.));
#2024 = DIRECTION('',(0.,0.,-1.));
#2025 = ADVANCED_FACE('',(#2026),#2044,.T.);
#2026 = FACE_BOUND('',#2027,.T.);
#2027 = EDGE_LOOP('',(#2028,#2036,#2042,#2043));
#2028 = ORIENTED_EDGE('',*,*,#2029,.T.);
#2029 = EDGE_CURVE('',#1063,#2030,#2032,.T.);
#2030 = VERTEX_POINT('',#2031);
#2031 = CARTESIAN_POINT('',(24.4,-42.34,7.204108734824));
#2032 = LINE('',#2033,#2034);
#2033 = CARTESIAN_POINT('',(26.,-42.34,7.204108734824));
#2034 = VECTOR('',#2035,1.);
#2035 = DIRECTION('',(-1.,0.,0.));
#2036 = ORIENTED_EDGE('',*,*,#2037,.T.);
#2037 = EDGE_CURVE('',#2030,#2005,#2038,.T.);
#2038 = LINE('',#2039,#2040);
#2039 = CARTESIAN_POINT('',(24.4,-42.34,7.204108734824));
#2040 = VECTOR('',#2041,1.);
#2041 = DIRECTION('',(0.,-0.93969268139,-0.342019976818));
#2042 = ORIENTED_EDGE('',*,*,#2004,.F.);
#2043 = ORIENTED_EDGE('',*,*,#1070,.F.);
#2044 = PLANE('',#2045);
#2045 = AXIS2_PLACEMENT_3D('',#2046,#2047,#2048);
#2046 = CARTESIAN_POINT('',(26.,-42.34,7.204108734824));
#2047 = DIRECTION('',(0.,-0.342019976818,0.93969268139));
#2048 = DIRECTION('',(0.,-0.93969268139,-0.342019976818));
#2049 = ADVANCED_FACE('',(#2050),#2062,.T.);
#2050 = FACE_BOUND('',#2051,.T.);
#2051 = EDGE_LOOP('',(#2052,#2053,#2059,#2060,#2061));
#2052 = ORIENTED_EDGE('',*,*,#1282,.T.);
#2053 = ORIENTED_EDGE('',*,*,#2054,.T.);
#2054 = EDGE_CURVE('',#1275,#2030,#2055,.T.);
#2055 = LINE('',#2056,#2057);
#2056 = CARTESIAN_POINT('',(24.4,-42.34,-4.));
#2057 = VECTOR('',#2058,1.);
#2058 = DIRECTION('',(0.,0.,1.));
#2059 = ORIENTED_EDGE('',*,*,#2029,.F.);
#2060 = ORIENTED_EDGE('',*,*,#1062,.F.);
#2061 = ORIENTED_EDGE('',*,*,#1143,.F.);
#2062 = PLANE('',#2063);
#2063 = AXIS2_PLACEMENT_3D('',#2064,#2065,#2066);
#2064 = CARTESIAN_POINT('',(26.,-42.34,-4.));
#2065 = DIRECTION('',(0.,1.,0.));
#2066 = DIRECTION('',(0.,0.,1.));
#2067 = ADVANCED_FACE('',(#2068),#2093,.F.);
#2068 = FACE_BOUND('',#2069,.F.);
#2069 = EDGE_LOOP('',(#2070,#2078,#2086,#2092));
#2070 = ORIENTED_EDGE('',*,*,#2071,.T.);
#2071 = EDGE_CURVE('',#1087,#2072,#2074,.T.);
#2072 = VERTEX_POINT('',#2073);
#2073 = CARTESIAN_POINT('',(24.4,-45.84,5.309401071456));
#2074 = LINE('',#2075,#2076);
#2075 = CARTESIAN_POINT('',(26.,-45.84,5.309401071456));
#2076 = VECTOR('',#2077,1.);
#2077 = DIRECTION('',(-1.,0.,0.));
#2078 = ORIENTED_EDGE('',*,*,#2079,.T.);
#2079 = EDGE_CURVE('',#2072,#2080,#2082,.T.);
#2080 = VERTEX_POINT('',#2081);
#2081 = CARTESIAN_POINT('',(24.4,-47.84,4.15470053838));
#2082 = LINE('',#2083,#2084);
#2083 = CARTESIAN_POINT('',(24.4,-45.84,5.309401071456));
#2084 = VECTOR('',#2085,1.);
#2085 = DIRECTION('',(0.,-0.866025404779,-0.499999998278));
#2086 = ORIENTED_EDGE('',*,*,#2087,.F.);
#2087 = EDGE_CURVE('',#1089,#2080,#2088,.T.);
#2088 = LINE('',#2089,#2090);
#2089 = CARTESIAN_POINT('',(26.,-47.84,4.15470053838));
#2090 = VECTOR('',#2091,1.);
#2091 = DIRECTION('',(-1.,0.,0.));
#2092 = ORIENTED_EDGE('',*,*,#1086,.F.);
#2093 = PLANE('',#2094);
#2094 = AXIS2_PLACEMENT_3D('',#2095,#2096,#2097);
#2095 = CARTESIAN_POINT('',(26.,-45.84,5.309401071456));
#2096 = DIRECTION('',(0.,-0.499999998278,0.866025404779));
#2097 = DIRECTION('',(0.,-0.866025404779,-0.499999998278));
#2098 = ADVANCED_FACE('',(#2099),#2117,.F.);
#2099 = FACE_BOUND('',#2100,.F.);
#2100 = EDGE_LOOP('',(#2101,#2109,#2115,#2116));
#2101 = ORIENTED_EDGE('',*,*,#2102,.T.);
#2102 = EDGE_CURVE('',#1097,#2103,#2105,.T.);
#2103 = VERTEX_POINT('',#2104);
#2104 = CARTESIAN_POINT('',(24.4,-43.84,4.154700538379));
#2105 = LINE('',#2106,#2107);
#2106 = CARTESIAN_POINT('',(26.,-43.84,4.154700538379));
#2107 = VECTOR('',#2108,1.);
#2108 = DIRECTION('',(-1.,0.,0.));
#2109 = ORIENTED_EDGE('',*,*,#2110,.T.);
#2110 = EDGE_CURVE('',#2103,#2072,#2111,.T.);
#2111 = LINE('',#2112,#2113);
#2112 = CARTESIAN_POINT('',(24.4,-43.84,4.154700538379));
#2113 = VECTOR('',#2114,1.);
#2114 = DIRECTION('',(0.,-0.866025404779,0.499999998278));
#2115 = ORIENTED_EDGE('',*,*,#2071,.F.);
#2116 = ORIENTED_EDGE('',*,*,#1096,.F.);
#2117 = PLANE('',#2118);
#2118 = AXIS2_PLACEMENT_3D('',#2119,#2120,#2121);
#2119 = CARTESIAN_POINT('',(26.,-43.84,4.154700538379));
#2120 = DIRECTION('',(0.,0.499999998278,0.866025404779));
#2121 = DIRECTION('',(0.,-0.866025404779,0.499999998278));
#2122 = ADVANCED_FACE('',(#2123),#2141,.F.);
#2123 = FACE_BOUND('',#2124,.F.);
#2124 = EDGE_LOOP('',(#2125,#2126,#2134,#2140));
#2125 = ORIENTED_EDGE('',*,*,#2087,.T.);
#2126 = ORIENTED_EDGE('',*,*,#2127,.T.);
#2127 = EDGE_CURVE('',#2080,#2128,#2130,.T.);
#2128 = VERTEX_POINT('',#2129);
#2129 = CARTESIAN_POINT('',(24.4,-47.84,1.845299461621));
#2130 = LINE('',#2131,#2132);
#2131 = CARTESIAN_POINT('',(24.4,-47.84,4.15470053838));
#2132 = VECTOR('',#2133,1.);
#2133 = DIRECTION('',(0.,0.,-1.));
#2134 = ORIENTED_EDGE('',*,*,#2135,.F.);
#2135 = EDGE_CURVE('',#1121,#2128,#2136,.T.);
#2136 = LINE('',#2137,#2138);
#2137 = CARTESIAN_POINT('',(26.,-47.84,1.845299461621));
#2138 = VECTOR('',#2139,1.);
#2139 = DIRECTION('',(-1.,0.,0.));
#2140 = ORIENTED_EDGE('',*,*,#1128,.F.);
#2141 = PLANE('',#2142);
#2142 = AXIS2_PLACEMENT_3D('',#2143,#2144,#2145);
#2143 = CARTESIAN_POINT('',(26.,-47.84,4.15470053838));
#2144 = DIRECTION('',(-0.,-1.,-0.));
#2145 = DIRECTION('',(0.,0.,-1.));
#2146 = ADVANCED_FACE('',(#2147),#2165,.F.);
#2147 = FACE_BOUND('',#2148,.F.);
#2148 = EDGE_LOOP('',(#2149,#2157,#2163,#2164));
#2149 = ORIENTED_EDGE('',*,*,#2150,.T.);
#2150 = EDGE_CURVE('',#1105,#2151,#2153,.T.);
#2151 = VERTEX_POINT('',#2152);
#2152 = CARTESIAN_POINT('',(24.4,-43.84,1.845299461622));
#2153 = LINE('',#2154,#2155);
#2154 = CARTESIAN_POINT('',(26.,-43.84,1.845299461622));
#2155 = VECTOR('',#2156,1.);
#2156 = DIRECTION('',(-1.,0.,0.));
#2157 = ORIENTED_EDGE('',*,*,#2158,.T.);
#2158 = EDGE_CURVE('',#2151,#2103,#2159,.T.);
#2159 = LINE('',#2160,#2161);
#2160 = CARTESIAN_POINT('',(24.4,-43.84,1.845299461622));
#2161 = VECTOR('',#2162,1.);
#2162 = DIRECTION('',(0.,0.,1.));
#2163 = ORIENTED_EDGE('',*,*,#2102,.F.);
#2164 = ORIENTED_EDGE('',*,*,#1104,.F.);
#2165 = PLANE('',#2166);
#2166 = AXIS2_PLACEMENT_3D('',#2167,#2168,#2169);
#2167 = CARTESIAN_POINT('',(26.,-43.84,1.845299461622));
#2168 = DIRECTION('',(0.,1.,0.));
#2169 = DIRECTION('',(0.,0.,1.));
#2170 = ADVANCED_FACE('',(#2171),#2189,.F.);
#2171 = FACE_BOUND('',#2172,.F.);
#2172 = EDGE_LOOP('',(#2173,#2174,#2182,#2188));
#2173 = ORIENTED_EDGE('',*,*,#2135,.T.);
#2174 = ORIENTED_EDGE('',*,*,#2175,.T.);
#2175 = EDGE_CURVE('',#2128,#2176,#2178,.T.);
#2176 = VERTEX_POINT('',#2177);
#2177 = CARTESIAN_POINT('',(24.4,-45.84,0.690598923241));
#2178 = LINE('',#2179,#2180);
#2179 = CARTESIAN_POINT('',(24.4,-47.84,1.845299461621));
#2180 = VECTOR('',#2181,1.);
#2181 = DIRECTION('',(-0.,0.866025403784,-0.5));
#2182 = ORIENTED_EDGE('',*,*,#2183,.F.);
#2183 = EDGE_CURVE('',#1113,#2176,#2184,.T.);
#2184 = LINE('',#2185,#2186);
#2185 = CARTESIAN_POINT('',(26.,-45.84,0.690598923241));
#2186 = VECTOR('',#2187,1.);
#2187 = DIRECTION('',(-1.,0.,0.));
#2188 = ORIENTED_EDGE('',*,*,#1120,.F.);
#2189 = PLANE('',#2190);
#2190 = AXIS2_PLACEMENT_3D('',#2191,#2192,#2193);
#2191 = CARTESIAN_POINT('',(26.,-47.84,1.845299461621));
#2192 = DIRECTION('',(-0.,-0.5,-0.866025403784));
#2193 = DIRECTION('',(0.,0.866025403784,-0.5));
#2194 = ADVANCED_FACE('',(#2195),#2206,.F.);
#2195 = FACE_BOUND('',#2196,.F.);
#2196 = EDGE_LOOP('',(#2197,#2198,#2204,#2205));
#2197 = ORIENTED_EDGE('',*,*,#2183,.T.);
#2198 = ORIENTED_EDGE('',*,*,#2199,.T.);
#2199 = EDGE_CURVE('',#2176,#2151,#2200,.T.);
#2200 = LINE('',#2201,#2202);
#2201 = CARTESIAN_POINT('',(24.4,-45.84,0.690598923241));
#2202 = VECTOR('',#2203,1.);
#2203 = DIRECTION('',(0.,0.866025403784,0.500000000001));
#2204 = ORIENTED_EDGE('',*,*,#2150,.F.);
#2205 = ORIENTED_EDGE('',*,*,#1112,.F.);
#2206 = PLANE('',#2207);
#2207 = AXIS2_PLACEMENT_3D('',#2208,#2209,#2210);
#2208 = CARTESIAN_POINT('',(26.,-45.84,0.690598923241));
#2209 = DIRECTION('',(0.,0.500000000001,-0.866025403784));
#2210 = DIRECTION('',(0.,0.866025403784,0.500000000001));
#2211 = ADVANCED_FACE('',(#2212,#2218),#2226,.T.);
#2212 = FACE_BOUND('',#2213,.F.);
#2213 = EDGE_LOOP('',(#2214,#2215,#2216,#2217));
#2214 = ORIENTED_EDGE('',*,*,#1397,.T.);
#2215 = ORIENTED_EDGE('',*,*,#1422,.T.);
#2216 = ORIENTED_EDGE('',*,*,#1379,.T.);
#2217 = ORIENTED_EDGE('',*,*,#1347,.T.);
#2218 = FACE_BOUND('',#2219,.T.);
#2219 = EDGE_LOOP('',(#2220,#2221,#2222,#2223,#2224,#2225));
#2220 = ORIENTED_EDGE('',*,*,#1446,.T.);
#2221 = ORIENTED_EDGE('',*,*,#1494,.T.);
#2222 = ORIENTED_EDGE('',*,*,#1542,.T.);
#2223 = ORIENTED_EDGE('',*,*,#1566,.T.);
#2224 = ORIENTED_EDGE('',*,*,#1525,.T.);
#2225 = ORIENTED_EDGE('',*,*,#1477,.T.);
#2226 = PLANE('',#2227);
#2227 = AXIS2_PLACEMENT_3D('',#2228,#2229,#2230);
#2228 = CARTESIAN_POINT('',(-24.4,-45.65486418939,1.630505810737));
#2229 = DIRECTION('',(1.,0.,0.));
#2230 = DIRECTION('',(0.,0.,1.));
#2231 = ADVANCED_FACE('',(#2232,#2238),#2246,.F.);
#2232 = FACE_BOUND('',#2233,.F.);
#2233 = EDGE_LOOP('',(#2234,#2235,#2236,#2237));
#2234 = ORIENTED_EDGE('',*,*,#1843,.T.);
#2235 = ORIENTED_EDGE('',*,*,#1826,.T.);
#2236 = ORIENTED_EDGE('',*,*,#1801,.T.);
#2237 = ORIENTED_EDGE('',*,*,#1322,.T.);
#2238 = FACE_BOUND('',#2239,.T.);
#2239 = EDGE_LOOP('',(#2240,#2241,#2242,#2243,#2244,#2245));
#2240 = ORIENTED_EDGE('',*,*,#1868,.T.);
#2241 = ORIENTED_EDGE('',*,*,#1916,.T.);
#2242 = ORIENTED_EDGE('',*,*,#1964,.T.);
#2243 = ORIENTED_EDGE('',*,*,#1988,.T.);
#2244 = ORIENTED_EDGE('',*,*,#1947,.T.);
#2245 = ORIENTED_EDGE('',*,*,#1899,.T.);
#2246 = PLANE('',#2247);
#2247 = AXIS2_PLACEMENT_3D('',#2248,#2249,#2250);
#2248 = CARTESIAN_POINT('',(1.470831983908E-04,19.4,1.74641835547));
#2249 = DIRECTION('',(0.,1.,0.));
#2250 = DIRECTION('',(0.,0.,1.));
#2251 = ADVANCED_FACE('',(#2252,#2258),#2266,.F.);
#2252 = FACE_BOUND('',#2253,.F.);
#2253 = EDGE_LOOP('',(#2254,#2255,#2256,#2257));
#2254 = ORIENTED_EDGE('',*,*,#1632,.T.);
#2255 = ORIENTED_EDGE('',*,*,#1615,.T.);
#2256 = ORIENTED_EDGE('',*,*,#1590,.T.);
#2257 = ORIENTED_EDGE('',*,*,#1299,.T.);
#2258 = FACE_BOUND('',#2259,.T.);
#2259 = EDGE_LOOP('',(#2260,#2261,#2262,#2263,#2264,#2265));
#2260 = ORIENTED_EDGE('',*,*,#1657,.T.);
#2261 = ORIENTED_EDGE('',*,*,#1705,.T.);
#2262 = ORIENTED_EDGE('',*,*,#1753,.T.);
#2263 = ORIENTED_EDGE('',*,*,#1777,.T.);
#2264 = ORIENTED_EDGE('',*,*,#1736,.T.);
#2265 = ORIENTED_EDGE('',*,*,#1688,.T.);
#2266 = PLANE('',#2267);
#2267 = AXIS2_PLACEMENT_3D('',#2268,#2269,#2270);
#2268 = CARTESIAN_POINT('',(1.470831983908E-04,19.4,1.74641835547));
#2269 = DIRECTION('',(0.,1.,0.));
#2270 = DIRECTION('',(0.,0.,1.));
#2271 = ADVANCED_FACE('',(#2272,#2278),#2286,.F.);
#2272 = FACE_BOUND('',#2273,.F.);
#2273 = EDGE_LOOP('',(#2274,#2275,#2276,#2277));
#2274 = ORIENTED_EDGE('',*,*,#2054,.T.);
#2275 = ORIENTED_EDGE('',*,*,#2037,.T.);
#2276 = ORIENTED_EDGE('',*,*,#2012,.T.);
#2277 = ORIENTED_EDGE('',*,*,#1274,.T.);
#2278 = FACE_BOUND('',#2279,.T.);
#2279 = EDGE_LOOP('',(#2280,#2281,#2282,#2283,#2284,#2285));
#2280 = ORIENTED_EDGE('',*,*,#2079,.T.);
#2281 = ORIENTED_EDGE('',*,*,#2127,.T.);
#2282 = ORIENTED_EDGE('',*,*,#2175,.T.);
#2283 = ORIENTED_EDGE('',*,*,#2199,.T.);
#2284 = ORIENTED_EDGE('',*,*,#2158,.T.);
#2285 = ORIENTED_EDGE('',*,*,#2110,.T.);
#2286 = PLANE('',#2287);
#2287 = AXIS2_PLACEMENT_3D('',#2288,#2289,#2290);
#2288 = CARTESIAN_POINT('',(24.4,-45.65486418939,1.630505810737));
#2289 = DIRECTION('',(1.,0.,0.));
#2290 = DIRECTION('',(0.,0.,1.));
#2291 = ( GEOMETRIC_REPRESENTATION_CONTEXT(3) 
GLOBAL_UNCERTAINTY_ASSIGNED_CONTEXT((#2295)) 
GLOBAL_UNIT_ASSIGNED_CONTEXT((#2292,#2293,#2294)) REPRESENTATION_CONTEXT
('Context #1','3D Context with UNIT and UNCERTAINTY') );
#2292 = ( LENGTH_UNIT() NAMED_UNIT(*) SI_UNIT(.MILLI.,.METRE.) );
#2293 = ( NAMED_UNIT(*) PLANE_ANGLE_UNIT() SI_UNIT($,.RADIAN.) );
#2294 = ( NAMED_UNIT(*) SI_UNIT($,.STERADIAN.) SOLID_ANGLE_UNIT() );
#2295 = UNCERTAINTY_MEASURE_WITH_UNIT(LENGTH_MEASURE(1.E-07),#2292,
  'distance_accuracy_value','confusion accuracy');
#2296 = PRODUCT_RELATED_PRODUCT_CATEGORY('part',$,(#7));
#2297 = MECHANICAL_DESIGN_GEOMETRIC_PRESENTATION_REPRESENTATION('',(
    #2298),#2291);
#2298 = STYLED_ITEM('color',(#2299),#15);
#2299 = PRESENTATION_STYLE_ASSIGNMENT((#2300,#2308));
#2300 = SURFACE_STYLE_USAGE(.BOTH.,#2301);
#2301 = SURFACE_SIDE_STYLE('',(#2302,#2306));
#2302 = SURFACE_STYLE_FILL_AREA(#2303);
#2303 = FILL_AREA_STYLE('',(#2304));
#2304 = FILL_AREA_STYLE_COLOUR('',#2305);
#2305 = COLOUR_RGB('',0.904664459068,0.695713273434,0.852918498465);
#2306 = SURFACE_STYLE_RENDERING_WITH_PROPERTIES(.NORMAL_SHADING.,#2305,(
    #2307));
#2307 = SURFACE_STYLE_TRANSPARENT(0.5);
#2308 = CURVE_STYLE('',#2309,POSITIVE_LENGTH_MEASURE(0.1),#2310);
#2309 = DRAUGHTING_PRE_DEFINED_CURVE_FONT('continuous');
#2310 = COLOUR_RGB('',9.803921802644E-02,9.803921802644E-02,
  9.803921802644E-02);
ENDSEC;
END-ISO-10303-21;
